New_Shree-Light.ufo
<glyph name="exclam" format="1">
  <advance width="317"/>
  <unicode hex="0021"/>
  <note>
	exclam
  </note>
  <outline>
    <contour>
      <point x="166" y="-50"/>
      <point x="144" y="-28"/>
      <point x="144" y="0" type="curve" smooth="yes"/>
      <point x="144" y="27"/>
      <point x="166" y="49"/>
      <point x="194" y="49" type="curve" smooth="yes"/>
      <point x="221" y="49"/>
      <point x="243" y="27"/>
      <point x="243" y="0" type="curve" smooth="yes"/>
      <point x="243" y="-28"/>
      <point x="221" y="-50"/>
      <point x="194" y="-50" type="curve" smooth="yes"/>
    </contour>
    <contour>
      <point x="184" y="158"/>
      <point x="177" y="220"/>
      <point x="162" y="301" type="curve" smooth="yes"/>
      <point x="147" y="382"/>
      <point x="140" y="444"/>
      <point x="140" y="485" type="curve" smooth="yes"/>
      <point x="140" y="521"/>
      <point x="165" y="550"/>
      <point x="194" y="550" type="curve" smooth="yes"/>
      <point x="223" y="550"/>
      <point x="247" y="521"/>
      <point x="247" y="485" type="curve" smooth="yes"/>
      <point x="247" y="444"/>
      <point x="240" y="382"/>
      <point x="226" y="301" type="curve" smooth="yes"/>
      <point x="211" y="220"/>
      <point x="204" y="158"/>
      <point x="204" y="117" type="curve"/>
      <point x="184" y="117" type="line"/>
    </contour>
  </outline>
</glyph>
<glyph name="quotedbl" format="1">
  <advance width="295"/>
  <unicode hex="0022"/>
  <note>
	quotedbl
  </note>
  <outline>
    <contour>
      <point x="95" y="700" type="line"/>
      <point x="140" y="500" type="line"/>
      <point x="109" y="500" type="line"/>
      <point x="0" y="700" type="line"/>
    </contour>
    <contour>
      <point x="250" y="700" type="line"/>
      <point x="295" y="500" type="line"/>
      <point x="265" y="500" type="line"/>
      <point x="154" y="700" type="line"/>
    </contour>
  </outline>
</glyph>
<glyph name="comma" format="1">
  <advance width="305"/>
  <unicode hex="002C"/>
  <note>
	comma
  </note>
  <outline>
    <contour>
      <point x="139" y="-107"/>
      <point x="181" y="-58"/>
      <point x="181" y="-18" type="curve" smooth="yes"/>
      <point x="181" y="-15"/>
      <point x="178" y="-12"/>
      <point x="171" y="-9" type="curve"/>
      <point x="165" y="-6"/>
      <point x="157" y="-5"/>
      <point x="148" y="-5" type="curve" smooth="yes"/>
      <point x="107" y="-5"/>
      <point x="72" y="22"/>
      <point x="72" y="57" type="curve" smooth="yes"/>
      <point x="72" y="90"/>
      <point x="104" y="118"/>
      <point x="143" y="118" type="curve" smooth="yes"/>
      <point x="194" y="118"/>
      <point x="235" y="78"/>
      <point x="235" y="27" type="curve" smooth="yes"/>
      <point x="235" y="-41"/>
      <point x="181" y="-113"/>
      <point x="94" y="-164" type="curve"/>
      <point x="70" y="-147" type="line"/>
    </contour>
  </outline>
</glyph>
<glyph name="zero" format="1">
  <advance width="401"/>
  <unicode hex="0030"/>
  <note>
	zero
  </note>
  <outline>
    <contour>
      <point x="94" y="-8"/>
      <point x="25" y="104"/>
      <point x="25" y="275" type="curve" smooth="yes"/>
      <point x="25" y="446"/>
      <point x="94" y="558"/>
      <point x="201" y="558" type="curve" smooth="yes"/>
      <point x="306" y="558"/>
      <point x="376" y="446"/>
      <point x="376" y="275" type="curve" smooth="yes"/>
      <point x="376" y="104"/>
      <point x="306" y="-8"/>
      <point x="201" y="-8" type="curve" smooth="yes"/>
    </contour>
    <contour>
      <point x="232" y="26"/>
      <point x="256" y="49"/>
      <point x="275" y="94" type="curve" smooth="yes"/>
      <point x="294" y="139"/>
      <point x="303" y="200"/>
      <point x="303" y="275" type="curve" smooth="yes"/>
      <point x="303" y="349"/>
      <point x="294" y="408"/>
      <point x="275" y="453" type="curve" smooth="yes"/>
      <point x="256" y="498"/>
      <point x="232" y="520"/>
      <point x="201" y="520" type="curve" smooth="yes"/>
      <point x="170" y="520"/>
      <point x="145" y="498"/>
      <point x="126" y="453" type="curve" smooth="yes"/>
      <point x="107" y="408"/>
      <point x="98" y="349"/>
      <point x="98" y="275" type="curve" smooth="yes"/>
      <point x="98" y="200"/>
      <point x="107" y="139"/>
      <point x="126" y="94" type="curve" smooth="yes"/>
      <point x="145" y="49"/>
      <point x="170" y="26"/>
      <point x="201" y="26" type="curve" smooth="yes"/>
    </contour>
  </outline>
</glyph>
<glyph name="two" format="1">
  <advance width="401"/>
  <unicode hex="0032"/>
  <note>
	two
  </note>
  <outline>
    <contour>
      <point x="112" y="99"/>
      <point x="171" y="175"/>
      <point x="206" y="228" type="curve" smooth="yes"/>
      <point x="247" y="290"/>
      <point x="267" y="338"/>
      <point x="267" y="373" type="curve" smooth="yes"/>
      <point x="267" y="438"/>
      <point x="224" y="492"/>
      <point x="172" y="492" type="curve" smooth="yes"/>
      <point x="119" y="492"/>
      <point x="72" y="449"/>
      <point x="61" y="390" type="curve"/>
      <point x="33" y="394" type="line"/>
      <point x="50" y="489"/>
      <point x="120" y="558"/>
      <point x="200" y="558" type="curve" smooth="yes"/>
      <point x="275" y="558"/>
      <point x="334" y="496"/>
      <point x="334" y="419" type="curve" smooth="yes"/>
      <point x="334" y="385"/>
      <point x="316" y="338"/>
      <point x="280" y="278" type="curve" smooth="yes"/>
      <point x="244" y="219"/>
      <point x="192" y="148"/>
      <point x="123" y="66" type="curve"/>
      <point x="304" y="66" type="line" smooth="yes"/>
      <point x="320" y="66"/>
      <point x="337" y="82"/>
      <point x="346" y="106" type="curve"/>
      <point x="372" y="103" type="line"/>
      <point x="333" y="0" type="line"/>
      <point x="29" y="0" type="line"/>
    </contour>
  </outline>
</glyph>
<glyph name="three" format="1">
  <advance width="401"/>
  <unicode hex="0033"/>
  <note>
	three
  </note>
  <outline>
    <contour>
      <point x="94" y="-8"/>
      <point x="53" y="13"/>
      <point x="53" y="40" type="curve" smooth="yes"/>
      <point x="53" y="56"/>
      <point x="67" y="69"/>
      <point x="83" y="69" type="curve" smooth="yes"/>
      <point x="96" y="69"/>
      <point x="113" y="64"/>
      <point x="136" y="54" type="curve"/>
      <point x="159" y="43"/>
      <point x="176" y="38"/>
      <point x="189" y="38" type="curve" smooth="yes"/>
      <point x="241" y="38"/>
      <point x="282" y="90"/>
      <point x="282" y="154" type="curve" smooth="yes"/>
      <point x="282" y="219"/>
      <point x="236" y="273"/>
      <point x="180" y="273" type="curve" smooth="yes"/>
      <point x="143" y="273" type="line"/>
      <point x="143" y="298" type="line"/>
      <point x="211" y="310"/>
      <point x="261" y="364"/>
      <point x="261" y="427" type="curve" smooth="yes"/>
      <point x="261" y="472"/>
      <point x="225" y="508"/>
      <point x="180" y="508" type="curve" smooth="yes"/>
      <point x="144" y="508"/>
      <point x="105" y="474"/>
      <point x="80" y="419" type="curve"/>
      <point x="52" y="440" type="line"/>
      <point x="77" y="511"/>
      <point x="137" y="558"/>
      <point x="201" y="558" type="curve" smooth="yes"/>
      <point x="269" y="558"/>
      <point x="324" y="513"/>
      <point x="324" y="458" type="curve" smooth="yes"/>
      <point x="324" y="395"/>
      <point x="297" y="344"/>
      <point x="256" y="324" type="curve"/>
      <point x="312" y="304"/>
      <point x="349" y="251"/>
      <point x="349" y="192" type="curve" smooth="yes"/>
      <point x="349" y="81"/>
      <point x="257" y="-8"/>
      <point x="145" y="-8" type="curve" smooth="yes"/>
    </contour>
  </outline>
</glyph>
<glyph name="seven" format="1">
  <advance width="401"/>
  <unicode hex="0037"/>
  <note>
	seven
  </note>
  <outline>
    <contour>
      <point x="300" y="485" type="line"/>
      <point x="115" y="485" type="line" smooth="yes"/>
      <point x="92" y="485"/>
      <point x="66" y="460"/>
      <point x="49" y="423" type="curve"/>
      <point x="37" y="437" type="line"/>
      <point x="73" y="550" type="line"/>
      <point x="364" y="550" type="line"/>
      <point x="200" y="0" type="line"/>
      <point x="150" y="0" type="line"/>
    </contour>
  </outline>
</glyph>
<glyph name="greater" format="1">
  <advance width="533"/>
  <unicode hex="003E"/>
  <note>
	greater
  </note>
  <outline>
    <contour>
      <point x="70" y="-1" type="line"/>
      <point x="70" y="43" type="line"/>
      <point x="371" y="250" type="line"/>
      <point x="70" y="457" type="line"/>
      <point x="70" y="501" type="line"/>
      <point x="463" y="287" type="line"/>
      <point x="463" y="209" type="line"/>
    </contour>
  </outline>
</glyph>
<glyph name="at" format="1">
  <advance width="826"/>
  <unicode hex="0040"/>
  <note>
	at
  </note>
  <outline>
    <contour>
      <point x="223" y="-121"/>
      <point x="70" y="26"/>
      <point x="70" y="207" type="curve" smooth="yes"/>
      <point x="70" y="388"/>
      <point x="225" y="535"/>
      <point x="414" y="535" type="curve" smooth="yes"/>
      <point x="603" y="535"/>
      <point x="756" y="400"/>
      <point x="756" y="233" type="curve" smooth="yes"/>
      <point x="756" y="125"/>
      <point x="676" y="38"/>
      <point x="579" y="38" type="curve" smooth="yes"/>
      <point x="531" y="38"/>
      <point x="493" y="57"/>
      <point x="482" y="86" type="curve"/>
      <point x="461" y="55"/>
      <point x="433" y="38"/>
      <point x="406" y="38" type="curve" smooth="yes"/>
      <point x="325" y="38"/>
      <point x="259" y="112"/>
      <point x="259" y="203" type="curve" smooth="yes"/>
      <point x="259" y="299"/>
      <point x="324" y="378"/>
      <point x="404" y="378" type="curve" smooth="yes"/>
      <point x="429" y="378"/>
      <point x="457" y="368"/>
      <point x="480" y="348" type="curve"/>
      <point x="480" y="368" type="line"/>
      <point x="549" y="368" type="line"/>
      <point x="549" y="129" type="line" smooth="yes"/>
      <point x="549" y="100"/>
      <point x="569" y="75"/>
      <point x="593" y="75" type="curve" smooth="yes"/>
      <point x="645" y="75"/>
      <point x="687" y="146"/>
      <point x="687" y="233" type="curve" smooth="yes"/>
      <point x="687" y="384"/>
      <point x="564" y="505"/>
      <point x="413" y="505" type="curve" smooth="yes"/>
      <point x="258" y="505"/>
      <point x="133" y="371"/>
      <point x="133" y="207" type="curve" smooth="yes"/>
      <point x="133" y="43"/>
      <point x="257" y="-90"/>
      <point x="412" y="-90" type="curve" smooth="yes"/>
      <point x="520" y="-90"/>
      <point x="616" y="-44"/>
      <point x="671" y="35" type="curve"/>
      <point x="700" y="8" type="line"/>
      <point x="644" y="-73"/>
      <point x="536" y="-121"/>
      <point x="412" y="-121" type="curve" smooth="yes"/>
    </contour>
    <contour>
      <point x="454" y="89"/>
      <point x="480" y="117"/>
      <point x="480" y="153" type="curve" smooth="yes"/>
      <point x="480" y="286" type="line" smooth="yes"/>
      <point x="480" y="314"/>
      <point x="455" y="337"/>
      <point x="424" y="337" type="curve" smooth="yes"/>
      <point x="369" y="337"/>
      <point x="324" y="278"/>
      <point x="324" y="203" type="curve" smooth="yes"/>
      <point x="324" y="140"/>
      <point x="367" y="89"/>
      <point x="422" y="89" type="curve" smooth="yes"/>
    </contour>
  </outline>
</glyph>
<glyph name="D" format="1">
  <advance width="626"/>
  <unicode hex="0044"/>
  <note>
	D
  </note>
  <outline>
    <contour>
      <point x="6" y="15" type="line"/>
      <point x="53" y="15"/>
      <point x="90" y="45"/>
      <point x="90" y="82" type="curve" smooth="yes"/>
      <point x="90" y="530" type="line" smooth="yes"/>
      <point x="90" y="563"/>
      <point x="53" y="590"/>
      <point x="6" y="590" type="curve"/>
      <point x="6" y="604" type="line"/>
      <point x="292" y="604" type="line" smooth="yes"/>
      <point x="464" y="604"/>
      <point x="590" y="476"/>
      <point x="590" y="300" type="curve" smooth="yes"/>
      <point x="590" y="127"/>
      <point x="464" y="0"/>
      <point x="292" y="0" type="curve" smooth="yes"/>
      <point x="6" y="0" type="line"/>
    </contour>
    <contour>
      <point x="410" y="22"/>
      <point x="522" y="140"/>
      <point x="522" y="300" type="curve" smooth="yes"/>
      <point x="522" y="460"/>
      <point x="410" y="578"/>
      <point x="258" y="578" type="curve" smooth="yes"/>
      <point x="198" y="578"/>
      <point x="150" y="553"/>
      <point x="150" y="522" type="curve" smooth="yes"/>
      <point x="150" y="66" type="line" smooth="yes"/>
      <point x="150" y="42"/>
      <point x="198" y="22"/>
      <point x="258" y="22" type="curve" smooth="yes"/>
    </contour>
  </outline>
</glyph>
<glyph name="F" format="1">
  <advance width="480"/>
  <unicode hex="0046"/>
  <note>
	F
  </note>
  <outline>
    <contour>
      <point x="6" y="15" type="line"/>
      <point x="53" y="15"/>
      <point x="90" y="38"/>
      <point x="90" y="66" type="curve" smooth="yes"/>
      <point x="90" y="522" type="line" smooth="yes"/>
      <point x="90" y="559"/>
      <point x="53" y="590"/>
      <point x="6" y="590" type="curve"/>
      <point x="6" y="604" type="line"/>
      <point x="460" y="604" type="line"/>
      <point x="460" y="482" type="line"/>
      <point x="443" y="482" type="line"/>
      <point x="434" y="535"/>
      <point x="398" y="574"/>
      <point x="359" y="574" type="curve" smooth="yes"/>
      <point x="200" y="574" type="line" smooth="yes"/>
      <point x="172" y="574"/>
      <point x="150" y="551"/>
      <point x="150" y="522" type="curve" smooth="yes"/>
      <point x="150" y="332" type="line"/>
      <point x="326" y="332" type="line" smooth="yes"/>
      <point x="359" y="332"/>
      <point x="386" y="367"/>
      <point x="386" y="411" type="curve"/>
      <point x="401" y="411" type="line"/>
      <point x="401" y="222" type="line"/>
      <point x="386" y="222" type="line"/>
      <point x="386" y="266"/>
      <point x="359" y="302"/>
      <point x="326" y="302" type="curve" smooth="yes"/>
      <point x="150" y="302" type="line"/>
      <point x="150" y="66" type="line" smooth="yes"/>
      <point x="150" y="37"/>
      <point x="184" y="14"/>
      <point x="225" y="14" type="curve"/>
      <point x="225" y="0" type="line"/>
      <point x="6" y="0" type="line"/>
    </contour>
  </outline>
</glyph>
<glyph name="G" format="1">
  <advance width="639"/>
  <unicode hex="0047"/>
  <note>
	G
  </note>
  <outline>
    <contour>
      <point x="163" y="-8"/>
      <point x="38" y="112"/>
      <point x="38" y="296" type="curve" smooth="yes"/>
      <point x="38" y="488"/>
      <point x="163" y="614"/>
      <point x="352" y="614" type="curve" smooth="yes"/>
      <point x="377" y="614"/>
      <point x="402" y="610"/>
      <point x="426" y="601" type="curve" smooth="yes"/>
      <point x="457" y="590"/>
      <point x="484" y="584"/>
      <point x="507" y="584" type="curve" smooth="yes"/>
      <point x="518" y="584"/>
      <point x="527" y="595"/>
      <point x="534" y="612" type="curve"/>
      <point x="550" y="612" type="line"/>
      <point x="562" y="424" type="line"/>
      <point x="546" y="424" type="line"/>
      <point x="522" y="516"/>
      <point x="441" y="579"/>
      <point x="352" y="579" type="curve" smooth="yes"/>
      <point x="217" y="579"/>
      <point x="109" y="452"/>
      <point x="109" y="296" type="curve" smooth="yes"/>
      <point x="109" y="147"/>
      <point x="222" y="26"/>
      <point x="361" y="26" type="curve" smooth="yes"/>
      <point x="425" y="26"/>
      <point x="479" y="41"/>
      <point x="512" y="69" type="curve"/>
      <point x="512" y="254" type="line" smooth="yes"/>
      <point x="512" y="283"/>
      <point x="484" y="306"/>
      <point x="449" y="306" type="curve" smooth="yes"/>
      <point x="436" y="306" type="line"/>
      <point x="436" y="320" type="line"/>
      <point x="629" y="320" type="line"/>
      <point x="629" y="306" type="line"/>
      <point x="617" y="306" type="line" smooth="yes"/>
      <point x="592" y="306"/>
      <point x="570" y="283"/>
      <point x="570" y="254" type="curve" smooth="yes"/>
      <point x="570" y="62" type="line"/>
      <point x="503" y="15"/>
      <point x="431" y="-8"/>
      <point x="352" y="-8" type="curve" smooth="yes"/>
    </contour>
  </outline>
</glyph>
<glyph name="O" format="1">
  <advance width="638"/>
  <unicode hex="004F"/>
  <note>
	O
  </note>
  <outline>
    <contour>
      <point x="149" y="-6"/>
      <point x="40" y="112"/>
      <point x="40" y="292" type="curve" smooth="yes"/>
      <point x="40" y="309" type="line" smooth="yes"/>
      <point x="40" y="492"/>
      <point x="149" y="611"/>
      <point x="317" y="611" type="curve" smooth="yes"/>
      <point x="488" y="611"/>
      <point x="598" y="492"/>
      <point x="598" y="309" type="curve" smooth="yes"/>
      <point x="598" y="292" type="line" smooth="yes"/>
      <point x="598" y="112"/>
      <point x="488" y="-6"/>
      <point x="317" y="-6" type="curve" smooth="yes"/>
    </contour>
    <contour>
      <point x="448" y="18"/>
      <point x="533" y="127"/>
      <point x="533" y="292" type="curve" smooth="yes"/>
      <point x="533" y="309" type="line" smooth="yes"/>
      <point x="533" y="477"/>
      <point x="448" y="587"/>
      <point x="317" y="587" type="curve" smooth="yes"/>
      <point x="190" y="587"/>
      <point x="107" y="477"/>
      <point x="107" y="309" type="curve" smooth="yes"/>
      <point x="107" y="292" type="line" smooth="yes"/>
      <point x="107" y="127"/>
      <point x="190" y="18"/>
      <point x="317" y="18" type="curve" smooth="yes"/>
    </contour>
  </outline>
</glyph>
<glyph name="P" format="1">
  <advance width="479"/>
  <unicode hex="0050"/>
  <note>
	P
  </note>
  <outline>
    <contour>
      <point x="6" y="15" type="line"/>
      <point x="53" y="15"/>
      <point x="90" y="45"/>
      <point x="90" y="82" type="curve" smooth="yes"/>
      <point x="90" y="530" type="line" smooth="yes"/>
      <point x="90" y="563"/>
      <point x="58" y="590"/>
      <point x="18" y="590" type="curve" smooth="yes"/>
      <point x="6" y="590" type="line"/>
      <point x="6" y="604" type="line"/>
      <point x="258" y="604" type="line" smooth="yes"/>
      <point x="377" y="604"/>
      <point x="454" y="535"/>
      <point x="454" y="430" type="curve" smooth="yes"/>
      <point x="454" y="327"/>
      <point x="370" y="260"/>
      <point x="241" y="260" type="curve" smooth="yes"/>
      <point x="149" y="260" type="line"/>
      <point x="149" y="82" type="line" smooth="yes"/>
      <point x="149" y="46"/>
      <point x="187" y="17"/>
      <point x="232" y="17" type="curve"/>
      <point x="232" y="0" type="line"/>
      <point x="6" y="0" type="line"/>
    </contour>
    <contour>
      <point x="329" y="286"/>
      <point x="387" y="343"/>
      <point x="387" y="430" type="curve" smooth="yes"/>
      <point x="387" y="519"/>
      <point x="329" y="578"/>
      <point x="241" y="578" type="curve" smooth="yes"/>
      <point x="190" y="578"/>
      <point x="149" y="557"/>
      <point x="149" y="530" type="curve" smooth="yes"/>
      <point x="149" y="286" type="line"/>
      <point x="241" y="286" type="line" smooth="yes"/>
    </contour>
  </outline>
</glyph>
<glyph name="Q" format="1">
  <advance width="630"/>
  <unicode hex="0051"/>
  <note>
	Q
  </note>
  <outline>
    <contour>
      <point x="128" y="14"/>
      <point x="38" y="141"/>
      <point x="38" y="292" type="curve" smooth="yes"/>
      <point x="38" y="309" type="line" smooth="yes"/>
      <point x="38" y="477"/>
      <point x="164" y="614"/>
      <point x="320" y="614" type="curve" smooth="yes"/>
      <point x="471" y="614"/>
      <point x="592" y="477"/>
      <point x="592" y="309" type="curve" smooth="yes"/>
      <point x="592" y="292" type="line" smooth="yes"/>
      <point x="592" y="140"/>
      <point x="486" y="11"/>
      <point x="341" y="-14" type="curve"/>
      <point x="402" y="-102"/>
      <point x="501" y="-154"/>
      <point x="605" y="-154" type="curve"/>
      <point x="605" y="-168" type="line"/>
      <point x="563" y="-168" type="line" smooth="yes"/>
      <point x="428" y="-168"/>
      <point x="309" y="-107"/>
      <point x="252" y="-7" type="curve"/>
    </contour>
    <contour>
      <point x="433" y="14"/>
      <point x="525" y="139"/>
      <point x="525" y="292" type="curve" smooth="yes"/>
      <point x="525" y="309" type="line" smooth="yes"/>
      <point x="525" y="462"/>
      <point x="433" y="587"/>
      <point x="320" y="587" type="curve" smooth="yes"/>
      <point x="201" y="587"/>
      <point x="106" y="462"/>
      <point x="106" y="309" type="curve" smooth="yes"/>
      <point x="106" y="292" type="line" smooth="yes"/>
      <point x="106" y="139"/>
      <point x="201" y="14"/>
      <point x="320" y="14" type="curve" smooth="yes"/>
    </contour>
  </outline>
</glyph>
<glyph name="S" format="1">
  <advance width="450"/>
  <unicode hex="0053"/>
  <note>
	S
  </note>
  <outline>
    <contour>
      <point x="32" y="186" type="line"/>
      <point x="48" y="186" type="line"/>
      <point x="73" y="89"/>
      <point x="149" y="22"/>
      <point x="230" y="22" type="curve" smooth="yes"/>
      <point x="297" y="22"/>
      <point x="351" y="74"/>
      <point x="351" y="138" type="curve" smooth="yes"/>
      <point x="351" y="189"/>
      <point x="294" y="248"/>
      <point x="206" y="289" type="curve" smooth="yes"/>
      <point x="115" y="332"/>
      <point x="58" y="400"/>
      <point x="58" y="467" type="curve" smooth="yes"/>
      <point x="58" y="546"/>
      <point x="124" y="609"/>
      <point x="205" y="609" type="curve" smooth="yes"/>
      <point x="231" y="609"/>
      <point x="254" y="605"/>
      <point x="274" y="598" type="curve" smooth="yes"/>
      <point x="295" y="590" type="line" smooth="yes"/>
      <point x="311" y="584"/>
      <point x="321" y="581"/>
      <point x="326" y="581" type="curve" smooth="yes"/>
      <point x="345" y="581"/>
      <point x="360" y="591"/>
      <point x="363" y="604" type="curve"/>
      <point x="374" y="604" type="line"/>
      <point x="388" y="428" type="line"/>
      <point x="372" y="428" type="line"/>
      <point x="348" y="520"/>
      <point x="281" y="584"/>
      <point x="209" y="584" type="curve" smooth="yes"/>
      <point x="153" y="584"/>
      <point x="108" y="547"/>
      <point x="108" y="500" type="curve" smooth="yes"/>
      <point x="108" y="445"/>
      <point x="166" y="383"/>
      <point x="255" y="342" type="curve" smooth="yes"/>
      <point x="352" y="297"/>
      <point x="414" y="225"/>
      <point x="414" y="158" type="curve" smooth="yes"/>
      <point x="414" y="66"/>
      <point x="331" y="-8"/>
      <point x="230" y="-8" type="curve" smooth="yes"/>
      <point x="198" y="-8"/>
      <point x="170" y="-1"/>
      <point x="146" y="13" type="curve" smooth="yes"/>
      <point x="122" y="26"/>
      <point x="108" y="33"/>
      <point x="100" y="33" type="curve" smooth="yes"/>
      <point x="85" y="33"/>
      <point x="72" y="20"/>
      <point x="67" y="0" type="curve"/>
      <point x="51" y="0" type="line"/>
    </contour>
  </outline>
</glyph>
<glyph name="Y" format="1">
  <advance width="604"/>
  <unicode hex="0059"/>
  <note>
	Y
  </note>
  <outline>
    <contour>
      <point x="189" y="15" type="line"/>
      <point x="240" y="15"/>
      <point x="281" y="46"/>
      <point x="281" y="85" type="curve" smooth="yes"/>
      <point x="281" y="272" type="line"/>
      <point x="102" y="523" type="line" smooth="yes"/>
      <point x="74" y="563"/>
      <point x="37" y="587"/>
      <point x="4" y="587" type="curve"/>
      <point x="4" y="604" type="line"/>
      <point x="230" y="604" type="line"/>
      <point x="230" y="587" type="line"/>
      <point x="214" y="587" type="line" smooth="yes"/>
      <point x="191" y="587"/>
      <point x="172" y="575"/>
      <point x="172" y="560" type="curve" smooth="yes"/>
      <point x="172" y="551"/>
      <point x="179" y="537"/>
      <point x="191" y="518" type="curve" smooth="yes"/>
      <point x="331" y="312" type="line"/>
      <point x="471" y="530" type="line" smooth="yes"/>
      <point x="478" y="541"/>
      <point x="482" y="551"/>
      <point x="482" y="556" type="curve" smooth="yes"/>
      <point x="482" y="573"/>
      <point x="465" y="587"/>
      <point x="445" y="587" type="curve" smooth="yes"/>
      <point x="432" y="587" type="line"/>
      <point x="432" y="604" type="line"/>
      <point x="600" y="604" type="line"/>
      <point x="600" y="587" type="line"/>
      <point x="565" y="587"/>
      <point x="530" y="565"/>
      <point x="506" y="528" type="curve" smooth="yes"/>
      <point x="340" y="272" type="line"/>
      <point x="340" y="85" type="line" smooth="yes"/>
      <point x="340" y="46"/>
      <point x="381" y="15"/>
      <point x="432" y="15" type="curve"/>
      <point x="432" y="0" type="line"/>
      <point x="189" y="0" type="line"/>
    </contour>
  </outline>
</glyph>
<glyph name="c" format="1">
  <advance width="402"/>
  <unicode hex="0063"/>
  <note>
	c
  </note>
  <outline>
    <contour>
      <point x="124" y="-4"/>
      <point x="42" y="88"/>
      <point x="42" y="200" type="curve" smooth="yes"/>
      <point x="42" y="319"/>
      <point x="135" y="416"/>
      <point x="248" y="416" type="curve" smooth="yes"/>
      <point x="311" y="416"/>
      <point x="362" y="379"/>
      <point x="362" y="334" type="curve" smooth="yes"/>
      <point x="362" y="317"/>
      <point x="351" y="302"/>
      <point x="336" y="302" type="curve" smooth="yes"/>
      <point x="323" y="302"/>
      <point x="310" y="314"/>
      <point x="307" y="330" type="curve" smooth="yes"/>
      <point x="300" y="365"/>
      <point x="268" y="390"/>
      <point x="231" y="390" type="curve" smooth="yes"/>
      <point x="152" y="390"/>
      <point x="89" y="322"/>
      <point x="89" y="238" type="curve" smooth="yes"/>
      <point x="89" y="133"/>
      <point x="153" y="47"/>
      <point x="232" y="47" type="curve" smooth="yes"/>
      <point x="287" y="47"/>
      <point x="337" y="77"/>
      <point x="365" y="125" type="curve"/>
      <point x="378" y="119" type="line"/>
      <point x="358" y="47"/>
      <point x="296" y="-4"/>
      <point x="227" y="-4" type="curve" smooth="yes"/>
    </contour>
  </outline>
</glyph>
<glyph name="k" format="1">
  <advance width="446"/>
  <unicode hex="006B"/>
  <note>
	k
  </note>
  <outline>
    <contour>
      <point x="12" y="15" type="line"/>
      <point x="29" y="15" type="line" smooth="yes"/>
      <point x="57" y="15"/>
      <point x="79" y="34"/>
      <point x="79" y="58" type="curve" smooth="yes"/>
      <point x="79" y="527" type="line" smooth="yes"/>
      <point x="79" y="551"/>
      <point x="55" y="570"/>
      <point x="24" y="570" type="curve" smooth="yes"/>
      <point x="12" y="570" type="line"/>
      <point x="12" y="585" type="line"/>
      <point x="129" y="617" type="line"/>
      <point x="129" y="242" type="line"/>
      <point x="281" y="365" type="line" smooth="yes"/>
      <point x="287" y="370"/>
      <point x="291" y="374"/>
      <point x="293" y="376" type="curve" smooth="yes"/>
      <point x="296" y="379"/>
      <point x="297" y="381"/>
      <point x="297" y="383" type="curve" smooth="yes"/>
      <point x="297" y="391"/>
      <point x="289" y="398"/>
      <point x="280" y="398" type="curve" smooth="yes"/>
      <point x="263" y="398" type="line"/>
      <point x="263" y="411" type="line"/>
      <point x="414" y="411" type="line"/>
      <point x="414" y="398" type="line"/>
      <point x="398" y="398" type="line" smooth="yes"/>
      <point x="375" y="398"/>
      <point x="348" y="387"/>
      <point x="323" y="366" type="curve" smooth="yes"/>
      <point x="175" y="246" type="line"/>
      <point x="359" y="58" type="line" smooth="yes"/>
      <point x="386" y="30"/>
      <point x="415" y="15"/>
      <point x="439" y="15" type="curve"/>
      <point x="439" y="0" type="line"/>
      <point x="276" y="0" type="line"/>
      <point x="276" y="15" type="line"/>
      <point x="292" y="15"/>
      <point x="306" y="23"/>
      <point x="306" y="34" type="curve" smooth="yes"/>
      <point x="306" y="37"/>
      <point x="302" y="42"/>
      <point x="295" y="49" type="curve"/>
      <point x="286" y="59" type="line"/>
      <point x="129" y="221" type="line"/>
      <point x="129" y="58" type="line" smooth="yes"/>
      <point x="129" y="34"/>
      <point x="153" y="15"/>
      <point x="184" y="15" type="curve" smooth="yes"/>
      <point x="196" y="15" type="line"/>
      <point x="196" y="0" type="line"/>
      <point x="12" y="0" type="line"/>
    </contour>
  </outline>
</glyph>
<glyph name="m" format="1">
  <advance width="714"/>
  <unicode hex="006D"/>
  <note>
	m
  </note>
  <outline>
    <contour>
      <point x="17" y="15" type="line"/>
      <point x="26" y="15" type="line" smooth="yes"/>
      <point x="58" y="15"/>
      <point x="84" y="38"/>
      <point x="84" y="67" type="curve" smooth="yes"/>
      <point x="84" y="326" type="line" smooth="yes"/>
      <point x="84" y="345"/>
      <point x="62" y="361"/>
      <point x="34" y="361" type="curve" smooth="yes"/>
      <point x="17" y="361" type="line"/>
      <point x="17" y="375" type="line"/>
      <point x="134" y="415" type="line"/>
      <point x="134" y="356" type="line"/>
      <point x="173" y="395"/>
      <point x="224" y="416"/>
      <point x="277" y="416" type="curve" smooth="yes"/>
      <point x="322" y="416"/>
      <point x="363" y="389"/>
      <point x="378" y="348" type="curve"/>
      <point x="414" y="391"/>
      <point x="465" y="416"/>
      <point x="516" y="416" type="curve" smooth="yes"/>
      <point x="589" y="416"/>
      <point x="638" y="367"/>
      <point x="638" y="292" type="curve" smooth="yes"/>
      <point x="638" y="67" type="line" smooth="yes"/>
      <point x="638" y="38"/>
      <point x="660" y="15"/>
      <point x="688" y="15" type="curve" smooth="yes"/>
      <point x="696" y="15" type="line"/>
      <point x="696" y="0" type="line"/>
      <point x="529" y="0" type="line"/>
      <point x="529" y="15" type="line"/>
      <point x="537" y="15" type="line" smooth="yes"/>
      <point x="565" y="15"/>
      <point x="587" y="38"/>
      <point x="587" y="67" type="curve" smooth="yes"/>
      <point x="587" y="288" type="line" smooth="yes"/>
      <point x="587" y="337"/>
      <point x="542" y="378"/>
      <point x="486" y="378" type="curve" smooth="yes"/>
      <point x="449" y="378"/>
      <point x="410" y="354"/>
      <point x="382" y="314" type="curve"/>
      <point x="382" y="67" type="line" smooth="yes"/>
      <point x="382" y="38"/>
      <point x="409" y="15"/>
      <point x="441" y="15" type="curve" smooth="yes"/>
      <point x="449" y="15" type="line"/>
      <point x="449" y="0" type="line"/>
      <point x="273" y="0" type="line"/>
      <point x="273" y="15" type="line"/>
      <point x="281" y="15" type="line" smooth="yes"/>
      <point x="309" y="15"/>
      <point x="331" y="38"/>
      <point x="331" y="67" type="curve" smooth="yes"/>
      <point x="331" y="300" type="line" smooth="yes"/>
      <point x="331" y="341"/>
      <point x="291" y="374"/>
      <point x="243" y="374" type="curve" smooth="yes"/>
      <point x="198" y="374"/>
      <point x="157" y="354"/>
      <point x="134" y="322" type="curve"/>
      <point x="134" y="67" type="line" smooth="yes"/>
      <point x="134" y="38"/>
      <point x="157" y="15"/>
      <point x="185" y="15" type="curve" smooth="yes"/>
      <point x="193" y="15" type="line"/>
      <point x="193" y="0" type="line"/>
      <point x="17" y="0" type="line"/>
    </contour>
  </outline>
</glyph>
<glyph name="w" format="1">
  <advance width="633"/>
  <unicode hex="0077"/>
  <note>
	w
  </note>
  <outline>
    <contour>
      <point x="71" y="317" type="line" smooth="yes"/>
      <point x="61" y="341"/>
      <point x="50" y="360"/>
      <point x="39" y="374" type="curve" smooth="yes"/>
      <point x="28" y="389"/>
      <point x="18" y="396"/>
      <point x="10" y="396" type="curve"/>
      <point x="10" y="411" type="line"/>
      <point x="144" y="411" type="line"/>
      <point x="144" y="396" type="line"/>
      <point x="125" y="396"/>
      <point x="110" y="385"/>
      <point x="110" y="370" type="curve" smooth="yes"/>
      <point x="110" y="363"/>
      <point x="113" y="352"/>
      <point x="120" y="336" type="curve" smooth="yes"/>
      <point x="226" y="88" type="line"/>
      <point x="306" y="293" type="line"/>
      <point x="286" y="350" type="line"/>
      <point x="275" y="378"/>
      <point x="257" y="396"/>
      <point x="237" y="396" type="curve"/>
      <point x="237" y="411" type="line"/>
      <point x="387" y="411" type="line"/>
      <point x="387" y="398" type="line"/>
      <point x="362" y="398"/>
      <point x="342" y="386"/>
      <point x="342" y="370" type="curve" smooth="yes"/>
      <point x="342" y="365"/>
      <point x="346" y="351"/>
      <point x="355" y="330" type="curve" smooth="yes"/>
      <point x="453" y="96" type="line"/>
      <point x="538" y="338" type="line" smooth="yes"/>
      <point x="543" y="353"/>
      <point x="546" y="363"/>
      <point x="546" y="370" type="curve" smooth="yes"/>
      <point x="546" y="386"/>
      <point x="530" y="398"/>
      <point x="510" y="398" type="curve"/>
      <point x="510" y="411" type="line"/>
      <point x="622" y="411" type="line"/>
      <point x="622" y="397" type="line"/>
      <point x="613" y="397"/>
      <point x="603" y="390"/>
      <point x="592" y="375" type="curve" smooth="yes"/>
      <point x="581" y="360"/>
      <point x="571" y="341"/>
      <point x="562" y="317" type="curve" smooth="yes"/>
      <point x="450" y="0" type="line"/>
      <point x="435" y="0" type="line"/>
      <point x="324" y="256" type="line"/>
      <point x="223" y="0" type="line"/>
      <point x="209" y="0" type="line"/>
    </contour>
  </outline>
</glyph>
<glyph name="x" format="1">
  <advance width="410"/>
  <unicode hex="0078"/>
  <note>
	x
  </note>
  <outline>
    <contour>
      <point x="14" y="15" type="line"/>
      <point x="29" y="15"/>
      <point x="48" y="31"/>
      <point x="67" y="58" type="curve" smooth="yes"/>
      <point x="176" y="215" type="line"/>
      <point x="94" y="341" type="line" smooth="yes"/>
      <point x="73" y="374"/>
      <point x="46" y="394"/>
      <point x="22" y="394" type="curve"/>
      <point x="22" y="411" type="line"/>
      <point x="182" y="411" type="line"/>
      <point x="182" y="394" type="line"/>
      <point x="173" y="394" type="line" smooth="yes"/>
      <point x="157" y="394"/>
      <point x="143" y="384"/>
      <point x="143" y="372" type="curve" smooth="yes"/>
      <point x="143" y="364"/>
      <point x="149" y="353"/>
      <point x="158" y="338" type="curve" smooth="yes"/>
      <point x="208" y="255" type="line"/>
      <point x="268" y="342" type="line" smooth="yes"/>
      <point x="274" y="351"/>
      <point x="278" y="358"/>
      <point x="281" y="363" type="curve" smooth="yes"/>
      <point x="284" y="368"/>
      <point x="286" y="373"/>
      <point x="286" y="376" type="curve" smooth="yes"/>
      <point x="286" y="385"/>
      <point x="277" y="394"/>
      <point x="265" y="394" type="curve" smooth="yes"/>
      <point x="253" y="394" type="line"/>
      <point x="253" y="411" type="line"/>
      <point x="366" y="411" type="line"/>
      <point x="366" y="394" type="line"/>
      <point x="347" y="394"/>
      <point x="320" y="371"/>
      <point x="295" y="334" type="curve" smooth="yes"/>
      <point x="226" y="234" type="line"/>
      <point x="344" y="58" type="line" smooth="yes"/>
      <point x="363" y="31"/>
      <point x="383" y="15"/>
      <point x="399" y="15" type="curve"/>
      <point x="399" y="0" type="line"/>
      <point x="257" y="0" type="line"/>
      <point x="257" y="15" type="line"/>
      <point x="266" y="15" type="line" smooth="yes"/>
      <point x="282" y="15"/>
      <point x="294" y="23"/>
      <point x="294" y="34" type="curve" smooth="yes"/>
      <point x="294" y="41"/>
      <point x="289" y="50"/>
      <point x="281" y="62" type="curve" smooth="yes"/>
      <point x="194" y="190" type="line"/>
      <point x="102" y="59" type="line" smooth="yes"/>
      <point x="93" y="47"/>
      <point x="89" y="38"/>
      <point x="89" y="34" type="curve" smooth="yes"/>
      <point x="89" y="23"/>
      <point x="98" y="15"/>
      <point x="110" y="15" type="curve" smooth="yes"/>
      <point x="122" y="15" type="line"/>
      <point x="122" y="0" type="line"/>
      <point x="14" y="0" type="line"/>
    </contour>
  </outline>
</glyph>
<glyph name="bar" format="1">
  <advance width="185"/>
  <unicode hex="007C"/>
  <note>
	bar
  </note>
  <outline>
    <contour>
      <point x="70" y="748" type="line"/>
      <point x="115" y="748" type="line"/>
      <point x="115" y="-243" type="line"/>
      <point x="70" y="-243" type="line"/>
    </contour>
  </outline>
</glyph>
<glyph name="sterling" format="1">
  <advance width="680"/>
  <unicode hex="00A3"/>
  <note>
	sterling
  </note>
  <outline>
    <contour>
      <point x="75" y="318" type="line"/>
      <point x="180" y="318" type="line"/>
      <point x="172" y="348"/>
      <point x="168" y="380"/>
      <point x="168" y="414" type="curve" smooth="yes"/>
      <point x="168" y="522"/>
      <point x="254" y="609"/>
      <point x="361" y="609" type="curve" smooth="yes"/>
      <point x="384" y="609"/>
      <point x="408" y="605"/>
      <point x="432" y="596" type="curve" smooth="yes"/>
      <point x="442" y="592" type="line" smooth="yes"/>
      <point x="466" y="583"/>
      <point x="481" y="579"/>
      <point x="487" y="579" type="curve" smooth="yes"/>
      <point x="508" y="579"/>
      <point x="526" y="589"/>
      <point x="529" y="604" type="curve"/>
      <point x="554" y="604" type="line"/>
      <point x="566" y="411" type="line"/>
      <point x="542" y="411" type="line"/>
      <point x="505" y="512"/>
      <point x="439" y="579"/>
      <point x="378" y="579" type="curve" smooth="yes"/>
      <point x="302" y="579"/>
      <point x="240" y="512"/>
      <point x="240" y="431" type="curve" smooth="yes"/>
      <point x="240" y="382"/>
      <point x="244" y="345"/>
      <point x="253" y="318" type="curve"/>
      <point x="412" y="318" type="line"/>
      <point x="412" y="286" type="line"/>
      <point x="257" y="286" type="line"/>
      <point x="266" y="257"/>
      <point x="270" y="219"/>
      <point x="270" y="172" type="curve" smooth="yes"/>
      <point x="270" y="144"/>
      <point x="250" y="104"/>
      <point x="211" y="59" type="curve"/>
      <point x="231" y="72"/>
      <point x="263" y="80"/>
      <point x="303" y="80" type="curve"/>
      <point x="446" y="59" type="line"/>
      <point x="507" y="59"/>
      <point x="559" y="83"/>
      <point x="576" y="122" type="curve"/>
      <point x="605" y="101" type="line"/>
      <point x="558" y="37"/>
      <point x="501" y="0"/>
      <point x="450" y="0" type="curve"/>
      <point x="286" y="21" type="line"/>
      <point x="249" y="21"/>
      <point x="217" y="10"/>
      <point x="189" y="-13" type="curve"/>
      <point x="138" y="46" type="line"/>
      <point x="175" y="71"/>
      <point x="197" y="112"/>
      <point x="197" y="155" type="curve" smooth="yes"/>
      <point x="197" y="197"/>
      <point x="193" y="241"/>
      <point x="185" y="286" type="curve"/>
      <point x="75" y="286" type="line"/>
    </contour>
  </outline>
</glyph>
<glyph name="yen" format="1">
  <advance width="746"/>
  <unicode hex="00A5"/>
  <note>
	yen
  </note>
  <outline>
    <contour>
      <point x="260" y="15" type="line"/>
      <point x="311" y="15"/>
      <point x="352" y="46"/>
      <point x="352" y="85" type="curve" smooth="yes"/>
      <point x="352" y="93" type="line"/>
      <point x="226" y="93" type="line"/>
      <point x="226" y="140" type="line"/>
      <point x="352" y="140" type="line"/>
      <point x="352" y="269" type="line"/>
      <point x="226" y="269" type="line"/>
      <point x="226" y="316" type="line"/>
      <point x="321" y="316" type="line"/>
      <point x="173" y="523" type="line" smooth="yes"/>
      <point x="145" y="563"/>
      <point x="108" y="587"/>
      <point x="75" y="587" type="curve"/>
      <point x="75" y="604" type="line"/>
      <point x="302" y="604" type="line"/>
      <point x="302" y="587" type="line"/>
      <point x="285" y="587" type="line" smooth="yes"/>
      <point x="262" y="587"/>
      <point x="243" y="575"/>
      <point x="243" y="560" type="curve" smooth="yes"/>
      <point x="243" y="551"/>
      <point x="250" y="537"/>
      <point x="262" y="518" type="curve"/>
      <point x="400" y="316" type="line"/>
      <point x="405" y="316" type="line"/>
      <point x="542" y="530" type="line" smooth="yes"/>
      <point x="546" y="536"/>
      <point x="549" y="541"/>
      <point x="551" y="546" type="curve"/>
      <point x="553" y="550"/>
      <point x="554" y="553"/>
      <point x="554" y="556" type="curve" smooth="yes"/>
      <point x="554" y="573"/>
      <point x="537" y="587"/>
      <point x="516" y="587" type="curve" smooth="yes"/>
      <point x="503" y="587" type="line"/>
      <point x="503" y="604" type="line"/>
      <point x="671" y="604" type="line"/>
      <point x="671" y="587" type="line"/>
      <point x="636" y="587"/>
      <point x="602" y="565"/>
      <point x="578" y="528" type="curve" smooth="yes"/>
      <point x="440" y="316" type="line"/>
      <point x="529" y="316" type="line"/>
      <point x="529" y="269" type="line"/>
      <point x="411" y="269" type="line"/>
      <point x="411" y="140" type="line"/>
      <point x="529" y="140" type="line"/>
      <point x="529" y="93" type="line"/>
      <point x="411" y="93" type="line"/>
      <point x="411" y="85" type="line" smooth="yes"/>
      <point x="411" y="46"/>
      <point x="452" y="15"/>
      <point x="503" y="15" type="curve"/>
      <point x="503" y="0" type="line"/>
      <point x="260" y="0" type="line"/>
    </contour>
  </outline>
</glyph>
<glyph name="logicalnot" format="1">
  <advance width="491"/>
  <unicode hex="00AC"/>
  <note>
	logicalnot
  </note>
  <outline>
    <contour>
      <point x="386" y="574" type="line"/>
      <point x="75" y="574" type="line"/>
      <point x="75" y="604" type="line"/>
      <point x="416" y="604" type="line"/>
      <point x="416" y="414" type="line"/>
      <point x="386" y="414" type="line"/>
    </contour>
  </outline>
</glyph>
<glyph name="registered" format="1">
  <advance width="831"/>
  <unicode hex="00AE"/>
  <note>
	registered
  </note>
  <outline>
    <contour>
      <point x="230" y="130" type="line"/>
      <point x="262" y="130"/>
      <point x="287" y="148"/>
      <point x="287" y="169" type="curve" smooth="yes"/>
      <point x="287" y="418" type="line" smooth="yes"/>
      <point x="287" y="439"/>
      <point x="263" y="457"/>
      <point x="234" y="457" type="curve" smooth="yes"/>
      <point x="230" y="457" type="line"/>
      <point x="230" y="465" type="line"/>
      <point x="428" y="465" type="line" smooth="yes"/>
      <point x="499" y="465"/>
      <point x="551" y="426"/>
      <point x="551" y="374" type="curve" smooth="yes"/>
      <point x="551" y="333"/>
      <point x="503" y="294"/>
      <point x="436" y="282" type="curve"/>
      <point x="562" y="156" type="line"/>
      <point x="581" y="139"/>
      <point x="602" y="130"/>
      <point x="621" y="130" type="curve"/>
      <point x="621" y="120" type="line"/>
      <point x="534" y="120" type="line"/>
      <point x="387" y="278" type="line"/>
      <point x="329" y="278" type="line"/>
      <point x="329" y="169" type="line" smooth="yes"/>
      <point x="329" y="148"/>
      <point x="351" y="130"/>
      <point x="378" y="130" type="curve" smooth="yes"/>
      <point x="382" y="130" type="line"/>
      <point x="382" y="120" type="line"/>
      <point x="230" y="120" type="line"/>
    </contour>
    <contour>
      <point x="373" y="294" type="line" smooth="yes"/>
      <point x="444" y="294"/>
      <point x="502" y="330"/>
      <point x="502" y="374" type="curve" smooth="yes"/>
      <point x="502" y="415"/>
      <point x="449" y="450"/>
      <point x="384" y="450" type="curve" smooth="yes"/>
      <point x="369" y="450"/>
      <point x="356" y="448"/>
      <point x="345" y="444" type="curve"/>
      <point x="334" y="439"/>
      <point x="329" y="434"/>
      <point x="329" y="428" type="curve" smooth="yes"/>
      <point x="329" y="294" type="line"/>
    </contour>
    <contour>
      <point x="227" y="-6"/>
      <point x="75" y="129"/>
      <point x="75" y="294" type="curve" smooth="yes"/>
      <point x="75" y="462"/>
      <point x="227" y="599"/>
      <point x="414" y="599" type="curve" smooth="yes"/>
      <point x="603" y="599"/>
      <point x="756" y="462"/>
      <point x="756" y="294" type="curve" smooth="yes"/>
      <point x="756" y="129"/>
      <point x="603" y="-6"/>
      <point x="414" y="-6" type="curve" smooth="yes"/>
    </contour>
    <contour>
      <point x="578" y="22"/>
      <point x="710" y="143"/>
      <point x="710" y="294" type="curve" smooth="yes"/>
      <point x="710" y="443"/>
      <point x="578" y="565"/>
      <point x="414" y="565" type="curve" smooth="yes"/>
      <point x="255" y="565"/>
      <point x="126" y="443"/>
      <point x="126" y="294" type="curve" smooth="yes"/>
      <point x="126" y="143"/>
      <point x="255" y="22"/>
      <point x="414" y="22" type="curve" smooth="yes"/>
    </contour>
  </outline>
</glyph>
<glyph name="plusminus" format="1">
  <advance width="486"/>
  <unicode hex="00B1"/>
  <note>
	plusminus
  </note>
  <outline>
    <contour>
      <point x="226" y="252" type="line"/>
      <point x="75" y="252" type="line"/>
      <point x="75" y="282" type="line"/>
      <point x="226" y="282" type="line"/>
      <point x="226" y="450" type="line"/>
      <point x="256" y="450" type="line"/>
      <point x="256" y="282" type="line"/>
      <point x="411" y="282" type="line"/>
      <point x="411" y="252" type="line"/>
      <point x="256" y="252" type="line"/>
      <point x="256" y="84" type="line"/>
      <point x="226" y="84" type="line"/>
    </contour>
    <contour>
      <point x="82" y="38" type="line"/>
      <point x="405" y="38" type="line"/>
      <point x="405" y="0" type="line"/>
      <point x="82" y="0" type="line"/>
    </contour>
  </outline>
</glyph>
<glyph name="acute" format="1">
  <advance width="268"/>
  <unicode hex="00B4"/>
  <note>
	acute
  </note>
  <outline>
    <contour>
      <point x="193" y="594" type="line"/>
      <point x="98" y="421" type="line"/>
      <point x="75" y="421" type="line"/>
      <point x="143" y="594" type="line"/>
    </contour>
  </outline>
</glyph>
<glyph name="mu" format="1">
  <advance width="446"/>
  <unicode hex="00B5"/>
  <note>
	mu
  </note>
  <outline>
    <contour>
      <point x="154" y="0"/>
      <point x="127" y="11"/>
      <point x="110" y="28" type="curve"/>
      <point x="136" y="-134" type="line"/>
      <point x="136" y="-171"/>
      <point x="117" y="-202"/>
      <point x="94" y="-202" type="curve" smooth="yes"/>
      <point x="70" y="-202"/>
      <point x="51" y="-171"/>
      <point x="51" y="-134" type="curve"/>
      <point x="81" y="107" type="line"/>
      <point x="81" y="352" type="line" smooth="yes"/>
      <point x="81" y="375"/>
      <point x="62" y="394"/>
      <point x="38" y="394" type="curve" smooth="yes"/>
      <point x="22" y="394" type="line"/>
      <point x="22" y="411" type="line"/>
      <point x="140" y="411" type="line"/>
      <point x="140" y="126" type="line" smooth="yes"/>
      <point x="140" y="85"/>
      <point x="174" y="50"/>
      <point x="215" y="50" type="curve" smooth="yes"/>
      <point x="251" y="50"/>
      <point x="287" y="73"/>
      <point x="308" y="109" type="curve"/>
      <point x="308" y="344" type="line" smooth="yes"/>
      <point x="308" y="372"/>
      <point x="286" y="394"/>
      <point x="258" y="394" type="curve" smooth="yes"/>
      <point x="241" y="394" type="line"/>
      <point x="241" y="411" type="line"/>
      <point x="367" y="411" type="line"/>
      <point x="367" y="92" type="line" smooth="yes"/>
      <point x="367" y="69"/>
      <point x="382" y="50"/>
      <point x="401" y="50" type="curve" smooth="yes"/>
      <point x="426" y="50" type="line"/>
      <point x="426" y="35" type="line"/>
      <point x="308" y="-8" type="line"/>
      <point x="308" y="63" type="line"/>
      <point x="285" y="24"/>
      <point x="238" y="0"/>
      <point x="182" y="0" type="curve" smooth="yes"/>
    </contour>
  </outline>
</glyph>
<glyph name="onequarter" format="1">
  <advance width="579"/>
  <unicode hex="00BC"/>
  <note>
	onequarter
  </note>
  <outline>
    <contour>
      <point x="75" y="321" type="line"/>
      <point x="85" y="321" type="line" smooth="yes"/>
      <point x="110" y="321"/>
      <point x="130" y="332"/>
      <point x="130" y="345" type="curve" smooth="yes"/>
      <point x="130" y="553" type="line" smooth="yes"/>
      <point x="130" y="561"/>
      <point x="122" y="568"/>
      <point x="113" y="568" type="curve" smooth="yes"/>
      <point x="104" y="568"/>
      <point x="95" y="565"/>
      <point x="84" y="559" type="curve"/>
      <point x="80" y="564" type="line"/>
      <point x="154" y="602" type="line"/>
      <point x="154" y="347" type="line" smooth="yes"/>
      <point x="154" y="332"/>
      <point x="171" y="321"/>
      <point x="194" y="321" type="curve" smooth="yes"/>
      <point x="204" y="321" type="line"/>
      <point x="204" y="312" type="line"/>
      <point x="75" y="312" type="line"/>
    </contour>
    <contour>
      <point x="378" y="618" type="line"/>
      <point x="417" y="618" type="line"/>
      <point x="154" y="-50" type="line"/>
      <point x="114" y="-50" type="line"/>
    </contour>
    <contour>
      <point x="428" y="73" type="line"/>
      <point x="273" y="73" type="line"/>
      <point x="273" y="101" type="line"/>
      <point x="438" y="295" type="line"/>
      <point x="448" y="295" type="line"/>
      <point x="448" y="100" type="line"/>
      <point x="504" y="100" type="line"/>
      <point x="504" y="73" type="line"/>
      <point x="448" y="73" type="line"/>
      <point x="448" y="0" type="line"/>
      <point x="428" y="0" type="line"/>
    </contour>
    <contour>
      <point x="428" y="100" type="line"/>
      <point x="428" y="260" type="line"/>
      <point x="293" y="100" type="line"/>
    </contour>
  </outline>
</glyph>
<glyph name="threequarters" format="1">
  <advance width="593"/>
  <unicode hex="00BE"/>
  <note>
	threequarters
  </note>
  <outline>
    <contour>
      <point x="101" y="307"/>
      <point x="75" y="319"/>
      <point x="75" y="332" type="curve" smooth="yes"/>
      <point x="75" y="341"/>
      <point x="84" y="348"/>
      <point x="95" y="348" type="curve" smooth="yes"/>
      <point x="97" y="348"/>
      <point x="101" y="346"/>
      <point x="106" y="343" type="curve" smooth="yes"/>
      <point x="117" y="336" type="line"/>
      <point x="128" y="330"/>
      <point x="143" y="327"/>
      <point x="162" y="327" type="curve" smooth="yes"/>
      <point x="209" y="327"/>
      <point x="246" y="355"/>
      <point x="246" y="390" type="curve" smooth="yes"/>
      <point x="246" y="429"/>
      <point x="205" y="460"/>
      <point x="154" y="460" type="curve" smooth="yes"/>
      <point x="140" y="460" type="line"/>
      <point x="140" y="470" type="line"/>
      <point x="188" y="478"/>
      <point x="224" y="505"/>
      <point x="224" y="533" type="curve" smooth="yes"/>
      <point x="224" y="560"/>
      <point x="196" y="582"/>
      <point x="160" y="582" type="curve" smooth="yes"/>
      <point x="129" y="582"/>
      <point x="102" y="565"/>
      <point x="89" y="537" type="curve"/>
      <point x="81" y="540" type="line"/>
      <point x="94" y="579"/>
      <point x="132" y="604"/>
      <point x="173" y="604" type="curve" smooth="yes"/>
      <point x="213" y="604"/>
      <point x="246" y="579"/>
      <point x="246" y="550" type="curve" smooth="yes"/>
      <point x="246" y="525"/>
      <point x="226" y="497"/>
      <point x="191" y="477" type="curve"/>
      <point x="235" y="465"/>
      <point x="266" y="438"/>
      <point x="266" y="410" type="curve" smooth="yes"/>
      <point x="266" y="353"/>
      <point x="206" y="307"/>
      <point x="133" y="307" type="curve" smooth="yes"/>
    </contour>
    <contour>
      <point x="400" y="618" type="line"/>
      <point x="438" y="618" type="line"/>
      <point x="175" y="-50" type="line"/>
      <point x="136" y="-50" type="line"/>
    </contour>
    <contour>
      <point x="442" y="73" type="line"/>
      <point x="286" y="73" type="line"/>
      <point x="286" y="101" type="line"/>
      <point x="452" y="295" type="line"/>
      <point x="462" y="295" type="line"/>
      <point x="462" y="100" type="line"/>
      <point x="518" y="100" type="line"/>
      <point x="518" y="73" type="line"/>
      <point x="462" y="73" type="line"/>
      <point x="462" y="0" type="line"/>
      <point x="442" y="0" type="line"/>
    </contour>
    <contour>
      <point x="442" y="100" type="line"/>
      <point x="442" y="260" type="line"/>
      <point x="306" y="100" type="line"/>
    </contour>
  </outline>
</glyph>
<glyph name="Atilde" format="1">
  <advance width="598"/>
  <unicode hex="00C3"/>
  <note>
	Atilde
  </note>
  <outline>
    <contour>
      <point x="5" y="14" type="line"/>
      <point x="32" y="14"/>
      <point x="63" y="47"/>
      <point x="83" y="98" type="curve" smooth="yes"/>
      <point x="288" y="604" type="line"/>
      <point x="300" y="604" type="line"/>
      <point x="518" y="98" type="line" smooth="yes"/>
      <point x="539" y="47"/>
      <point x="569" y="14"/>
      <point x="592" y="14" type="curve"/>
      <point x="592" y="0" type="line"/>
      <point x="408" y="0" type="line"/>
      <point x="408" y="14" type="line"/>
      <point x="412" y="14" type="line" smooth="yes"/>
      <point x="440" y="14"/>
      <point x="462" y="32"/>
      <point x="462" y="53" type="curve" smooth="yes"/>
      <point x="462" y="61"/>
      <point x="458" y="75"/>
      <point x="449" y="96" type="curve" smooth="yes"/>
      <point x="403" y="202" type="line"/>
      <point x="158" y="202" type="line"/>
      <point x="120" y="107" type="line" smooth="yes"/>
      <point x="108" y="77"/>
      <point x="102" y="58"/>
      <point x="102" y="49" type="curve" smooth="yes"/>
      <point x="102" y="30"/>
      <point x="119" y="14"/>
      <point x="139" y="14" type="curve" smooth="yes"/>
      <point x="148" y="14" type="line"/>
      <point x="148" y="0" type="line"/>
      <point x="5" y="0" type="line"/>
    </contour>
    <contour>
      <point x="395" y="227" type="line"/>
      <point x="282" y="510" type="line"/>
      <point x="168" y="227" type="line"/>
    </contour>
    <contour>
      <point x="186" y="662" type="line"/>
      <point x="193" y="701"/>
      <point x="230" y="730"/>
      <point x="274" y="730" type="curve" smooth="yes"/>
      <point x="287" y="730"/>
      <point x="304" y="724"/>
      <point x="327" y="711" type="curve" smooth="yes"/>
      <point x="350" y="698"/>
      <point x="367" y="692"/>
      <point x="380" y="692" type="curve" smooth="yes"/>
      <point x="407" y="692"/>
      <point x="430" y="705"/>
      <point x="442" y="726" type="curve"/>
      <point x="456" y="710" type="line"/>
      <point x="445" y="671"/>
      <point x="411" y="645"/>
      <point x="372" y="645" type="curve" smooth="yes"/>
      <point x="359" y="645"/>
      <point x="342" y="651"/>
      <point x="319" y="664" type="curve" smooth="yes"/>
      <point x="296" y="677"/>
      <point x="279" y="683"/>
      <point x="266" y="683" type="curve" smooth="yes"/>
      <point x="239" y="683"/>
      <point x="215" y="670"/>
      <point x="200" y="649" type="curve"/>
    </contour>
  </outline>
</glyph>
<glyph name="Adieresis" format="1">
  <advance width="598"/>
  <unicode hex="00C4"/>
  <note>
	Adieresis
  </note>
  <outline>
    <contour>
      <point x="5" y="14" type="line"/>
      <point x="32" y="14"/>
      <point x="63" y="47"/>
      <point x="83" y="98" type="curve" smooth="yes"/>
      <point x="288" y="604" type="line"/>
      <point x="300" y="604" type="line"/>
      <point x="518" y="98" type="line" smooth="yes"/>
      <point x="539" y="47"/>
      <point x="569" y="14"/>
      <point x="592" y="14" type="curve"/>
      <point x="592" y="0" type="line"/>
      <point x="408" y="0" type="line"/>
      <point x="408" y="14" type="line"/>
      <point x="412" y="14" type="line" smooth="yes"/>
      <point x="440" y="14"/>
      <point x="462" y="32"/>
      <point x="462" y="53" type="curve" smooth="yes"/>
      <point x="462" y="61"/>
      <point x="458" y="75"/>
      <point x="449" y="96" type="curve" smooth="yes"/>
      <point x="403" y="202" type="line"/>
      <point x="158" y="202" type="line"/>
      <point x="120" y="107" type="line" smooth="yes"/>
      <point x="108" y="77"/>
      <point x="102" y="58"/>
      <point x="102" y="49" type="curve" smooth="yes"/>
      <point x="102" y="30"/>
      <point x="119" y="14"/>
      <point x="139" y="14" type="curve" smooth="yes"/>
      <point x="148" y="14" type="line"/>
      <point x="148" y="0" type="line"/>
      <point x="5" y="0" type="line"/>
    </contour>
    <contour>
      <point x="395" y="227" type="line"/>
      <point x="282" y="510" type="line"/>
      <point x="168" y="227" type="line"/>
    </contour>
    <contour>
      <point x="189" y="644"/>
      <point x="170" y="664"/>
      <point x="170" y="688" type="curve" smooth="yes"/>
      <point x="170" y="715"/>
      <point x="189" y="737"/>
      <point x="212" y="737" type="curve" smooth="yes"/>
      <point x="235" y="737"/>
      <point x="254" y="715"/>
      <point x="254" y="688" type="curve" smooth="yes"/>
      <point x="254" y="664"/>
      <point x="235" y="644"/>
      <point x="212" y="644" type="curve" smooth="yes"/>
    </contour>
    <contour>
      <point x="357" y="644"/>
      <point x="338" y="664"/>
      <point x="338" y="688" type="curve" smooth="yes"/>
      <point x="338" y="715"/>
      <point x="357" y="737"/>
      <point x="381" y="737" type="curve" smooth="yes"/>
      <point x="404" y="737"/>
      <point x="422" y="715"/>
      <point x="422" y="688" type="curve" smooth="yes"/>
      <point x="422" y="664"/>
      <point x="404" y="644"/>
      <point x="381" y="644" type="curve" smooth="yes"/>
    </contour>
  </outline>
</glyph>
<glyph name="Iacute" format="1">
  <advance width="239"/>
  <unicode hex="00CD"/>
  <note>
	Iacute
  </note>
  <outline>
    <contour>
      <point x="6" y="15" type="line"/>
      <point x="53" y="15"/>
      <point x="90" y="38"/>
      <point x="90" y="66" type="curve" smooth="yes"/>
      <point x="90" y="530" type="line" smooth="yes"/>
      <point x="90" y="562"/>
      <point x="53" y="589"/>
      <point x="6" y="589" type="curve"/>
      <point x="6" y="604" type="line"/>
      <point x="233" y="604" type="line"/>
      <point x="233" y="589" type="line"/>
      <point x="188" y="589"/>
      <point x="150" y="562"/>
      <point x="150" y="530" type="curve" smooth="yes"/>
      <point x="150" y="66" type="line" smooth="yes"/>
      <point x="150" y="38"/>
      <point x="188" y="15"/>
      <point x="233" y="15" type="curve"/>
      <point x="233" y="0" type="line"/>
      <point x="6" y="0" type="line"/>
    </contour>
    <contour>
      <point x="208" y="818" type="line"/>
      <point x="113" y="645" type="line"/>
      <point x="90" y="645" type="line"/>
      <point x="158" y="818" type="line"/>
    </contour>
  </outline>
</glyph>
<glyph name="Udieresis" format="1">
  <advance width="610"/>
  <unicode hex="00DC"/>
  <note>
	Udieresis
  </note>
  <outline>
    <contour>
      <point x="185" y="-4"/>
      <point x="87" y="88"/>
      <point x="87" y="200" type="curve" smooth="yes"/>
      <point x="87" y="522" type="line" smooth="yes"/>
      <point x="87" y="559"/>
      <point x="50" y="590"/>
      <point x="3" y="590" type="curve"/>
      <point x="3" y="604" type="line"/>
      <point x="230" y="604" type="line"/>
      <point x="230" y="590" type="line"/>
      <point x="183" y="590"/>
      <point x="146" y="559"/>
      <point x="146" y="522" type="curve" smooth="yes"/>
      <point x="146" y="200" type="line" smooth="yes"/>
      <point x="146" y="104"/>
      <point x="228" y="26"/>
      <point x="328" y="26" type="curve" smooth="yes"/>
      <point x="420" y="26"/>
      <point x="494" y="104"/>
      <point x="494" y="200" type="curve" smooth="yes"/>
      <point x="494" y="505" type="line" smooth="yes"/>
      <point x="494" y="552"/>
      <point x="462" y="590"/>
      <point x="423" y="590" type="curve"/>
      <point x="423" y="604" type="line"/>
      <point x="607" y="604" type="line"/>
      <point x="607" y="590" type="line"/>
      <point x="560" y="590"/>
      <point x="523" y="552"/>
      <point x="523" y="505" type="curve" smooth="yes"/>
      <point x="523" y="200" type="line" smooth="yes"/>
      <point x="523" y="87"/>
      <point x="426" y="-4"/>
      <point x="306" y="-4" type="curve" smooth="yes"/>
    </contour>
    <contour>
      <point x="218" y="644"/>
      <point x="199" y="664"/>
      <point x="199" y="688" type="curve" smooth="yes"/>
      <point x="199" y="715"/>
      <point x="218" y="737"/>
      <point x="242" y="737" type="curve" smooth="yes"/>
      <point x="265" y="737"/>
      <point x="283" y="715"/>
      <point x="283" y="688" type="curve" smooth="yes"/>
      <point x="283" y="664"/>
      <point x="265" y="644"/>
      <point x="242" y="644" type="curve" smooth="yes"/>
    </contour>
    <contour>
      <point x="387" y="644"/>
      <point x="368" y="664"/>
      <point x="368" y="688" type="curve" smooth="yes"/>
      <point x="368" y="715"/>
      <point x="387" y="737"/>
      <point x="410" y="737" type="curve" smooth="yes"/>
      <point x="433" y="737"/>
      <point x="452" y="715"/>
      <point x="452" y="688" type="curve" smooth="yes"/>
      <point x="452" y="664"/>
      <point x="433" y="644"/>
      <point x="410" y="644" type="curve" smooth="yes"/>
    </contour>
  </outline>
</glyph>
<glyph name="germandbls" format="1">
  <advance width="507"/>
  <unicode hex="00DF"/>
  <note>
	germandbls
  </note>
  <outline>
    <contour>
      <point x="3" y="17" type="line"/>
      <point x="20" y="17" type="line" smooth="yes"/>
      <point x="57" y="17"/>
      <point x="87" y="47"/>
      <point x="87" y="84" type="curve" smooth="yes"/>
      <point x="87" y="490" type="line" smooth="yes"/>
      <point x="87" y="553"/>
      <point x="129" y="604"/>
      <point x="181" y="604" type="curve" smooth="yes"/>
      <point x="252" y="604" type="line" smooth="yes"/>
      <point x="357" y="604"/>
      <point x="426" y="540"/>
      <point x="426" y="441" type="curve" smooth="yes"/>
      <point x="426" y="384"/>
      <point x="388" y="331"/>
      <point x="331" y="310" type="curve"/>
      <point x="420" y="275"/>
      <point x="480" y="203"/>
      <point x="480" y="130" type="curve" smooth="yes"/>
      <point x="480" y="54"/>
      <point x="431" y="-8"/>
      <point x="370" y="-8" type="curve" smooth="yes"/>
      <point x="338" y="-8"/>
      <point x="309" y="2"/>
      <point x="286" y="21" type="curve"/>
      <point x="269" y="0" type="line"/>
      <point x="252" y="0" type="line"/>
      <point x="244" y="134" type="line"/>
      <point x="265" y="134" type="line"/>
      <point x="277" y="66"/>
      <point x="314" y="17"/>
      <point x="353" y="17" type="curve" smooth="yes"/>
      <point x="388" y="17"/>
      <point x="416" y="66"/>
      <point x="416" y="126" type="curve" smooth="yes"/>
      <point x="416" y="203"/>
      <point x="365" y="271"/>
      <point x="290" y="291" type="curve"/>
      <point x="269" y="288"/>
      <point x="246" y="286"/>
      <point x="223" y="286" type="curve"/>
      <point x="223" y="318" type="line"/>
      <point x="304" y="318"/>
      <point x="358" y="364"/>
      <point x="358" y="436" type="curve" smooth="yes"/>
      <point x="358" y="517"/>
      <point x="304" y="570"/>
      <point x="223" y="570" type="curve" smooth="yes"/>
      <point x="182" y="570"/>
      <point x="147" y="552"/>
      <point x="147" y="529" type="curve" smooth="yes"/>
      <point x="147" y="84" type="line" smooth="yes"/>
      <point x="147" y="47"/>
      <point x="177" y="17"/>
      <point x="214" y="17" type="curve" smooth="yes"/>
      <point x="231" y="17" type="line"/>
      <point x="231" y="0" type="line"/>
      <point x="3" y="0" type="line"/>
    </contour>
  </outline>
</glyph>
<glyph name="ccedilla" format="1">
  <advance width="402"/>
  <unicode hex="00E7"/>
  <note>
	ccedilla
  </note>
  <outline>
    <contour>
      <point x="166" y="-194"/>
      <point x="135" y="-185"/>
      <point x="119" y="-169" type="curve"/>
      <point x="141" y="-145" type="line"/>
      <point x="152" y="-162"/>
      <point x="176" y="-174"/>
      <point x="205" y="-174" type="curve" smooth="yes"/>
      <point x="240" y="-174"/>
      <point x="267" y="-151"/>
      <point x="267" y="-123" type="curve" smooth="yes"/>
      <point x="267" y="-96"/>
      <point x="232" y="-72"/>
      <point x="185" y="-68" type="curve"/>
      <point x="209" y="-3" type="line"/>
      <point x="121" y="5"/>
      <point x="42" y="88"/>
      <point x="42" y="200" type="curve" smooth="yes"/>
      <point x="42" y="319"/>
      <point x="135" y="416"/>
      <point x="248" y="416" type="curve" smooth="yes"/>
      <point x="311" y="416"/>
      <point x="362" y="379"/>
      <point x="362" y="334" type="curve" smooth="yes"/>
      <point x="362" y="317"/>
      <point x="351" y="302"/>
      <point x="336" y="302" type="curve" smooth="yes"/>
      <point x="323" y="302"/>
      <point x="310" y="314"/>
      <point x="307" y="330" type="curve" smooth="yes"/>
      <point x="300" y="365"/>
      <point x="268" y="390"/>
      <point x="231" y="390" type="curve" smooth="yes"/>
      <point x="152" y="390"/>
      <point x="89" y="322"/>
      <point x="89" y="238" type="curve" smooth="yes"/>
      <point x="89" y="133"/>
      <point x="153" y="47"/>
      <point x="232" y="47" type="curve" smooth="yes"/>
      <point x="287" y="47"/>
      <point x="337" y="77"/>
      <point x="365" y="125" type="curve"/>
      <point x="378" y="119" type="line"/>
      <point x="358" y="47"/>
      <point x="299" y="2"/>
      <point x="243" y="-3" type="curve"/>
      <point x="229" y="-46" type="line"/>
      <point x="272" y="-58"/>
      <point x="301" y="-87"/>
      <point x="301" y="-118" type="curve" smooth="yes"/>
      <point x="301" y="-159"/>
      <point x="258" y="-194"/>
      <point x="205" y="-194" type="curve" smooth="yes"/>
    </contour>
  </outline>
</glyph>
<glyph name="edieresis" format="1">
  <advance width="434"/>
  <unicode hex="00EB"/>
  <note>
	edieresis
  </note>
  <outline>
    <contour>
      <point x="127" y="-6"/>
      <point x="44" y="89"/>
      <point x="44" y="208" type="curve" smooth="yes"/>
      <point x="44" y="323"/>
      <point x="123" y="416"/>
      <point x="220" y="416" type="curve" smooth="yes"/>
      <point x="316" y="416"/>
      <point x="393" y="331"/>
      <point x="393" y="226" type="curve"/>
      <point x="90" y="226" type="line"/>
      <point x="90" y="127"/>
      <point x="158" y="47"/>
      <point x="242" y="47" type="curve" smooth="yes"/>
      <point x="303" y="47"/>
      <point x="360" y="83"/>
      <point x="387" y="140" type="curve"/>
      <point x="404" y="133" type="line"/>
      <point x="383" y="52"/>
      <point x="309" y="-6"/>
      <point x="228" y="-6" type="curve" smooth="yes"/>
    </contour>
    <contour>
      <point x="342" y="248" type="line"/>
      <point x="342" y="328"/>
      <point x="288" y="394"/>
      <point x="220" y="394" type="curve" smooth="yes"/>
      <point x="160" y="394"/>
      <point x="105" y="332"/>
      <point x="90" y="248" type="curve"/>
    </contour>
    <contour>
      <point x="108" y="453"/>
      <point x="89" y="473"/>
      <point x="89" y="497" type="curve" smooth="yes"/>
      <point x="89" y="524"/>
      <point x="108" y="546"/>
      <point x="131" y="546" type="curve" smooth="yes"/>
      <point x="154" y="546"/>
      <point x="173" y="524"/>
      <point x="173" y="497" type="curve" smooth="yes"/>
      <point x="173" y="473"/>
      <point x="154" y="453"/>
      <point x="131" y="453" type="curve" smooth="yes"/>
    </contour>
    <contour>
      <point x="277" y="453"/>
      <point x="258" y="473"/>
      <point x="258" y="497" type="curve" smooth="yes"/>
      <point x="258" y="524"/>
      <point x="277" y="546"/>
      <point x="300" y="546" type="curve" smooth="yes"/>
      <point x="323" y="546"/>
      <point x="342" y="524"/>
      <point x="342" y="497" type="curve" smooth="yes"/>
      <point x="342" y="473"/>
      <point x="323" y="453"/>
      <point x="300" y="453" type="curve" smooth="yes"/>
    </contour>
  </outline>
</glyph>
<glyph name="idieresis" format="1">
  <advance width="214"/>
  <unicode hex="00EF"/>
  <note>
	idieresis
  </note>
  <outline>
    <contour>
      <point x="17" y="15" type="line"/>
      <point x="54" y="15"/>
      <point x="84" y="39"/>
      <point x="84" y="68" type="curve" smooth="yes"/>
      <point x="84" y="334" type="line" smooth="yes"/>
      <point x="84" y="349"/>
      <point x="65" y="361"/>
      <point x="42" y="361" type="curve" smooth="yes"/>
      <point x="17" y="361" type="line"/>
      <point x="17" y="375" type="line"/>
      <point x="134" y="415" type="line"/>
      <point x="134" y="68" type="line" smooth="yes"/>
      <point x="134" y="39"/>
      <point x="161" y="14"/>
      <point x="193" y="14" type="curve"/>
      <point x="193" y="0" type="line"/>
      <point x="17" y="0" type="line"/>
    </contour>
    <contour>
      <point x="-14" y="453"/>
      <point x="-33" y="473"/>
      <point x="-33" y="497" type="curve" smooth="yes"/>
      <point x="-33" y="524"/>
      <point x="-14" y="546"/>
      <point x="10" y="546" type="curve" smooth="yes"/>
      <point x="33" y="546"/>
      <point x="51" y="524"/>
      <point x="51" y="497" type="curve" smooth="yes"/>
      <point x="51" y="473"/>
      <point x="33" y="453"/>
      <point x="10" y="453" type="curve" smooth="yes"/>
    </contour>
    <contour>
      <point x="155" y="453"/>
      <point x="136" y="473"/>
      <point x="136" y="497" type="curve" smooth="yes"/>
      <point x="136" y="524"/>
      <point x="155" y="546"/>
      <point x="178" y="546" type="curve" smooth="yes"/>
      <point x="201" y="546"/>
      <point x="220" y="524"/>
      <point x="220" y="497" type="curve" smooth="yes"/>
      <point x="220" y="473"/>
      <point x="201" y="453"/>
      <point x="178" y="453" type="curve" smooth="yes"/>
    </contour>
  </outline>
</glyph>
<glyph name="ntilde" format="1">
  <advance width="453"/>
  <unicode hex="00F1"/>
  <note>
	ntilde
  </note>
  <outline>
    <contour>
      <point x="24" y="15" type="line"/>
      <point x="56" y="15"/>
      <point x="83" y="38"/>
      <point x="83" y="66" type="curve" smooth="yes"/>
      <point x="83" y="317" type="line" smooth="yes"/>
      <point x="83" y="341"/>
      <point x="62" y="361"/>
      <point x="37" y="361" type="curve" smooth="yes"/>
      <point x="24" y="361" type="line"/>
      <point x="24" y="375" type="line"/>
      <point x="134" y="415" type="line"/>
      <point x="134" y="346" type="line"/>
      <point x="171" y="390"/>
      <point x="221" y="415"/>
      <point x="272" y="415" type="curve" smooth="yes"/>
      <point x="329" y="415"/>
      <point x="377" y="368"/>
      <point x="377" y="309" type="curve" smooth="yes"/>
      <point x="377" y="66" type="line" smooth="yes"/>
      <point x="377" y="37"/>
      <point x="403" y="14"/>
      <point x="435" y="14" type="curve"/>
      <point x="435" y="0" type="line"/>
      <point x="276" y="0" type="line"/>
      <point x="276" y="15" type="line"/>
      <point x="304" y="15"/>
      <point x="326" y="38"/>
      <point x="326" y="66" type="curve" smooth="yes"/>
      <point x="326" y="296" type="line" smooth="yes"/>
      <point x="326" y="339"/>
      <point x="289" y="374"/>
      <point x="242" y="374" type="curve" smooth="yes"/>
      <point x="201" y="374"/>
      <point x="161" y="351"/>
      <point x="134" y="314" type="curve"/>
      <point x="134" y="66" type="line" smooth="yes"/>
      <point x="134" y="38"/>
      <point x="160" y="15"/>
      <point x="192" y="15" type="curve"/>
      <point x="192" y="0" type="line"/>
      <point x="24" y="0" type="line"/>
    </contour>
    <contour>
      <point x="100" y="470" type="line"/>
      <point x="107" y="509"/>
      <point x="144" y="538"/>
      <point x="188" y="538" type="curve" smooth="yes"/>
      <point x="201" y="538"/>
      <point x="218" y="532"/>
      <point x="241" y="519" type="curve" smooth="yes"/>
      <point x="264" y="506"/>
      <point x="281" y="500"/>
      <point x="294" y="500" type="curve" smooth="yes"/>
      <point x="321" y="500"/>
      <point x="344" y="513"/>
      <point x="356" y="534" type="curve"/>
      <point x="370" y="518" type="line"/>
      <point x="359" y="479"/>
      <point x="325" y="453"/>
      <point x="286" y="453" type="curve" smooth="yes"/>
      <point x="273" y="453"/>
      <point x="256" y="459"/>
      <point x="233" y="472" type="curve" smooth="yes"/>
      <point x="210" y="485"/>
      <point x="193" y="491"/>
      <point x="180" y="491" type="curve" smooth="yes"/>
      <point x="153" y="491"/>
      <point x="129" y="478"/>
      <point x="114" y="457" type="curve"/>
    </contour>
  </outline>
</glyph>
<glyph name="udieresis" format="1">
  <advance width="458"/>
  <unicode hex="00FC"/>
  <note>
	udieresis
  </note>
  <outline>
    <contour>
      <point x="129" y="-5"/>
      <point x="76" y="45"/>
      <point x="76" y="106" type="curve" smooth="yes"/>
      <point x="76" y="354" type="line" smooth="yes"/>
      <point x="76" y="377"/>
      <point x="55" y="396"/>
      <point x="30" y="396" type="curve" smooth="yes"/>
      <point x="18" y="396" type="line"/>
      <point x="18" y="411" type="line"/>
      <point x="126" y="411" type="line"/>
      <point x="126" y="127" type="line" smooth="yes"/>
      <point x="126" y="75"/>
      <point x="170" y="34"/>
      <point x="223" y="34" type="curve" smooth="yes"/>
      <point x="260" y="34"/>
      <point x="301" y="63"/>
      <point x="328" y="110" type="curve"/>
      <point x="328" y="346" type="line" smooth="yes"/>
      <point x="328" y="374"/>
      <point x="298" y="396"/>
      <point x="261" y="396" type="curve"/>
      <point x="261" y="411" type="line"/>
      <point x="378" y="411" type="line"/>
      <point x="378" y="94" type="line" smooth="yes"/>
      <point x="378" y="70"/>
      <point x="397" y="50"/>
      <point x="420" y="50" type="curve" smooth="yes"/>
      <point x="437" y="50" type="line"/>
      <point x="437" y="38" type="line"/>
      <point x="328" y="-4" type="line"/>
      <point x="328" y="69" type="line"/>
      <point x="296" y="22"/>
      <point x="246" y="-5"/>
      <point x="194" y="-5" type="curve" smooth="yes"/>
    </contour>
    <contour>
      <point x="115" y="453"/>
      <point x="96" y="473"/>
      <point x="96" y="497" type="curve" smooth="yes"/>
      <point x="96" y="524"/>
      <point x="115" y="546"/>
      <point x="138" y="546" type="curve" smooth="yes"/>
      <point x="161" y="546"/>
      <point x="180" y="524"/>
      <point x="180" y="497" type="curve" smooth="yes"/>
      <point x="180" y="473"/>
      <point x="161" y="453"/>
      <point x="138" y="453" type="curve" smooth="yes"/>
    </contour>
    <contour>
      <point x="284" y="453"/>
      <point x="265" y="473"/>
      <point x="265" y="497" type="curve" smooth="yes"/>
      <point x="265" y="524"/>
      <point x="284" y="546"/>
      <point x="307" y="546" type="curve" smooth="yes"/>
      <point x="330" y="546"/>
      <point x="349" y="524"/>
      <point x="349" y="497" type="curve" smooth="yes"/>
      <point x="349" y="473"/>
      <point x="330" y="453"/>
      <point x="307" y="453" type="curve" smooth="yes"/>
    </contour>
  </outline>
</glyph>
<glyph name="Ydieresis" format="1">
  <advance width="604"/>
  <unicode hex="0178"/>
  <note>
	Ydieresis
  </note>
  <outline>
    <contour>
      <point x="189" y="15" type="line"/>
      <point x="240" y="15"/>
      <point x="281" y="46"/>
      <point x="281" y="85" type="curve" smooth="yes"/>
      <point x="281" y="272" type="line"/>
      <point x="102" y="523" type="line" smooth="yes"/>
      <point x="74" y="563"/>
      <point x="37" y="587"/>
      <point x="4" y="587" type="curve"/>
      <point x="4" y="604" type="line"/>
      <point x="230" y="604" type="line"/>
      <point x="230" y="587" type="line"/>
      <point x="214" y="587" type="line" smooth="yes"/>
      <point x="191" y="587"/>
      <point x="172" y="575"/>
      <point x="172" y="560" type="curve" smooth="yes"/>
      <point x="172" y="551"/>
      <point x="179" y="537"/>
      <point x="191" y="518" type="curve" smooth="yes"/>
      <point x="331" y="312" type="line"/>
      <point x="471" y="530" type="line" smooth="yes"/>
      <point x="478" y="541"/>
      <point x="482" y="551"/>
      <point x="482" y="556" type="curve" smooth="yes"/>
      <point x="482" y="573"/>
      <point x="465" y="587"/>
      <point x="445" y="587" type="curve" smooth="yes"/>
      <point x="432" y="587" type="line"/>
      <point x="432" y="604" type="line"/>
      <point x="600" y="604" type="line"/>
      <point x="600" y="587" type="line"/>
      <point x="565" y="587"/>
      <point x="530" y="565"/>
      <point x="506" y="528" type="curve" smooth="yes"/>
      <point x="340" y="272" type="line"/>
      <point x="340" y="85" type="line" smooth="yes"/>
      <point x="340" y="46"/>
      <point x="381" y="15"/>
      <point x="432" y="15" type="curve"/>
      <point x="432" y="0" type="line"/>
      <point x="189" y="0" type="line"/>
    </contour>
    <contour>
      <point x="214" y="648"/>
      <point x="195" y="668"/>
      <point x="195" y="692" type="curve" smooth="yes"/>
      <point x="195" y="719"/>
      <point x="214" y="741"/>
      <point x="238" y="741" type="curve" smooth="yes"/>
      <point x="261" y="741"/>
      <point x="279" y="719"/>
      <point x="279" y="692" type="curve" smooth="yes"/>
      <point x="279" y="668"/>
      <point x="261" y="648"/>
      <point x="238" y="648" type="curve" smooth="yes"/>
    </contour>
    <contour>
      <point x="383" y="648"/>
      <point x="364" y="668"/>
      <point x="364" y="692" type="curve" smooth="yes"/>
      <point x="364" y="719"/>
      <point x="383" y="741"/>
      <point x="406" y="741" type="curve" smooth="yes"/>
      <point x="429" y="741"/>
      <point x="448" y="719"/>
      <point x="448" y="692" type="curve" smooth="yes"/>
      <point x="448" y="668"/>
      <point x="429" y="648"/>
      <point x="406" y="648" type="curve" smooth="yes"/>
    </contour>
  </outline>
</glyph>
<glyph name="uni0982" format="1">
  <advance width="275"/>
  <unicode hex="0982"/>
  <note>
	uni0982
  </note>
  <outline>
    <contour>
      <point x="40" y="455"/>
      <point x="85" y="500"/>
      <point x="141" y="500" type="curve" smooth="yes"/>
      <point x="197" y="500"/>
      <point x="242" y="455"/>
      <point x="242" y="399" type="curve" smooth="yes"/>
      <point x="242" y="343"/>
      <point x="197" y="298"/>
      <point x="141" y="298" type="curve" smooth="yes"/>
      <point x="85" y="298"/>
      <point x="40" y="343"/>
      <point x="40" y="399" type="curve" smooth="yes"/>
    </contour>
    <contour>
      <point x="77" y="356"/>
      <point x="93" y="339"/>
      <point x="118" y="339" type="curve" smooth="yes"/>
      <point x="159" y="339"/>
      <point x="205" y="381"/>
      <point x="205" y="419" type="curve" smooth="yes"/>
      <point x="205" y="440"/>
      <point x="190" y="457"/>
      <point x="165" y="457" type="curve" smooth="yes"/>
      <point x="124" y="457"/>
      <point x="77" y="414"/>
      <point x="77" y="377" type="curve" smooth="yes"/>
    </contour>
    <contour>
      <point x="51" y="257" type="line"/>
      <point x="133" y="218"/>
      <point x="203" y="128"/>
      <point x="254" y="10" type="curve"/>
      <point x="231" y="-2" type="line"/>
      <point x="187" y="85"/>
      <point x="115" y="162"/>
      <point x="24" y="202" type="curve"/>
    </contour>
  </outline>
</glyph>
<glyph name="uni0983" format="1">
  <advance width="342"/>
  <unicode hex="0983"/>
  <note>
	uni0983
  </note>
  <outline>
    <contour>
      <point x="70" y="455"/>
      <point x="115" y="500"/>
      <point x="171" y="500" type="curve" smooth="yes"/>
      <point x="227" y="500"/>
      <point x="272" y="455"/>
      <point x="272" y="399" type="curve" smooth="yes"/>
      <point x="272" y="343"/>
      <point x="227" y="298"/>
      <point x="171" y="298" type="curve" smooth="yes"/>
      <point x="115" y="298"/>
      <point x="70" y="343"/>
      <point x="70" y="399" type="curve" smooth="yes"/>
    </contour>
    <contour>
      <point x="107" y="356"/>
      <point x="123" y="339"/>
      <point x="148" y="339" type="curve" smooth="yes"/>
      <point x="189" y="339"/>
      <point x="235" y="381"/>
      <point x="235" y="419" type="curve" smooth="yes"/>
      <point x="235" y="440"/>
      <point x="220" y="457"/>
      <point x="195" y="457" type="curve" smooth="yes"/>
      <point x="154" y="457"/>
      <point x="107" y="414"/>
      <point x="107" y="377" type="curve" smooth="yes"/>
    </contour>
    <contour>
      <point x="70" y="157"/>
      <point x="115" y="202"/>
      <point x="171" y="202" type="curve" smooth="yes"/>
      <point x="227" y="202"/>
      <point x="272" y="157"/>
      <point x="272" y="101" type="curve" smooth="yes"/>
      <point x="272" y="45"/>
      <point x="227" y="0"/>
      <point x="171" y="0" type="curve" smooth="yes"/>
      <point x="115" y="0"/>
      <point x="70" y="45"/>
      <point x="70" y="101" type="curve" smooth="yes"/>
    </contour>
    <contour>
      <point x="107" y="58"/>
      <point x="123" y="41"/>
      <point x="148" y="41" type="curve" smooth="yes"/>
      <point x="189" y="41"/>
      <point x="235" y="83"/>
      <point x="235" y="121" type="curve" smooth="yes"/>
      <point x="235" y="142"/>
      <point x="220" y="159"/>
      <point x="195" y="159" type="curve" smooth="yes"/>
      <point x="154" y="159"/>
      <point x="107" y="116"/>
      <point x="107" y="79" type="curve" smooth="yes"/>
    </contour>
  </outline>
</glyph>
<glyph name="uni0985" format="1">
  <advance width="576"/>
  <unicode hex="0985"/>
  <note>
	uni0985
  </note>
  <outline>
    <contour>
      <point x="396" y="165"/>
      <point x="338" y="97"/>
      <point x="254" y="97" type="curve" smooth="yes"/>
      <point x="152" y="97"/>
      <point x="73" y="200"/>
      <point x="7" y="402" type="curve"/>
      <point x="30" y="411" type="line"/>
      <point x="92" y="231"/>
      <point x="153" y="155"/>
      <point x="240" y="155" type="curve" smooth="yes"/>
      <point x="310" y="155"/>
      <point x="362" y="204"/>
      <point x="362" y="273" type="curve" smooth="yes"/>
      <point x="362" y="333"/>
      <point x="322" y="375"/>
      <point x="274" y="375" type="curve" smooth="yes"/>
      <point x="266" y="375"/>
      <point x="258" y="374"/>
      <point x="250" y="372" type="curve"/>
      <point x="268" y="391" type="line"/>
      <point x="279" y="380"/>
      <point x="286" y="365"/>
      <point x="286" y="346" type="curve" smooth="yes"/>
      <point x="286" y="307"/>
      <point x="256" y="280"/>
      <point x="220" y="280" type="curve" smooth="yes"/>
      <point x="183" y="280"/>
      <point x="154" y="309"/>
      <point x="154" y="347" type="curve" smooth="yes"/>
      <point x="154" y="389"/>
      <point x="191" y="418"/>
      <point x="242" y="418" type="curve" smooth="yes"/>
      <point x="323" y="418"/>
      <point x="396" y="347"/>
      <point x="396" y="252" type="curve"/>
    </contour>
    <contour>
      <point x="-10" y="456" type="line"/>
      <point x="-10" y="491" type="line"/>
      <point x="586" y="491" type="line"/>
      <point x="586" y="456" type="line"/>
    </contour>
    <contour>
      <point x="506" y="466" type="line"/>
      <point x="506" y="0" type="line"/>
      <point x="481" y="0" type="line"/>
      <point x="470" y="98"/>
      <point x="424" y="174"/>
      <point x="370" y="207" type="curve"/>
      <point x="381" y="259" type="line"/>
      <point x="413" y="229"/>
      <point x="454" y="173"/>
      <point x="475" y="110" type="curve"/>
      <point x="466" y="107" type="line"/>
      <point x="466" y="466" type="line"/>
    </contour>
  </outline>
</glyph>
<glyph name="uni0986" format="1">
  <advance width="743"/>
  <unicode hex="0986"/>
  <note>
	uni0986
  </note>
  <outline>
    <contour>
      <point x="396" y="165"/>
      <point x="338" y="97"/>
      <point x="254" y="97" type="curve" smooth="yes"/>
      <point x="152" y="97"/>
      <point x="73" y="200"/>
      <point x="7" y="402" type="curve"/>
      <point x="30" y="411" type="line"/>
      <point x="92" y="231"/>
      <point x="153" y="155"/>
      <point x="240" y="155" type="curve" smooth="yes"/>
      <point x="310" y="155"/>
      <point x="362" y="204"/>
      <point x="362" y="273" type="curve" smooth="yes"/>
      <point x="362" y="333"/>
      <point x="322" y="375"/>
      <point x="274" y="375" type="curve" smooth="yes"/>
      <point x="266" y="375"/>
      <point x="258" y="374"/>
      <point x="250" y="372" type="curve"/>
      <point x="268" y="391" type="line"/>
      <point x="279" y="380"/>
      <point x="286" y="365"/>
      <point x="286" y="346" type="curve" smooth="yes"/>
      <point x="286" y="307"/>
      <point x="256" y="280"/>
      <point x="220" y="280" type="curve" smooth="yes"/>
      <point x="183" y="280"/>
      <point x="154" y="309"/>
      <point x="154" y="347" type="curve" smooth="yes"/>
      <point x="154" y="389"/>
      <point x="191" y="418"/>
      <point x="242" y="418" type="curve" smooth="yes"/>
      <point x="323" y="418"/>
      <point x="396" y="347"/>
      <point x="396" y="252" type="curve"/>
    </contour>
    <contour>
      <point x="-10" y="456" type="line"/>
      <point x="-10" y="491" type="line"/>
      <point x="566" y="491" type="line"/>
      <point x="566" y="456" type="line"/>
    </contour>
    <contour>
      <point x="506" y="466" type="line"/>
      <point x="506" y="0" type="line"/>
      <point x="481" y="0" type="line"/>
      <point x="470" y="98"/>
      <point x="424" y="174"/>
      <point x="370" y="207" type="curve"/>
      <point x="381" y="259" type="line"/>
      <point x="413" y="229"/>
      <point x="454" y="173"/>
      <point x="475" y="110" type="curve"/>
      <point x="466" y="107" type="line"/>
      <point x="466" y="466" type="line"/>
    </contour>
    <contour>
      <point x="753" y="491" type="line"/>
      <point x="753" y="456" type="line"/>
      <point x="673" y="456" type="line"/>
      <point x="673" y="0" type="line"/>
      <point x="633" y="0" type="line"/>
      <point x="633" y="366" type="line" smooth="yes"/>
      <point x="633" y="415"/>
      <point x="603" y="456"/>
      <point x="567" y="456" type="curve" smooth="yes"/>
      <point x="551" y="456" type="line"/>
      <point x="551" y="491" type="line"/>
      <point x="571" y="491" type="line" smooth="yes"/>
      <point x="604" y="491"/>
      <point x="637" y="451"/>
      <point x="648" y="384" type="curve"/>
      <point x="633" y="381" type="line"/>
      <point x="633" y="491" type="line"/>
    </contour>
  </outline>
</glyph>
<glyph name="uni0987" format="1">
  <advance width="406"/>
  <unicode hex="0987"/>
  <note>
	uni0987
  </note>
  <outline>
    <contour>
      <point x="416" y="491" type="line"/>
      <point x="416" y="456" type="line"/>
      <point x="-10" y="456" type="line"/>
      <point x="-10" y="491" type="line"/>
    </contour>
    <contour>
      <point x="293" y="421"/>
      <point x="362" y="357"/>
      <point x="362" y="280" type="curve" smooth="yes"/>
      <point x="362" y="196"/>
      <point x="279" y="129"/>
      <point x="171" y="128" type="curve"/>
      <point x="167" y="146" type="line"/>
      <point x="241" y="113"/>
      <point x="302" y="76"/>
      <point x="425" y="-30" type="curve"/>
      <point x="409" y="-49" type="line"/>
      <point x="271" y="60"/>
      <point x="198" y="91"/>
      <point x="71" y="121" type="curve"/>
      <point x="28" y="212" type="line"/>
      <point x="66" y="192"/>
      <point x="113" y="181"/>
      <point x="157" y="181" type="curve" smooth="yes"/>
      <point x="256" y="181"/>
      <point x="324" y="235"/>
      <point x="324" y="300" type="curve" smooth="yes"/>
      <point x="324" y="344"/>
      <point x="293" y="375"/>
      <point x="236" y="375" type="curve" smooth="yes"/>
      <point x="209" y="375"/>
      <point x="190" y="368"/>
      <point x="176" y="359" type="curve"/>
      <point x="205" y="390" type="line"/>
      <point x="210" y="377"/>
      <point x="211" y="364"/>
      <point x="211" y="356" type="curve" smooth="yes"/>
      <point x="211" y="306"/>
      <point x="173" y="269"/>
      <point x="128" y="269" type="curve" smooth="yes"/>
      <point x="90" y="269"/>
      <point x="65" y="296"/>
      <point x="65" y="330" type="curve" smooth="yes"/>
      <point x="65" y="380"/>
      <point x="118" y="421"/>
      <point x="196" y="421" type="curve" smooth="yes"/>
    </contour>
    <contour>
      <point x="302" y="486" type="line"/>
      <point x="309" y="497"/>
      <point x="312" y="508"/>
      <point x="312" y="520" type="curve" smooth="yes"/>
      <point x="312" y="548"/>
      <point x="296" y="564"/>
      <point x="253" y="564" type="curve" smooth="yes"/>
      <point x="217" y="564"/>
      <point x="133" y="553"/>
      <point x="97" y="553" type="curve" smooth="yes"/>
      <point x="33" y="553"/>
      <point x="-9" y="588"/>
      <point x="-9" y="638" type="curve" smooth="yes"/>
      <point x="-9" y="668"/>
      <point x="6" y="694"/>
      <point x="26" y="714" type="curve"/>
      <point x="44" y="698" type="line"/>
      <point x="29" y="683"/>
      <point x="19" y="664"/>
      <point x="19" y="645" type="curve" smooth="yes"/>
      <point x="19" y="620"/>
      <point x="37" y="604"/>
      <point x="79" y="604" type="curve" smooth="yes"/>
      <point x="116" y="604"/>
      <point x="184" y="616"/>
      <point x="222" y="616" type="curve" smooth="yes"/>
      <point x="301" y="616"/>
      <point x="340" y="564"/>
      <point x="346" y="485" type="curve"/>
    </contour>
  </outline>
</glyph>
<glyph name="uni0988" format="1">
  <advance width="455"/>
  <unicode hex="0988"/>
  <note>
	uni0988
  </note>
  <outline>
    <contour>
      <point x="-10" y="456" type="line"/>
      <point x="-10" y="491" type="line"/>
      <point x="465" y="491" type="line"/>
      <point x="465" y="456" type="line"/>
    </contour>
    <contour>
      <point x="28" y="387"/>
      <point x="64" y="424"/>
      <point x="122" y="424" type="curve" smooth="yes"/>
      <point x="188" y="424"/>
      <point x="246" y="375"/>
      <point x="246" y="305" type="curve" smooth="yes"/>
      <point x="246" y="293"/>
      <point x="244" y="282"/>
      <point x="241" y="271" type="curve"/>
      <point x="232" y="282" type="line"/>
      <point x="276" y="337"/>
      <point x="335" y="383"/>
      <point x="402" y="411" type="curve"/>
      <point x="441" y="362" type="line"/>
      <point x="396" y="323"/>
      <point x="364" y="261"/>
      <point x="364" y="165" type="curve" smooth="yes"/>
      <point x="364" y="120"/>
      <point x="371" y="60"/>
      <point x="392" y="-14" type="curve"/>
      <point x="366" y="-22" type="line"/>
      <point x="336" y="62"/>
      <point x="321" y="129"/>
      <point x="321" y="191" type="curve" smooth="yes"/>
      <point x="321" y="245"/>
      <point x="332" y="296"/>
      <point x="367" y="351" type="curve"/>
      <point x="377" y="340" type="line"/>
      <point x="320" y="301"/>
      <point x="307" y="292"/>
      <point x="240" y="202" type="curve" smooth="yes"/>
      <point x="199" y="143"/>
      <point x="168" y="109"/>
      <point x="129" y="109" type="curve" smooth="yes"/>
      <point x="89" y="109"/>
      <point x="59" y="147"/>
      <point x="46" y="215" type="curve"/>
      <point x="70" y="222" type="line"/>
      <point x="78" y="188"/>
      <point x="90" y="170"/>
      <point x="113" y="170" type="curve" smooth="yes"/>
      <point x="160" y="170"/>
      <point x="216" y="249"/>
      <point x="216" y="303" type="curve" smooth="yes"/>
      <point x="216" y="337"/>
      <point x="194" y="363"/>
      <point x="156" y="363" type="curve" smooth="yes"/>
      <point x="139" y="363"/>
      <point x="123" y="358"/>
      <point x="111" y="351" type="curve"/>
      <point x="131" y="378" type="line"/>
      <point x="142" y="366"/>
      <point x="147" y="353"/>
      <point x="147" y="339" type="curve" smooth="yes"/>
      <point x="147" y="306"/>
      <point x="120" y="282"/>
      <point x="89" y="282" type="curve" smooth="yes"/>
      <point x="56" y="282"/>
      <point x="28" y="310"/>
      <point x="28" y="346" type="curve" smooth="yes"/>
    </contour>
    <contour>
      <point x="332" y="486" type="line"/>
      <point x="339" y="497"/>
      <point x="342" y="508"/>
      <point x="342" y="520" type="curve" smooth="yes"/>
      <point x="342" y="548"/>
      <point x="326" y="564"/>
      <point x="282" y="564" type="curve" smooth="yes"/>
      <point x="246" y="564"/>
      <point x="154" y="553"/>
      <point x="118" y="553" type="curve" smooth="yes"/>
      <point x="53" y="553"/>
      <point x="11" y="588"/>
      <point x="11" y="638" type="curve" smooth="yes"/>
      <point x="11" y="668"/>
      <point x="26" y="694"/>
      <point x="46" y="714" type="curve"/>
      <point x="64" y="698" type="line"/>
      <point x="49" y="683"/>
      <point x="39" y="664"/>
      <point x="39" y="645" type="curve" smooth="yes"/>
      <point x="39" y="620"/>
      <point x="56" y="604"/>
      <point x="100" y="604" type="curve" smooth="yes"/>
      <point x="138" y="604"/>
      <point x="212" y="616"/>
      <point x="251" y="616" type="curve" smooth="yes"/>
      <point x="335" y="616"/>
      <point x="370" y="560"/>
      <point x="376" y="485" type="curve"/>
    </contour>
  </outline>
</glyph>
<glyph name="uni0989" format="1">
  <advance width="485"/>
  <unicode hex="0989"/>
  <note>
	uni0989
  </note>
  <outline>
    <contour>
      <point x="243" y="466" type="line"/>
      <point x="243" y="274" type="line" smooth="yes"/>
      <point x="243" y="261"/>
      <point x="248" y="253"/>
      <point x="259" y="253" type="curve" smooth="yes"/>
      <point x="285" y="253"/>
      <point x="334" y="299"/>
      <point x="373" y="371" type="curve"/>
      <point x="416" y="335"/>
      <point x="453" y="285"/>
      <point x="453" y="207" type="curve" smooth="yes"/>
      <point x="453" y="105"/>
      <point x="390" y="24"/>
      <point x="292" y="24" type="curve" smooth="yes"/>
      <point x="178" y="24"/>
      <point x="79" y="132"/>
      <point x="20" y="404" type="curve"/>
      <point x="45" y="411" type="line"/>
      <point x="99" y="178"/>
      <point x="174" y="82"/>
      <point x="278" y="82" type="curve" smooth="yes"/>
      <point x="363" y="82"/>
      <point x="423" y="144"/>
      <point x="423" y="225" type="curve" smooth="yes"/>
      <point x="423" y="270"/>
      <point x="404" y="300"/>
      <point x="380" y="317" type="curve"/>
      <point x="406" y="318" type="line"/>
      <point x="372" y="254"/>
      <point x="319" y="209"/>
      <point x="281" y="209" type="curve" smooth="yes"/>
      <point x="241" y="209"/>
      <point x="203" y="257"/>
      <point x="203" y="305" type="curve" smooth="yes"/>
      <point x="203" y="466" type="line"/>
    </contour>
    <contour>
      <point x="-10" y="456" type="line"/>
      <point x="-10" y="491" type="line"/>
      <point x="497" y="491" type="line"/>
      <point x="497" y="456" type="line"/>
    </contour>
    <contour>
      <point x="362" y="486" type="line"/>
      <point x="369" y="497"/>
      <point x="372" y="508"/>
      <point x="372" y="520" type="curve" smooth="yes"/>
      <point x="372" y="548"/>
      <point x="357" y="564"/>
      <point x="312" y="564" type="curve" smooth="yes"/>
      <point x="274" y="564"/>
      <point x="176" y="553"/>
      <point x="139" y="553" type="curve" smooth="yes"/>
      <point x="72" y="553"/>
      <point x="31" y="588"/>
      <point x="31" y="638" type="curve" smooth="yes"/>
      <point x="31" y="668"/>
      <point x="46" y="694"/>
      <point x="66" y="714" type="curve"/>
      <point x="84" y="698" type="line"/>
      <point x="69" y="683"/>
      <point x="59" y="664"/>
      <point x="59" y="645" type="curve" smooth="yes"/>
      <point x="59" y="620"/>
      <point x="76" y="604"/>
      <point x="120" y="604" type="curve" smooth="yes"/>
      <point x="159" y="604"/>
      <point x="241" y="616"/>
      <point x="280" y="616" type="curve" smooth="yes"/>
      <point x="362" y="616"/>
      <point x="400" y="564"/>
      <point x="406" y="485" type="curve"/>
    </contour>
  </outline>
</glyph>
<glyph name="uni098A" format="1">
  <advance width="533"/>
  <unicode hex="098A"/>
  <note>
	uni098A
  </note>
  <outline>
    <contour>
      <point x="-11" y="456" type="line"/>
      <point x="-11" y="491" type="line"/>
      <point x="543" y="491" type="line"/>
      <point x="543" y="456" type="line"/>
    </contour>
    <contour>
      <point x="408" y="486" type="line"/>
      <point x="415" y="497"/>
      <point x="418" y="508"/>
      <point x="418" y="520" type="curve" smooth="yes"/>
      <point x="418" y="549"/>
      <point x="403" y="564"/>
      <point x="356" y="564" type="curve" smooth="yes"/>
      <point x="315" y="564"/>
      <point x="198" y="553"/>
      <point x="154" y="553" type="curve" smooth="yes"/>
      <point x="76" y="553"/>
      <point x="27" y="588"/>
      <point x="27" y="639" type="curve" smooth="yes"/>
      <point x="27" y="667"/>
      <point x="42" y="694"/>
      <point x="62" y="714" type="curve"/>
      <point x="80" y="698" type="line"/>
      <point x="65" y="683"/>
      <point x="55" y="663"/>
      <point x="55" y="646" type="curve" smooth="yes"/>
      <point x="55" y="620"/>
      <point x="78" y="604"/>
      <point x="134" y="604" type="curve" smooth="yes"/>
      <point x="183" y="604"/>
      <point x="282" y="616"/>
      <point x="324" y="616" type="curve" smooth="yes"/>
      <point x="405" y="616"/>
      <point x="445" y="570"/>
      <point x="452" y="485" type="curve"/>
    </contour>
    <contour>
      <point x="197" y="16"/>
      <point x="78" y="110"/>
      <point x="21" y="394" type="curve"/>
      <point x="46" y="401" type="line"/>
      <point x="104" y="148"/>
      <point x="183" y="77"/>
      <point x="294" y="59" type="curve"/>
      <point x="274" y="49" type="line"/>
      <point x="187" y="95"/>
      <point x="127" y="206"/>
      <point x="96" y="404" type="curve"/>
      <point x="121" y="411" type="line"/>
      <point x="159" y="179"/>
      <point x="241" y="83"/>
      <point x="333" y="83" type="curve" smooth="yes"/>
      <point x="407" y="83"/>
      <point x="469" y="145"/>
      <point x="469" y="225" type="curve" smooth="yes"/>
      <point x="469" y="270"/>
      <point x="450" y="300"/>
      <point x="426" y="317" type="curve"/>
      <point x="452" y="318" type="line"/>
      <point x="418" y="254"/>
      <point x="365" y="209"/>
      <point x="327" y="209" type="curve" smooth="yes"/>
      <point x="287" y="209"/>
      <point x="249" y="257"/>
      <point x="249" y="305" type="curve" smooth="yes"/>
      <point x="249" y="466" type="line"/>
      <point x="289" y="466" type="line"/>
      <point x="289" y="274" type="line" smooth="yes"/>
      <point x="289" y="261"/>
      <point x="294" y="253"/>
      <point x="305" y="253" type="curve" smooth="yes"/>
      <point x="331" y="253"/>
      <point x="380" y="299"/>
      <point x="419" y="371" type="curve"/>
      <point x="462" y="335"/>
      <point x="499" y="285"/>
      <point x="499" y="206" type="curve" smooth="yes"/>
      <point x="499" y="100"/>
      <point x="428" y="16"/>
      <point x="316" y="16" type="curve" smooth="yes"/>
    </contour>
  </outline>
</glyph>
<glyph name="uni098B" format="1">
  <advance width="553"/>
  <unicode hex="098B"/>
  <note>
	uni098B
  </note>
  <outline>
    <contour>
      <point x="359" y="261" type="line"/>
      <point x="404" y="229"/>
      <point x="440" y="187"/>
      <point x="458" y="133" type="curve"/>
      <point x="446" y="126" type="line"/>
      <point x="446" y="491" type="line"/>
      <point x="566" y="491" type="line"/>
      <point x="566" y="456" type="line"/>
      <point x="486" y="456" type="line"/>
      <point x="486" y="51" type="line"/>
      <point x="461" y="51" type="line"/>
      <point x="451" y="132"/>
      <point x="420" y="181"/>
      <point x="355" y="214" type="curve"/>
    </contour>
    <contour>
      <point x="328" y="491" type="line"/>
      <point x="368" y="491" type="line"/>
      <point x="368" y="0" type="line"/>
      <point x="343" y="0" type="line"/>
      <point x="333" y="87"/>
      <point x="249" y="169"/>
      <point x="118" y="192" type="curve"/>
      <point x="64" y="260" type="line"/>
      <point x="150" y="327"/>
      <point x="240" y="385"/>
      <point x="336" y="437" type="curve"/>
      <point x="336" y="378" type="line"/>
      <point x="255" y="335"/>
      <point x="178" y="284"/>
      <point x="103" y="225" type="curve"/>
      <point x="107" y="253" type="line"/>
      <point x="203" y="227"/>
      <point x="292" y="176"/>
      <point x="338" y="78" type="curve"/>
      <point x="328" y="62" type="line"/>
    </contour>
    <contour>
      <point x="284" y="384" type="line"/>
      <point x="273" y="417"/>
      <point x="247" y="449"/>
      <point x="220" y="463" type="curve"/>
      <point x="248" y="459" type="line"/>
      <point x="205" y="394"/>
      <point x="152" y="364"/>
      <point x="103" y="364" type="curve" smooth="yes"/>
      <point x="55" y="364"/>
      <point x="22" y="392"/>
      <point x="22" y="430" type="curve" smooth="yes"/>
      <point x="22" y="459"/>
      <point x="41" y="479"/>
      <point x="68" y="479" type="curve" smooth="yes"/>
      <point x="94" y="479"/>
      <point x="112" y="460"/>
      <point x="112" y="436" type="curve" smooth="yes"/>
      <point x="112" y="425"/>
      <point x="108" y="414"/>
      <point x="100" y="403" type="curve"/>
      <point x="85" y="427" type="line"/>
      <point x="92" y="424"/>
      <point x="99" y="423"/>
      <point x="106" y="423" type="curve" smooth="yes"/>
      <point x="144" y="423"/>
      <point x="186" y="458"/>
      <point x="214" y="509" type="curve"/>
      <point x="262" y="476"/>
      <point x="300" y="430"/>
      <point x="308" y="393" type="curve"/>
    </contour>
  </outline>
</glyph>
<glyph name="uni098C" format="1">
  <advance width="433"/>
  <unicode hex="098C"/>
  <note>
	uni098C
  </note>
  <outline>
    <contour>
      <point x="54" y="181"/>
      <point x="103" y="238"/>
      <point x="181" y="238" type="curve" smooth="yes"/>
      <point x="267" y="238"/>
      <point x="329" y="169"/>
      <point x="329" y="86" type="curve" smooth="yes"/>
      <point x="329" y="60"/>
      <point x="323" y="42"/>
      <point x="319" y="34" type="curve"/>
      <point x="304" y="65" type="line"/>
      <point x="353" y="78"/>
      <point x="388" y="112"/>
      <point x="388" y="159" type="curve" smooth="yes"/>
      <point x="388" y="238"/>
      <point x="300" y="273"/>
      <point x="207" y="309" type="curve" smooth="yes"/>
      <point x="84" y="359"/>
      <point x="50" y="409"/>
      <point x="50" y="454" type="curve" smooth="yes"/>
      <point x="50" y="497"/>
      <point x="80" y="514"/>
      <point x="104" y="514" type="curve" smooth="yes"/>
      <point x="135" y="514"/>
      <point x="158" y="491"/>
      <point x="158" y="463" type="curve" smooth="yes"/>
      <point x="158" y="436"/>
      <point x="138" y="414"/>
      <point x="111" y="414" type="curve" smooth="yes"/>
      <point x="101" y="414"/>
      <point x="91" y="417"/>
      <point x="80" y="425" type="curve"/>
      <point x="89" y="448" type="line"/>
      <point x="110" y="409"/>
      <point x="129" y="400"/>
      <point x="230" y="358" type="curve" smooth="yes"/>
      <point x="330" y="316"/>
      <point x="423" y="264"/>
      <point x="423" y="153" type="curve" smooth="yes"/>
      <point x="423" y="62"/>
      <point x="354" y="1"/>
      <point x="267" y="-8" type="curve"/>
      <point x="282" y="28"/>
      <point x="289" y="68"/>
      <point x="289" y="96" type="curve" smooth="yes"/>
      <point x="289" y="165"/>
      <point x="246" y="193"/>
      <point x="199" y="193" type="curve" smooth="yes"/>
      <point x="143" y="193"/>
      <point x="98" y="155"/>
      <point x="98" y="95" type="curve" smooth="yes"/>
      <point x="98" y="65"/>
      <point x="110" y="45"/>
      <point x="133" y="29" type="curve"/>
      <point x="115" y="29" type="line"/>
      <point x="107" y="70"/>
      <point x="140" y="86"/>
      <point x="162" y="86" type="curve" smooth="yes"/>
      <point x="188" y="86"/>
      <point x="211" y="64"/>
      <point x="211" y="36" type="curve" smooth="yes"/>
      <point x="211" y="11"/>
      <point x="191" y="-13"/>
      <point x="157" y="-13" type="curve" smooth="yes"/>
      <point x="104" y="-13"/>
      <point x="54" y="46"/>
      <point x="54" y="114" type="curve" smooth="yes"/>
    </contour>
  </outline>
</glyph>
<glyph name="uni098F" format="1">
  <advance width="522"/>
  <unicode hex="098F"/>
  <note>
	uni098F
  </note>
  <outline>
    <contour>
      <point x="30" y="292"/>
      <point x="42" y="331"/>
      <point x="66" y="366" type="curve"/>
      <point x="86" y="354" type="line"/>
      <point x="69" y="329"/>
      <point x="59" y="296"/>
      <point x="59" y="263" type="curve" smooth="yes"/>
      <point x="59" y="194"/>
      <point x="100" y="139"/>
      <point x="183" y="139" type="curve" smooth="yes"/>
      <point x="218" y="139"/>
      <point x="295" y="149"/>
      <point x="322" y="149" type="curve" smooth="yes"/>
      <point x="371" y="149"/>
      <point x="408" y="118"/>
      <point x="423" y="73" type="curve"/>
      <point x="412" y="81" type="line"/>
      <point x="412" y="418" type="line" smooth="yes"/>
      <point x="412" y="443"/>
      <point x="402" y="458"/>
      <point x="383" y="458" type="curve" smooth="yes"/>
      <point x="336" y="458"/>
      <point x="240" y="363"/>
      <point x="240" y="307" type="curve" smooth="yes"/>
      <point x="240" y="301"/>
      <point x="241" y="291"/>
      <point x="249" y="281" type="curve"/>
      <point x="235" y="291" type="line"/>
      <point x="242" y="306"/>
      <point x="259" y="318"/>
      <point x="280" y="318" type="curve" smooth="yes"/>
      <point x="309" y="318"/>
      <point x="334" y="296"/>
      <point x="334" y="264" type="curve" smooth="yes"/>
      <point x="334" y="231"/>
      <point x="308" y="207"/>
      <point x="268" y="207" type="curve" smooth="yes"/>
      <point x="218" y="207"/>
      <point x="180" y="244"/>
      <point x="180" y="299" type="curve" smooth="yes"/>
      <point x="180" y="392"/>
      <point x="289" y="500"/>
      <point x="362" y="500" type="curve" smooth="yes"/>
      <point x="412" y="500"/>
      <point x="452" y="448"/>
      <point x="452" y="403" type="curve" smooth="yes"/>
      <point x="452" y="0" type="line"/>
      <point x="427" y="0" type="line"/>
      <point x="421" y="65"/>
      <point x="398" y="92"/>
      <point x="351" y="92" type="curve" smooth="yes"/>
      <point x="322" y="92"/>
      <point x="247" y="81"/>
      <point x="208" y="81" type="curve" smooth="yes"/>
      <point x="107" y="81"/>
      <point x="30" y="155"/>
      <point x="30" y="253" type="curve" smooth="yes"/>
    </contour>
  </outline>
</glyph>
<glyph name="uni0990" format="1">
  <advance width="541"/>
  <unicode hex="0990"/>
  <note>
	uni0990
  </note>
  <outline>
    <contour>
      <point x="30" y="292"/>
      <point x="42" y="331"/>
      <point x="66" y="366" type="curve"/>
      <point x="86" y="354" type="line"/>
      <point x="69" y="329"/>
      <point x="59" y="296"/>
      <point x="59" y="263" type="curve" smooth="yes"/>
      <point x="59" y="194"/>
      <point x="100" y="139"/>
      <point x="183" y="139" type="curve" smooth="yes"/>
      <point x="218" y="139"/>
      <point x="295" y="149"/>
      <point x="322" y="149" type="curve" smooth="yes"/>
      <point x="371" y="149"/>
      <point x="408" y="118"/>
      <point x="423" y="73" type="curve"/>
      <point x="412" y="81" type="line"/>
      <point x="412" y="418" type="line" smooth="yes"/>
      <point x="412" y="443"/>
      <point x="402" y="458"/>
      <point x="383" y="458" type="curve" smooth="yes"/>
      <point x="336" y="458"/>
      <point x="240" y="363"/>
      <point x="240" y="307" type="curve" smooth="yes"/>
      <point x="240" y="301"/>
      <point x="241" y="291"/>
      <point x="249" y="281" type="curve"/>
      <point x="235" y="291" type="line"/>
      <point x="242" y="306"/>
      <point x="259" y="318"/>
      <point x="280" y="318" type="curve" smooth="yes"/>
      <point x="309" y="318"/>
      <point x="334" y="296"/>
      <point x="334" y="264" type="curve" smooth="yes"/>
      <point x="334" y="231"/>
      <point x="308" y="207"/>
      <point x="268" y="207" type="curve" smooth="yes"/>
      <point x="218" y="207"/>
      <point x="180" y="244"/>
      <point x="180" y="299" type="curve" smooth="yes"/>
      <point x="180" y="392"/>
      <point x="289" y="500"/>
      <point x="362" y="500" type="curve" smooth="yes"/>
      <point x="412" y="500"/>
      <point x="452" y="448"/>
      <point x="452" y="403" type="curve" smooth="yes"/>
      <point x="452" y="0" type="line"/>
      <point x="427" y="0" type="line"/>
      <point x="421" y="65"/>
      <point x="398" y="92"/>
      <point x="351" y="92" type="curve" smooth="yes"/>
      <point x="322" y="92"/>
      <point x="247" y="81"/>
      <point x="208" y="81" type="curve" smooth="yes"/>
      <point x="107" y="81"/>
      <point x="30" y="155"/>
      <point x="30" y="253" type="curve" smooth="yes"/>
    </contour>
    <contour>
      <point x="450" y="391" type="line"/>
      <point x="480" y="391"/>
      <point x="499" y="414"/>
      <point x="499" y="446" type="curve" smooth="yes"/>
      <point x="499" y="497"/>
      <point x="450" y="540"/>
      <point x="349" y="562" type="curve" smooth="yes"/>
      <point x="259" y="582"/>
      <point x="167" y="618"/>
      <point x="167" y="682" type="curve" smooth="yes"/>
      <point x="167" y="706"/>
      <point x="180" y="731"/>
      <point x="207" y="747" type="curve"/>
      <point x="224" y="732" type="line"/>
      <point x="205" y="719"/>
      <point x="196" y="707"/>
      <point x="196" y="693" type="curve" smooth="yes"/>
      <point x="196" y="666"/>
      <point x="221" y="651"/>
      <point x="378" y="609" type="curve" smooth="yes"/>
      <point x="469" y="585"/>
      <point x="528" y="517"/>
      <point x="528" y="445" type="curve" smooth="yes"/>
      <point x="528" y="402"/>
      <point x="502" y="362"/>
      <point x="450" y="340" type="curve"/>
    </contour>
  </outline>
</glyph>
<glyph name="uni0993" format="1">
  <advance width="529"/>
  <unicode hex="0993"/>
  <note>
	uni0993
  </note>
  <outline>
    <contour>
      <point x="48" y="417" type="line"/>
      <point x="123" y="183"/>
      <point x="229" y="91"/>
      <point x="331" y="91" type="curve" smooth="yes"/>
      <point x="404" y="91"/>
      <point x="449" y="138"/>
      <point x="449" y="197" type="curve" smooth="yes"/>
      <point x="449" y="238"/>
      <point x="428" y="262"/>
      <point x="389" y="271" type="curve"/>
      <point x="427" y="272" type="line"/>
      <point x="411" y="249"/>
      <point x="388" y="230"/>
      <point x="359" y="230" type="curve" smooth="yes"/>
      <point x="328" y="230"/>
      <point x="302" y="253"/>
      <point x="302" y="284" type="curve" smooth="yes"/>
      <point x="302" y="313"/>
      <point x="325" y="337"/>
      <point x="356" y="337" type="curve" smooth="yes"/>
      <point x="383" y="337"/>
      <point x="406" y="319"/>
      <point x="418" y="303" type="curve"/>
      <point x="379" y="308" type="line"/>
      <point x="412" y="328"/>
      <point x="432" y="370"/>
      <point x="432" y="403" type="curve" smooth="yes"/>
      <point x="432" y="439"/>
      <point x="408" y="460"/>
      <point x="363" y="460" type="curve" smooth="yes"/>
      <point x="305" y="460"/>
      <point x="235" y="425"/>
      <point x="206" y="345" type="curve"/>
      <point x="192" y="375" type="line"/>
      <point x="229" y="384"/>
      <point x="260" y="357"/>
      <point x="260" y="323" type="curve" smooth="yes"/>
      <point x="260" y="295"/>
      <point x="237" y="274"/>
      <point x="210" y="274" type="curve" smooth="yes"/>
      <point x="178" y="274"/>
      <point x="153" y="303"/>
      <point x="153" y="345" type="curve" smooth="yes"/>
      <point x="153" y="426"/>
      <point x="245" y="500"/>
      <point x="340" y="500" type="curve" smooth="yes"/>
      <point x="418" y="500"/>
      <point x="469" y="451"/>
      <point x="469" y="384" type="curve" smooth="yes"/>
      <point x="469" y="331"/>
      <point x="438" y="275"/>
      <point x="394" y="243" type="curve"/>
      <point x="418" y="300" type="line"/>
      <point x="453" y="278"/>
      <point x="489" y="232"/>
      <point x="489" y="172" type="curve" smooth="yes"/>
      <point x="489" y="91"/>
      <point x="424" y="30"/>
      <point x="342" y="30" type="curve" smooth="yes"/>
      <point x="224" y="30"/>
      <point x="99" y="157"/>
      <point x="24" y="408" type="curve"/>
    </contour>
  </outline>
</glyph>
<glyph name="uni0994" format="1">
  <advance width="556"/>
  <unicode hex="0994"/>
  <note>
	uni0994
  </note>
  <outline>
    <contour>
      <point x="48" y="417" type="line"/>
      <point x="123" y="183"/>
      <point x="229" y="91"/>
      <point x="331" y="91" type="curve" smooth="yes"/>
      <point x="404" y="91"/>
      <point x="449" y="138"/>
      <point x="449" y="197" type="curve" smooth="yes"/>
      <point x="449" y="238"/>
      <point x="428" y="262"/>
      <point x="389" y="271" type="curve"/>
      <point x="427" y="272" type="line"/>
      <point x="411" y="249"/>
      <point x="388" y="230"/>
      <point x="359" y="230" type="curve" smooth="yes"/>
      <point x="328" y="230"/>
      <point x="302" y="253"/>
      <point x="302" y="284" type="curve" smooth="yes"/>
      <point x="302" y="313"/>
      <point x="325" y="337"/>
      <point x="356" y="337" type="curve" smooth="yes"/>
      <point x="383" y="337"/>
      <point x="406" y="319"/>
      <point x="418" y="303" type="curve"/>
      <point x="379" y="308" type="line"/>
      <point x="412" y="328"/>
      <point x="432" y="370"/>
      <point x="432" y="403" type="curve" smooth="yes"/>
      <point x="432" y="439"/>
      <point x="408" y="460"/>
      <point x="363" y="460" type="curve" smooth="yes"/>
      <point x="305" y="460"/>
      <point x="235" y="425"/>
      <point x="206" y="345" type="curve"/>
      <point x="192" y="375" type="line"/>
      <point x="229" y="384"/>
      <point x="260" y="357"/>
      <point x="260" y="323" type="curve" smooth="yes"/>
      <point x="260" y="295"/>
      <point x="237" y="274"/>
      <point x="210" y="274" type="curve" smooth="yes"/>
      <point x="178" y="274"/>
      <point x="153" y="303"/>
      <point x="153" y="345" type="curve" smooth="yes"/>
      <point x="153" y="426"/>
      <point x="245" y="500"/>
      <point x="340" y="500" type="curve" smooth="yes"/>
      <point x="418" y="500"/>
      <point x="469" y="451"/>
      <point x="469" y="384" type="curve" smooth="yes"/>
      <point x="469" y="331"/>
      <point x="438" y="275"/>
      <point x="394" y="243" type="curve"/>
      <point x="418" y="300" type="line"/>
      <point x="453" y="278"/>
      <point x="489" y="232"/>
      <point x="489" y="172" type="curve" smooth="yes"/>
      <point x="489" y="91"/>
      <point x="424" y="30"/>
      <point x="342" y="30" type="curve" smooth="yes"/>
      <point x="224" y="30"/>
      <point x="99" y="157"/>
      <point x="24" y="408" type="curve"/>
    </contour>
    <contour>
      <point x="415" y="321" type="line"/>
      <point x="466" y="351"/>
      <point x="499" y="387"/>
      <point x="499" y="436" type="curve" smooth="yes"/>
      <point x="499" y="491"/>
      <point x="450" y="539"/>
      <point x="349" y="562" type="curve" smooth="yes"/>
      <point x="254" y="584"/>
      <point x="157" y="618"/>
      <point x="157" y="682" type="curve" smooth="yes"/>
      <point x="157" y="706"/>
      <point x="170" y="731"/>
      <point x="197" y="747" type="curve"/>
      <point x="214" y="732" type="line"/>
      <point x="195" y="719"/>
      <point x="186" y="707"/>
      <point x="186" y="693" type="curve" smooth="yes"/>
      <point x="186" y="666"/>
      <point x="212" y="653"/>
      <point x="378" y="609" type="curve" smooth="yes"/>
      <point x="469" y="585"/>
      <point x="528" y="511"/>
      <point x="528" y="435" type="curve" smooth="yes"/>
      <point x="528" y="371"/>
      <point x="496" y="319"/>
      <point x="420" y="270" type="curve"/>
    </contour>
  </outline>
</glyph>
<glyph name="uni0995" format="1">
  <advance width="536"/>
  <unicode hex="0995"/>
  <note>
	uni0995
  </note>
  <outline>
    <contour>
      <point x="240" y="370"/>
      <point x="151" y="324"/>
      <point x="76" y="250" type="curve"/>
      <point x="61" y="278" type="line"/>
      <point x="172" y="252"/>
      <point x="269" y="162"/>
      <point x="308" y="63" type="curve"/>
      <point x="291" y="67" type="line"/>
      <point x="291" y="468" type="line"/>
      <point x="331" y="468" type="line"/>
      <point x="331" y="0" type="line"/>
      <point x="306" y="0" type="line"/>
      <point x="285" y="109"/>
      <point x="190" y="195"/>
      <point x="68" y="217" type="curve"/>
      <point x="23" y="279" type="line"/>
      <point x="109" y="364"/>
      <point x="226" y="422"/>
      <point x="316" y="422" type="curve" smooth="yes"/>
      <point x="425" y="422"/>
      <point x="499" y="337"/>
      <point x="499" y="250" type="curve" smooth="yes"/>
      <point x="499" y="193"/>
      <point x="468" y="153"/>
      <point x="430" y="153" type="curve" smooth="yes"/>
      <point x="402" y="153"/>
      <point x="377" y="175"/>
      <point x="377" y="203" type="curve" smooth="yes"/>
      <point x="377" y="229"/>
      <point x="398" y="250"/>
      <point x="426" y="250" type="curve" smooth="yes"/>
      <point x="456" y="250"/>
      <point x="476" y="226"/>
      <point x="477" y="196" type="curve"/>
      <point x="445" y="195" type="line"/>
      <point x="460" y="208"/>
      <point x="472" y="230"/>
      <point x="472" y="258" type="curve" smooth="yes"/>
      <point x="472" y="316"/>
      <point x="420" y="370"/>
      <point x="327" y="370" type="curve" smooth="yes"/>
    </contour>
    <contour>
      <point x="-10" y="456" type="line"/>
      <point x="-10" y="491" type="line"/>
      <point x="546" y="491" type="line"/>
      <point x="546" y="456" type="line"/>
    </contour>
  </outline>
</glyph>
<glyph name="uni0996" format="1">
  <advance width="445"/>
  <unicode hex="0996"/>
  <note>
	uni0996
  </note>
  <outline>
    <contour>
      <point x="455" y="491" type="line"/>
      <point x="455" y="456" type="line"/>
      <point x="375" y="456" type="line"/>
      <point x="375" y="0" type="line"/>
      <point x="350" y="0" type="line"/>
      <point x="335" y="114"/>
      <point x="235" y="204"/>
      <point x="98" y="228" type="curve"/>
      <point x="51" y="292" type="line"/>
      <point x="179" y="292"/>
      <point x="244" y="345"/>
      <point x="244" y="398" type="curve" smooth="yes"/>
      <point x="244" y="426"/>
      <point x="226" y="445"/>
      <point x="205" y="453" type="curve"/>
      <point x="238" y="459" type="line"/>
      <point x="195" y="396"/>
      <point x="142" y="366"/>
      <point x="92" y="366" type="curve" smooth="yes"/>
      <point x="46" y="366"/>
      <point x="14" y="392"/>
      <point x="14" y="428" type="curve" smooth="yes"/>
      <point x="14" y="456"/>
      <point x="33" y="478"/>
      <point x="60" y="478" type="curve" smooth="yes"/>
      <point x="85" y="478"/>
      <point x="102" y="459"/>
      <point x="102" y="436" type="curve" smooth="yes"/>
      <point x="102" y="425"/>
      <point x="98" y="414"/>
      <point x="90" y="403" type="curve"/>
      <point x="77" y="430" type="line"/>
      <point x="84" y="427"/>
      <point x="91" y="426"/>
      <point x="98" y="426" type="curve" smooth="yes"/>
      <point x="132" y="426"/>
      <point x="169" y="456"/>
      <point x="193" y="501" type="curve"/>
      <point x="252" y="466"/>
      <point x="285" y="422"/>
      <point x="285" y="373" type="curve" smooth="yes"/>
      <point x="285" y="312"/>
      <point x="231" y="260"/>
      <point x="143" y="254" type="curve"/>
      <point x="146" y="269" type="line"/>
      <point x="241" y="238"/>
      <point x="309" y="166"/>
      <point x="349" y="78" type="curve"/>
      <point x="335" y="72" type="line"/>
      <point x="335" y="491" type="line"/>
    </contour>
  </outline>
</glyph>
<glyph name="uni0997" format="1">
  <advance width="464"/>
  <unicode hex="0997"/>
  <note>
	uni0997
  </note>
  <outline>
    <contour>
      <point x="474" y="491" type="line"/>
      <point x="474" y="456" type="line"/>
      <point x="394" y="456" type="line"/>
      <point x="394" y="0" type="line"/>
      <point x="354" y="0" type="line"/>
      <point x="354" y="284" type="line" smooth="yes"/>
      <point x="354" y="374"/>
      <point x="284" y="447"/>
      <point x="199" y="447" type="curve" smooth="yes"/>
      <point x="131" y="447"/>
      <point x="85" y="399"/>
      <point x="85" y="346" type="curve" smooth="yes"/>
      <point x="85" y="333"/>
      <point x="88" y="320"/>
      <point x="95" y="307" type="curve"/>
      <point x="68" y="332" type="line"/>
      <point x="98" y="359"/>
      <point x="138" y="372"/>
      <point x="167" y="372" type="curve" smooth="yes"/>
      <point x="227" y="372"/>
      <point x="259" y="318"/>
      <point x="259" y="266" type="curve" smooth="yes"/>
      <point x="259" y="214"/>
      <point x="226" y="156"/>
      <point x="168" y="101" type="curve"/>
      <point x="120" y="141" type="line"/>
      <point x="190" y="199"/>
      <point x="225" y="258"/>
      <point x="225" y="295" type="curve" smooth="yes"/>
      <point x="225" y="318"/>
      <point x="211" y="327"/>
      <point x="189" y="327" type="curve" smooth="yes"/>
      <point x="139" y="327"/>
      <point x="108" y="278"/>
      <point x="71" y="278" type="curve" smooth="yes"/>
      <point x="45" y="278"/>
      <point x="22" y="301"/>
      <point x="22" y="346" type="curve" smooth="yes"/>
      <point x="22" y="425"/>
      <point x="91" y="500"/>
      <point x="182" y="500" type="curve" smooth="yes"/>
      <point x="271" y="500"/>
      <point x="344" y="430"/>
      <point x="373" y="336" type="curve"/>
      <point x="354" y="334" type="line"/>
      <point x="354" y="491" type="line"/>
    </contour>
  </outline>
</glyph>
<glyph name="uni0998" format="1">
  <advance width="427"/>
  <unicode hex="0998"/>
  <note>
	uni0998
  </note>
  <outline>
    <contour>
      <point x="-10" y="456" type="line"/>
      <point x="-10" y="491" type="line"/>
      <point x="437" y="491" type="line"/>
      <point x="437" y="456" type="line"/>
    </contour>
    <contour>
      <point x="204" y="329" type="line"/>
      <point x="185" y="321"/>
      <point x="164" y="317"/>
      <point x="146" y="317" type="curve" smooth="yes"/>
      <point x="90" y="317"/>
      <point x="37" y="359"/>
      <point x="37" y="412" type="curve" smooth="yes"/>
      <point x="37" y="439"/>
      <point x="51" y="464"/>
      <point x="69" y="478" type="curve"/>
      <point x="164" y="456" type="line"/>
      <point x="119" y="456"/>
      <point x="92" y="428"/>
      <point x="92" y="397" type="curve" smooth="yes"/>
      <point x="92" y="369"/>
      <point x="112" y="347"/>
      <point x="144" y="347" type="curve" smooth="yes"/>
      <point x="163" y="347"/>
      <point x="185" y="355"/>
      <point x="201" y="367" type="curve"/>
    </contour>
    <contour>
      <point x="224" y="387" type="line"/>
      <point x="265" y="342" type="line"/>
      <point x="102" y="204" type="line"/>
      <point x="94" y="245" type="line"/>
      <point x="203" y="222"/>
      <point x="293" y="157"/>
      <point x="337" y="55" type="curve"/>
      <point x="317" y="59" type="line"/>
      <point x="317" y="467" type="line"/>
      <point x="357" y="467" type="line"/>
      <point x="357" y="0" type="line"/>
      <point x="332" y="0" type="line"/>
      <point x="315" y="91"/>
      <point x="222" y="178"/>
      <point x="94" y="189" type="curve"/>
      <point x="53" y="240" type="line"/>
    </contour>
  </outline>
</glyph>
<glyph name="uni0999" format="1">
  <advance width="451"/>
  <unicode hex="0999"/>
  <note>
	uni0999
  </note>
  <outline>
    <contour>
      <point x="198" y="337"/>
      <point x="120" y="397"/>
      <point x="58" y="488" type="curve"/>
      <point x="78" y="502" type="line"/>
      <point x="136" y="423"/>
      <point x="195" y="382"/>
      <point x="259" y="382" type="curve" smooth="yes"/>
      <point x="309" y="382"/>
      <point x="352" y="407"/>
      <point x="352" y="435" type="curve" smooth="yes"/>
      <point x="352" y="449"/>
      <point x="341" y="460"/>
      <point x="315" y="460" type="curve" smooth="yes"/>
      <point x="241" y="460"/>
      <point x="198" y="373"/>
      <point x="198" y="291" type="curve" smooth="yes"/>
      <point x="198" y="236"/>
      <point x="217" y="217"/>
      <point x="242" y="217" type="curve" smooth="yes"/>
      <point x="277" y="217"/>
      <point x="319" y="255"/>
      <point x="348" y="313" type="curve"/>
      <point x="401" y="273"/>
      <point x="431" y="226"/>
      <point x="431" y="165" type="curve" smooth="yes"/>
      <point x="431" y="76"/>
      <point x="367" y="18"/>
      <point x="284" y="18" type="curve" smooth="yes"/>
      <point x="141" y="18"/>
      <point x="54" y="191"/>
      <point x="22" y="412" type="curve"/>
      <point x="46" y="417" type="line"/>
      <point x="75" y="224"/>
      <point x="153" y="74"/>
      <point x="272" y="74" type="curve" smooth="yes"/>
      <point x="341" y="74"/>
      <point x="400" y="124"/>
      <point x="400" y="185" type="curve" smooth="yes"/>
      <point x="400" y="219"/>
      <point x="381" y="249"/>
      <point x="360" y="263" type="curve"/>
      <point x="385" y="264" type="line"/>
      <point x="360" y="206"/>
      <point x="311" y="164"/>
      <point x="264" y="164" type="curve" smooth="yes"/>
      <point x="211" y="164"/>
      <point x="159" y="218"/>
      <point x="159" y="318" type="curve" smooth="yes"/>
      <point x="159" y="436"/>
      <point x="231" y="500"/>
      <point x="296" y="500" type="curve" smooth="yes"/>
      <point x="344" y="500"/>
      <point x="391" y="464"/>
      <point x="391" y="419" type="curve" smooth="yes"/>
      <point x="391" y="374"/>
      <point x="346" y="337"/>
      <point x="281" y="337" type="curve" smooth="yes"/>
    </contour>
  </outline>
</glyph>
<glyph name="uni099A" format="1">
  <advance width="358"/>
  <unicode hex="099A"/>
  <note>
	uni099A
  </note>
  <outline>
    <contour>
      <point x="102" y="70"/>
      <point x="118" y="56"/>
      <point x="136" y="56" type="curve" smooth="yes"/>
      <point x="191" y="56"/>
      <point x="286" y="196"/>
      <point x="286" y="253" type="curve" smooth="yes"/>
      <point x="286" y="277"/>
      <point x="277" y="282"/>
      <point x="227" y="296" type="curve" smooth="yes"/>
      <point x="169" y="313"/>
      <point x="115" y="346"/>
      <point x="81" y="440" type="curve"/>
      <point x="102" y="443" type="line"/>
      <point x="102" y="122" type="line" smooth="yes"/>
    </contour>
    <contour>
      <point x="102" y="467" type="line"/>
      <point x="102" y="416"/>
      <point x="140" y="369"/>
      <point x="214" y="351" type="curve" smooth="yes"/>
      <point x="253" y="342"/>
      <point x="272" y="335"/>
      <point x="302" y="299" type="curve" smooth="yes"/>
      <point x="317" y="281"/>
      <point x="332" y="259"/>
      <point x="332" y="230" type="curve" smooth="yes"/>
      <point x="332" y="160"/>
      <point x="224" y="10"/>
      <point x="158" y="10" type="curve" smooth="yes"/>
      <point x="118" y="10"/>
      <point x="62" y="62"/>
      <point x="62" y="137" type="curve" smooth="yes"/>
      <point x="62" y="467" type="line"/>
    </contour>
    <contour>
      <point x="-10" y="456" type="line"/>
      <point x="-10" y="491" type="line"/>
      <point x="368" y="491" type="line"/>
      <point x="368" y="456" type="line"/>
    </contour>
  </outline>
</glyph>
<glyph name="uni099B" format="1">
  <advance width="407"/>
  <unicode hex="099B"/>
  <note>
	uni099B
  </note>
  <outline>
    <contour>
      <point x="206" y="354" type="line"/>
      <point x="231" y="348"/>
      <point x="245" y="331"/>
      <point x="245" y="311" type="curve" smooth="yes"/>
      <point x="245" y="266"/>
      <point x="170" y="203"/>
      <point x="121" y="203" type="curve" smooth="yes"/>
      <point x="78" y="203"/>
      <point x="44" y="252"/>
      <point x="44" y="294" type="curve" smooth="yes"/>
      <point x="44" y="467" type="line"/>
      <point x="83" y="467" type="line"/>
      <point x="87" y="426"/>
      <point x="130" y="389"/>
      <point x="191" y="389" type="curve" smooth="yes"/>
      <point x="205" y="389"/>
      <point x="229" y="391"/>
      <point x="242" y="391" type="curve" smooth="yes"/>
      <point x="311" y="391"/>
      <point x="370" y="337"/>
      <point x="370" y="271" type="curve" smooth="yes"/>
      <point x="370" y="199"/>
      <point x="296" y="124"/>
      <point x="176" y="98" type="curve"/>
      <point x="191" y="129" type="line"/>
      <point x="279" y="97"/>
      <point x="352" y="47"/>
      <point x="442" y="-35" type="curve"/>
      <point x="424" y="-53" type="line"/>
      <point x="314" y="40"/>
      <point x="213" y="82"/>
      <point x="90" y="89" type="curve"/>
      <point x="51" y="176" type="line"/>
      <point x="83" y="161"/>
      <point x="113" y="153"/>
      <point x="141" y="153" type="curve" smooth="yes"/>
      <point x="236" y="153"/>
      <point x="326" y="230"/>
      <point x="326" y="297" type="curve" smooth="yes"/>
      <point x="326" y="325"/>
      <point x="309" y="346"/>
      <point x="264" y="346" type="curve" smooth="yes"/>
      <point x="245" y="346"/>
      <point x="219" y="342"/>
      <point x="202" y="342" type="curve" smooth="yes"/>
      <point x="145" y="342"/>
      <point x="85" y="386"/>
      <point x="66" y="444" type="curve"/>
      <point x="84" y="458" type="line"/>
      <point x="84" y="280" type="line" smooth="yes"/>
      <point x="84" y="256"/>
      <point x="91" y="245"/>
      <point x="105" y="245" type="curve" smooth="yes"/>
      <point x="137" y="245"/>
      <point x="193" y="295"/>
      <point x="193" y="325" type="curve" smooth="yes"/>
      <point x="193" y="334"/>
      <point x="188" y="342"/>
      <point x="172" y="346" type="curve"/>
    </contour>
    <contour>
      <point x="-10" y="456" type="line"/>
      <point x="-10" y="491" type="line"/>
      <point x="417" y="491" type="line"/>
      <point x="417" y="456" type="line"/>
    </contour>
  </outline>
</glyph>
<glyph name="uni099C" format="1">
  <advance width="552"/>
  <unicode hex="099C"/>
  <note>
	uni099C
  </note>
  <outline>
    <contour>
      <point x="260" y="474" type="line"/>
      <point x="311" y="411"/>
      <point x="339" y="390"/>
      <point x="385" y="390" type="curve" smooth="yes"/>
      <point x="411" y="390"/>
      <point x="440" y="397"/>
      <point x="464" y="411" type="curve"/>
      <point x="521" y="350" type="line"/>
      <point x="475" y="286"/>
      <point x="461" y="229"/>
      <point x="461" y="155" type="curve" smooth="yes"/>
      <point x="461" y="110"/>
      <point x="466" y="58"/>
      <point x="478" y="4" type="curve"/>
      <point x="452" y="-2" type="line"/>
      <point x="435" y="73"/>
      <point x="427" y="132"/>
      <point x="427" y="188" type="curve" smooth="yes"/>
      <point x="427" y="265"/>
      <point x="442" y="331"/>
      <point x="466" y="372" type="curve"/>
      <point x="484" y="359" type="line"/>
      <point x="460" y="346"/>
      <point x="438" y="340"/>
      <point x="410" y="340" type="curve" smooth="yes"/>
      <point x="342" y="340"/>
      <point x="296" y="374"/>
      <point x="245" y="445" type="curve"/>
      <point x="278" y="429" type="line"/>
      <point x="193" y="360"/>
      <point x="177" y="322"/>
      <point x="177" y="298" type="curve" smooth="yes"/>
      <point x="177" y="278"/>
      <point x="189" y="265"/>
      <point x="210" y="265" type="curve" smooth="yes"/>
      <point x="236" y="265"/>
      <point x="276" y="287"/>
      <point x="316" y="323" type="curve"/>
      <point x="354" y="291"/>
      <point x="381" y="246"/>
      <point x="381" y="194" type="curve" smooth="yes"/>
      <point x="381" y="125"/>
      <point x="334" y="62"/>
      <point x="257" y="62" type="curve" smooth="yes"/>
      <point x="153" y="62"/>
      <point x="60" y="179"/>
      <point x="24" y="407" type="curve"/>
      <point x="49" y="411" type="line"/>
      <point x="76" y="244"/>
      <point x="139" y="121"/>
      <point x="242" y="121" type="curve" smooth="yes"/>
      <point x="300" y="121"/>
      <point x="347" y="160"/>
      <point x="347" y="213" type="curve" smooth="yes"/>
      <point x="347" y="244"/>
      <point x="331" y="270"/>
      <point x="311" y="285" type="curve"/>
      <point x="352" y="276" type="line"/>
      <point x="315" y="241"/>
      <point x="267" y="216"/>
      <point x="232" y="216" type="curve" smooth="yes"/>
      <point x="176" y="216"/>
      <point x="138" y="280"/>
      <point x="138" y="326" type="curve" smooth="yes"/>
      <point x="138" y="374"/>
      <point x="179" y="430"/>
      <point x="238" y="470" type="curve"/>
    </contour>
    <contour>
      <point x="-10" y="456" type="line"/>
      <point x="-10" y="491" type="line"/>
      <point x="562" y="491" type="line"/>
      <point x="562" y="456" type="line"/>
    </contour>
  </outline>
</glyph>
<glyph name="uni099D" format="1">
  <advance width="533"/>
  <unicode hex="099D"/>
  <note>
	uni099D
  </note>
  <outline>
    <contour>
      <point x="240" y="357"/>
      <point x="153" y="310"/>
      <point x="84" y="253" type="curve"/>
      <point x="81" y="273" type="line"/>
      <point x="169" y="247"/>
      <point x="274" y="173"/>
      <point x="313" y="79" type="curve"/>
      <point x="304" y="72" type="line"/>
      <point x="304" y="466" type="line"/>
      <point x="344" y="466" type="line"/>
      <point x="344" y="0" type="line"/>
      <point x="319" y="0" type="line"/>
      <point x="299" y="118"/>
      <point x="184" y="197"/>
      <point x="77" y="214" type="curve"/>
      <point x="25" y="283" type="line"/>
      <point x="113" y="355"/>
      <point x="235" y="416"/>
      <point x="322" y="436" type="curve"/>
      <point x="328" y="384" type="line"/>
    </contour>
    <contour>
      <point x="-10" y="456" type="line"/>
      <point x="-10" y="491" type="line"/>
      <point x="344" y="491" type="line"/>
      <point x="344" y="456" type="line"/>
    </contour>
    <contour>
      <point x="336" y="261" type="line"/>
      <point x="381" y="229"/>
      <point x="417" y="187"/>
      <point x="435" y="133" type="curve"/>
      <point x="423" y="126" type="line"/>
      <point x="423" y="491" type="line"/>
      <point x="543" y="491" type="line"/>
      <point x="543" y="456" type="line"/>
      <point x="463" y="456" type="line"/>
      <point x="463" y="51" type="line"/>
      <point x="438" y="51" type="line"/>
      <point x="428" y="132"/>
      <point x="397" y="181"/>
      <point x="332" y="214" type="curve"/>
    </contour>
  </outline>
</glyph>
<glyph name="uni099E" format="1">
  <advance width="726"/>
  <unicode hex="099E"/>
  <note>
	uni099E
  </note>
  <outline>
    <contour>
      <point x="441" y="354" type="line"/>
      <point x="493" y="441"/>
      <point x="548" y="485"/>
      <point x="594" y="485" type="curve" smooth="yes"/>
      <point x="642" y="485"/>
      <point x="683" y="438"/>
      <point x="683" y="379" type="curve" smooth="yes"/>
      <point x="683" y="337"/>
      <point x="662" y="296"/>
      <point x="612" y="258" type="curve"/>
      <point x="619" y="322" type="line"/>
      <point x="651" y="299"/>
      <point x="683" y="257"/>
      <point x="683" y="207" type="curve" smooth="yes"/>
      <point x="683" y="156"/>
      <point x="651" y="116"/>
      <point x="603" y="116" type="curve" smooth="yes"/>
      <point x="550" y="116"/>
      <point x="489" y="165"/>
      <point x="451" y="244" type="curve"/>
    </contour>
    <contour>
      <point x="461" y="240"/>
      <point x="523" y="171"/>
      <point x="589" y="171" type="curve" smooth="yes"/>
      <point x="627" y="171"/>
      <point x="652" y="193"/>
      <point x="652" y="223" type="curve" smooth="yes"/>
      <point x="652" y="242"/>
      <point x="642" y="268"/>
      <point x="601" y="286" type="curve"/>
      <point x="639" y="285" type="line"/>
      <point x="627" y="259"/>
      <point x="600" y="245"/>
      <point x="577" y="245" type="curve" smooth="yes"/>
      <point x="547" y="245"/>
      <point x="523" y="269"/>
      <point x="523" y="298" type="curve" smooth="yes"/>
      <point x="523" y="327"/>
      <point x="547" y="351"/>
      <point x="576" y="351" type="curve" smooth="yes"/>
      <point x="599" y="351"/>
      <point x="621" y="336"/>
      <point x="631" y="313" type="curve"/>
      <point x="588" y="304" type="line"/>
      <point x="635" y="339"/>
      <point x="651" y="368"/>
      <point x="651" y="394" type="curve" smooth="yes"/>
      <point x="651" y="419"/>
      <point x="636" y="434"/>
      <point x="608" y="434" type="curve" smooth="yes"/>
      <point x="556" y="434"/>
      <point x="488" y="380"/>
      <point x="435" y="258" type="curve"/>
      <point x="440" y="336" type="line"/>
    </contour>
    <contour>
      <point x="30" y="292"/>
      <point x="42" y="331"/>
      <point x="66" y="366" type="curve"/>
      <point x="86" y="354" type="line"/>
      <point x="69" y="329"/>
      <point x="59" y="296"/>
      <point x="59" y="263" type="curve" smooth="yes"/>
      <point x="59" y="194"/>
      <point x="100" y="139"/>
      <point x="183" y="139" type="curve" smooth="yes"/>
      <point x="218" y="139"/>
      <point x="295" y="149"/>
      <point x="322" y="149" type="curve" smooth="yes"/>
      <point x="371" y="149"/>
      <point x="408" y="118"/>
      <point x="423" y="73" type="curve"/>
      <point x="412" y="81" type="line"/>
      <point x="412" y="418" type="line" smooth="yes"/>
      <point x="412" y="443"/>
      <point x="402" y="458"/>
      <point x="383" y="458" type="curve" smooth="yes"/>
      <point x="336" y="458"/>
      <point x="240" y="363"/>
      <point x="240" y="307" type="curve" smooth="yes"/>
      <point x="240" y="301"/>
      <point x="241" y="291"/>
      <point x="249" y="281" type="curve"/>
      <point x="235" y="291" type="line"/>
      <point x="242" y="306"/>
      <point x="259" y="318"/>
      <point x="280" y="318" type="curve" smooth="yes"/>
      <point x="309" y="318"/>
      <point x="334" y="296"/>
      <point x="334" y="264" type="curve" smooth="yes"/>
      <point x="334" y="231"/>
      <point x="308" y="207"/>
      <point x="268" y="207" type="curve" smooth="yes"/>
      <point x="218" y="207"/>
      <point x="180" y="244"/>
      <point x="180" y="299" type="curve" smooth="yes"/>
      <point x="180" y="392"/>
      <point x="289" y="500"/>
      <point x="362" y="500" type="curve" smooth="yes"/>
      <point x="412" y="500"/>
      <point x="452" y="448"/>
      <point x="452" y="403" type="curve" smooth="yes"/>
      <point x="452" y="0" type="line"/>
      <point x="427" y="0" type="line"/>
      <point x="421" y="65"/>
      <point x="398" y="92"/>
      <point x="351" y="92" type="curve" smooth="yes"/>
      <point x="322" y="92"/>
      <point x="247" y="81"/>
      <point x="208" y="81" type="curve" smooth="yes"/>
      <point x="107" y="81"/>
      <point x="30" y="155"/>
      <point x="30" y="253" type="curve" smooth="yes"/>
    </contour>
  </outline>
</glyph>
<glyph name="uni099F" format="1">
  <advance width="372"/>
  <unicode hex="099F"/>
  <note>
	uni099F
  </note>
  <outline>
    <contour>
      <point x="102" y="467" type="line"/>
      <point x="102" y="121" type="line" smooth="yes"/>
      <point x="102" y="76"/>
      <point x="113" y="56"/>
      <point x="137" y="56" type="curve" smooth="yes"/>
      <point x="197" y="56"/>
      <point x="290" y="182"/>
      <point x="290" y="264" type="curve"/>
      <point x="310" y="250" type="line"/>
      <point x="297" y="239"/>
      <point x="285" y="234"/>
      <point x="270" y="234" type="curve" smooth="yes"/>
      <point x="235" y="234"/>
      <point x="208" y="261"/>
      <point x="208" y="293" type="curve" smooth="yes"/>
      <point x="208" y="324"/>
      <point x="234" y="349"/>
      <point x="268" y="349" type="curve" smooth="yes"/>
      <point x="313" y="349"/>
      <point x="342" y="306"/>
      <point x="342" y="256" type="curve" smooth="yes"/>
      <point x="342" y="153"/>
      <point x="228" y="10"/>
      <point x="154" y="10" type="curve" smooth="yes"/>
      <point x="109" y="10"/>
      <point x="62" y="63"/>
      <point x="62" y="138" type="curve" smooth="yes"/>
      <point x="62" y="467" type="line"/>
    </contour>
    <contour>
      <point x="-10" y="456" type="line"/>
      <point x="-10" y="491" type="line"/>
      <point x="382" y="491" type="line"/>
      <point x="382" y="456" type="line"/>
    </contour>
    <contour>
      <point x="282" y="486" type="line"/>
      <point x="289" y="497"/>
      <point x="292" y="508"/>
      <point x="292" y="520" type="curve" smooth="yes"/>
      <point x="292" y="548"/>
      <point x="275" y="564"/>
      <point x="234" y="564" type="curve" smooth="yes"/>
      <point x="200" y="564"/>
      <point x="130" y="553"/>
      <point x="96" y="553" type="curve" smooth="yes"/>
      <point x="34" y="553"/>
      <point x="-9" y="588"/>
      <point x="-9" y="638" type="curve" smooth="yes"/>
      <point x="-9" y="668"/>
      <point x="6" y="694"/>
      <point x="26" y="714" type="curve"/>
      <point x="44" y="698" type="line"/>
      <point x="29" y="683"/>
      <point x="19" y="664"/>
      <point x="19" y="645" type="curve" smooth="yes"/>
      <point x="19" y="620"/>
      <point x="37" y="604"/>
      <point x="78" y="604" type="curve" smooth="yes"/>
      <point x="113" y="604"/>
      <point x="167" y="616"/>
      <point x="204" y="616" type="curve" smooth="yes"/>
      <point x="280" y="616"/>
      <point x="320" y="564"/>
      <point x="326" y="485" type="curve"/>
    </contour>
  </outline>
</glyph>
<glyph name="uni09A0" format="1">
  <advance width="365"/>
  <unicode hex="09A0"/>
  <note>
	uni09A0
  </note>
  <outline>
    <contour>
      <point x="156" y="481" type="line"/>
      <point x="85" y="569"/>
      <point x="51" y="619"/>
      <point x="51" y="669" type="curve" smooth="yes"/>
      <point x="51" y="701"/>
      <point x="65" y="729"/>
      <point x="92" y="748" type="curve"/>
      <point x="131" y="719" type="line"/>
      <point x="107" y="702"/>
      <point x="89" y="682"/>
      <point x="89" y="653" type="curve" smooth="yes"/>
      <point x="89" y="617"/>
      <point x="118" y="563"/>
      <point x="192" y="482" type="curve"/>
    </contour>
    <contour>
      <point x="60" y="180" type="line"/>
      <point x="66" y="107"/>
      <point x="110" y="61"/>
      <point x="172" y="61" type="curve" smooth="yes"/>
      <point x="242" y="61"/>
      <point x="293" y="121"/>
      <point x="293" y="209" type="curve" smooth="yes"/>
      <point x="293" y="280"/>
      <point x="259" y="362"/>
      <point x="191" y="444" type="curve"/>
      <point x="187" y="463" type="line"/>
      <point x="206" y="434"/>
      <point x="217" y="410"/>
      <point x="217" y="365" type="curve" smooth="yes"/>
      <point x="217" y="259"/>
      <point x="157" y="186"/>
      <point x="47" y="160" type="curve"/>
    </contour>
    <contour>
      <point x="206" y="466" type="line"/>
      <point x="291" y="370"/>
      <point x="332" y="274"/>
      <point x="332" y="193" type="curve" smooth="yes"/>
      <point x="332" y="88"/>
      <point x="263" y="23"/>
      <point x="181" y="23" type="curve" smooth="yes"/>
      <point x="94" y="23"/>
      <point x="21" y="102"/>
      <point x="21" y="211" type="curve"/>
      <point x="130" y="240"/>
      <point x="183" y="311"/>
      <point x="183" y="393" type="curve" smooth="yes"/>
      <point x="183" y="423"/>
      <point x="176" y="447"/>
      <point x="160" y="471" type="curve"/>
    </contour>
    <contour>
      <point x="-10" y="456" type="line"/>
      <point x="-10" y="491" type="line"/>
      <point x="375" y="491" type="line"/>
      <point x="375" y="456" type="line"/>
    </contour>
  </outline>
</glyph>
<glyph name="uni09A1" format="1">
  <advance width="487"/>
  <unicode hex="09A1"/>
  <note>
	uni09A1
  </note>
  <outline>
    <contour>
      <point x="243" y="466" type="line"/>
      <point x="243" y="274" type="line" smooth="yes"/>
      <point x="243" y="261"/>
      <point x="248" y="253"/>
      <point x="259" y="253" type="curve" smooth="yes"/>
      <point x="285" y="253"/>
      <point x="334" y="299"/>
      <point x="373" y="371" type="curve"/>
      <point x="416" y="335"/>
      <point x="453" y="285"/>
      <point x="453" y="207" type="curve" smooth="yes"/>
      <point x="453" y="105"/>
      <point x="390" y="24"/>
      <point x="292" y="24" type="curve" smooth="yes"/>
      <point x="178" y="24"/>
      <point x="79" y="132"/>
      <point x="20" y="404" type="curve"/>
      <point x="45" y="411" type="line"/>
      <point x="99" y="178"/>
      <point x="174" y="82"/>
      <point x="278" y="82" type="curve" smooth="yes"/>
      <point x="363" y="82"/>
      <point x="423" y="144"/>
      <point x="423" y="225" type="curve" smooth="yes"/>
      <point x="423" y="270"/>
      <point x="404" y="300"/>
      <point x="380" y="317" type="curve"/>
      <point x="406" y="318" type="line"/>
      <point x="372" y="254"/>
      <point x="319" y="209"/>
      <point x="281" y="209" type="curve" smooth="yes"/>
      <point x="241" y="209"/>
      <point x="203" y="257"/>
      <point x="203" y="305" type="curve" smooth="yes"/>
      <point x="203" y="466" type="line"/>
    </contour>
    <contour>
      <point x="-10" y="456" type="line"/>
      <point x="-10" y="491" type="line"/>
      <point x="497" y="491" type="line"/>
      <point x="497" y="456" type="line"/>
    </contour>
  </outline>
</glyph>
<glyph name="uni09A3" format="1">
  <advance width="410"/>
  <unicode hex="09A3"/>
  <note>
	uni09A3
  </note>
  <outline>
    <contour>
      <point x="300" y="491" type="line"/>
      <point x="420" y="491" type="line"/>
      <point x="420" y="456" type="line"/>
      <point x="340" y="456" type="line"/>
      <point x="340" y="0" type="line"/>
      <point x="300" y="0" type="line"/>
    </contour>
    <contour>
      <point x="302" y="271" type="line"/>
      <point x="291" y="365"/>
      <point x="251" y="447"/>
      <point x="165" y="447" type="curve" smooth="yes"/>
      <point x="101" y="447"/>
      <point x="65" y="402"/>
      <point x="65" y="353" type="curve" smooth="yes"/>
      <point x="65" y="308"/>
      <point x="96" y="277"/>
      <point x="134" y="277" type="curve" smooth="yes"/>
      <point x="140" y="277"/>
      <point x="153" y="278"/>
      <point x="164" y="282" type="curve"/>
      <point x="144" y="252" type="line"/>
      <point x="122" y="266"/>
      <point x="114" y="283"/>
      <point x="114" y="300" type="curve" smooth="yes"/>
      <point x="114" y="326"/>
      <point x="133" y="350"/>
      <point x="164" y="350" type="curve" smooth="yes"/>
      <point x="194" y="350"/>
      <point x="219" y="327"/>
      <point x="219" y="295" type="curve" smooth="yes"/>
      <point x="219" y="263"/>
      <point x="193" y="237"/>
      <point x="149" y="237" type="curve" smooth="yes"/>
      <point x="81" y="237"/>
      <point x="18" y="298"/>
      <point x="18" y="374" type="curve" smooth="yes"/>
      <point x="18" y="444"/>
      <point x="70" y="500"/>
      <point x="149" y="500" type="curve" smooth="yes"/>
      <point x="232" y="500"/>
      <point x="301" y="438"/>
      <point x="327" y="277" type="curve"/>
    </contour>
  </outline>
</glyph>
<glyph name="uni09A4" format="1">
  <advance width="515"/>
  <unicode hex="09A4"/>
  <note>
	uni09A4
  </note>
  <outline>
    <contour>
      <point x="-10" y="491" type="line"/>
      <point x="525" y="491" type="line"/>
      <point x="525" y="456" type="line"/>
      <point x="-10" y="456" type="line"/>
    </contour>
    <contour>
      <point x="192" y="369"/>
      <point x="239" y="412"/>
      <point x="306" y="412" type="curve" smooth="yes"/>
      <point x="401" y="412"/>
      <point x="477" y="326"/>
      <point x="477" y="224" type="curve" smooth="yes"/>
      <point x="477" y="121"/>
      <point x="401" y="46"/>
      <point x="307" y="46" type="curve" smooth="yes"/>
      <point x="175" y="46"/>
      <point x="78" y="194"/>
      <point x="7" y="405" type="curve"/>
      <point x="32" y="414" type="line"/>
      <point x="97" y="221"/>
      <point x="183" y="105"/>
      <point x="296" y="105" type="curve" smooth="yes"/>
      <point x="382" y="105"/>
      <point x="437" y="172"/>
      <point x="437" y="249" type="curve" smooth="yes"/>
      <point x="437" y="316"/>
      <point x="396" y="364"/>
      <point x="334" y="364" type="curve" smooth="yes"/>
      <point x="312" y="364"/>
      <point x="295" y="358"/>
      <point x="280" y="346" type="curve"/>
      <point x="296" y="376" type="line"/>
      <point x="322" y="370"/>
      <point x="343" y="343"/>
      <point x="343" y="310" type="curve" smooth="yes"/>
      <point x="343" y="269"/>
      <point x="313" y="237"/>
      <point x="271" y="237" type="curve" smooth="yes"/>
      <point x="227" y="237"/>
      <point x="192" y="271"/>
      <point x="192" y="316" type="curve" smooth="yes"/>
    </contour>
  </outline>
</glyph>
<glyph name="uni09A5" format="1">
  <advance width="445"/>
  <unicode hex="09A5"/>
  <note>
	uni09A5
  </note>
  <outline>
    <contour>
      <point x="288" y="305"/>
      <point x="241" y="246"/>
      <point x="143" y="229" type="curve"/>
      <point x="146" y="249" type="line"/>
      <point x="241" y="221"/>
      <point x="311" y="158"/>
      <point x="348" y="74" type="curve"/>
      <point x="335" y="72" type="line"/>
      <point x="335" y="491" type="line"/>
      <point x="455" y="491" type="line"/>
      <point x="455" y="456" type="line"/>
      <point x="375" y="456" type="line"/>
      <point x="375" y="0" type="line"/>
      <point x="350" y="0" type="line"/>
      <point x="323" y="112"/>
      <point x="246" y="182"/>
      <point x="98" y="208" type="curve"/>
      <point x="51" y="272" type="line"/>
      <point x="183" y="272"/>
      <point x="251" y="331"/>
      <point x="251" y="395" type="curve" smooth="yes"/>
      <point x="251" y="433"/>
      <point x="227" y="458"/>
      <point x="181" y="458" type="curve" smooth="yes"/>
      <point x="139" y="458"/>
      <point x="109" y="437"/>
      <point x="93" y="407" type="curve"/>
      <point x="98" y="426" type="line"/>
      <point x="122" y="423"/>
      <point x="139" y="404"/>
      <point x="139" y="381" type="curve" smooth="yes"/>
      <point x="139" y="354"/>
      <point x="118" y="333"/>
      <point x="90" y="333" type="curve" smooth="yes"/>
      <point x="58" y="333"/>
      <point x="34" y="361"/>
      <point x="34" y="396" type="curve" smooth="yes"/>
      <point x="34" y="453"/>
      <point x="95" y="500"/>
      <point x="163" y="500" type="curve" smooth="yes"/>
      <point x="242" y="500"/>
      <point x="288" y="438"/>
      <point x="288" y="372" type="curve" smooth="yes"/>
    </contour>
  </outline>
</glyph>
<glyph name="uni09A6" format="1">
  <advance width="377"/>
  <unicode hex="09A6"/>
  <note>
	uni09A6
  </note>
  <outline>
    <contour>
      <point x="84" y="467" type="line"/>
      <point x="84" y="220" type="line"/>
      <point x="73" y="231" type="line"/>
      <point x="123" y="307"/>
      <point x="205" y="375"/>
      <point x="300" y="406" type="curve"/>
      <point x="357" y="350" type="line"/>
      <point x="302" y="287"/>
      <point x="280" y="226"/>
      <point x="280" y="149" type="curve" smooth="yes"/>
      <point x="280" y="113"/>
      <point x="285" y="54"/>
      <point x="295" y="-5" type="curve"/>
      <point x="269" y="-10" type="line"/>
      <point x="252" y="59"/>
      <point x="243" y="128"/>
      <point x="243" y="180" type="curve" smooth="yes"/>
      <point x="243" y="256"/>
      <point x="262" y="320"/>
      <point x="291" y="357" type="curve"/>
      <point x="282" y="335" type="line"/>
      <point x="212" y="302"/>
      <point x="145" y="240"/>
      <point x="91" y="148" type="curve"/>
      <point x="44" y="209" type="line"/>
      <point x="44" y="467" type="line"/>
    </contour>
    <contour>
      <point x="-10" y="456" type="line"/>
      <point x="-10" y="491" type="line"/>
      <point x="387" y="491" type="line"/>
      <point x="387" y="456" type="line"/>
    </contour>
  </outline>
</glyph>
<glyph name="uni09A7" format="1">
  <advance width="391"/>
  <unicode hex="09A7"/>
  <note>
	uni09A7
  </note>
  <outline>
    <contour>
      <point x="178" y="347" type="line"/>
      <point x="168" y="345"/>
      <point x="159" y="344"/>
      <point x="150" y="344" type="curve" smooth="yes"/>
      <point x="92" y="344"/>
      <point x="43" y="381"/>
      <point x="43" y="432" type="curve" smooth="yes"/>
      <point x="43" y="476"/>
      <point x="78" y="509"/>
      <point x="125" y="509" type="curve" smooth="yes"/>
      <point x="166" y="509"/>
      <point x="194" y="485"/>
      <point x="194" y="456" type="curve" smooth="yes"/>
      <point x="194" y="432"/>
      <point x="175" y="415"/>
      <point x="153" y="415" type="curve" smooth="yes"/>
      <point x="132" y="415"/>
      <point x="113" y="430"/>
      <point x="113" y="451" type="curve" smooth="yes"/>
      <point x="113" y="465"/>
      <point x="120" y="483"/>
      <point x="139" y="491" type="curve"/>
      <point x="172" y="453" type="line"/>
      <point x="158" y="458"/>
      <point x="143" y="460"/>
      <point x="133" y="460" type="curve" smooth="yes"/>
      <point x="106" y="460"/>
      <point x="87" y="442"/>
      <point x="87" y="420" type="curve" smooth="yes"/>
      <point x="87" y="396"/>
      <point x="110" y="373"/>
      <point x="147" y="373" type="curve" smooth="yes"/>
      <point x="162" y="373"/>
      <point x="176" y="376"/>
      <point x="198" y="386" type="curve"/>
    </contour>
    <contour>
      <point x="281" y="491" type="line"/>
      <point x="401" y="491" type="line"/>
      <point x="401" y="456" type="line"/>
      <point x="321" y="456" type="line"/>
      <point x="321" y="0" type="line"/>
      <point x="296" y="0" type="line"/>
      <point x="286" y="87"/>
      <point x="202" y="169"/>
      <point x="71" y="192" type="curve"/>
      <point x="17" y="260" type="line"/>
      <point x="103" y="330"/>
      <point x="192" y="385"/>
      <point x="289" y="439" type="curve"/>
      <point x="289" y="378" type="line"/>
      <point x="207" y="335"/>
      <point x="131" y="287"/>
      <point x="56" y="225" type="curve"/>
      <point x="60" y="253" type="line"/>
      <point x="156" y="227"/>
      <point x="245" y="176"/>
      <point x="291" y="78" type="curve"/>
      <point x="281" y="62" type="line"/>
    </contour>
  </outline>
</glyph>
<glyph name="uni09A8" format="1">
  <advance width="419"/>
  <unicode hex="09A8"/>
  <note>
	uni09A8
  </note>
  <outline>
    <contour>
      <point x="349" y="467" type="line"/>
      <point x="349" y="0" type="line"/>
      <point x="323" y="0" type="line"/>
      <point x="310" y="165"/>
      <point x="243" y="283"/>
      <point x="148" y="283" type="curve" smooth="yes"/>
      <point x="130" y="283"/>
      <point x="116" y="279"/>
      <point x="101" y="271" type="curve"/>
      <point x="119" y="306" type="line"/>
      <point x="154" y="292"/>
      <point x="178" y="268"/>
      <point x="178" y="230" type="curve" smooth="yes"/>
      <point x="178" y="189"/>
      <point x="148" y="157"/>
      <point x="106" y="157" type="curve" smooth="yes"/>
      <point x="63" y="157"/>
      <point x="25" y="192"/>
      <point x="25" y="240" type="curve" smooth="yes"/>
      <point x="25" y="291"/>
      <point x="66" y="337"/>
      <point x="134" y="337" type="curve" smooth="yes"/>
      <point x="233" y="337"/>
      <point x="301" y="241"/>
      <point x="334" y="93" type="curve"/>
      <point x="309" y="151" type="line"/>
      <point x="309" y="467" type="line"/>
    </contour>
    <contour>
      <point x="-10" y="456" type="line"/>
      <point x="-10" y="491" type="line"/>
      <point x="429" y="491" type="line"/>
      <point x="429" y="456" type="line"/>
    </contour>
  </outline>
</glyph>
<glyph name="uni09AA" format="1">
  <advance width="487"/>
  <unicode hex="09AA"/>
  <note>
	uni09AA
  </note>
  <outline>
    <contour>
      <point x="326" y="378" type="line"/>
      <point x="133" y="202" type="line"/>
      <point x="85" y="244" type="line"/>
      <point x="117" y="270" type="line" smooth="yes"/>
      <point x="134" y="286"/>
      <point x="142" y="304"/>
      <point x="142" y="322" type="curve" smooth="yes"/>
      <point x="142" y="343"/>
      <point x="131" y="356"/>
      <point x="110" y="356" type="curve" smooth="yes"/>
      <point x="85" y="356"/>
      <point x="68" y="327"/>
      <point x="46" y="327" type="curve" smooth="yes"/>
      <point x="31" y="327"/>
      <point x="16" y="342"/>
      <point x="16" y="363" type="curve" smooth="yes"/>
      <point x="16" y="413"/>
      <point x="96" y="498"/>
      <point x="186" y="498" type="curve" smooth="yes"/>
      <point x="259" y="498"/>
      <point x="318" y="443"/>
      <point x="385" y="313" type="curve"/>
      <point x="381" y="259" type="line"/>
      <point x="335" y="355"/>
      <point x="276" y="451"/>
      <point x="201" y="451" type="curve" smooth="yes"/>
      <point x="157" y="451"/>
      <point x="111" y="424"/>
      <point x="76" y="362" type="curve"/>
      <point x="55" y="381" type="line"/>
      <point x="69" y="389"/>
      <point x="83" y="392"/>
      <point x="95" y="392" type="curve" smooth="yes"/>
      <point x="139" y="392"/>
      <point x="172" y="356"/>
      <point x="172" y="314" type="curve" smooth="yes"/>
      <point x="172" y="303"/>
      <point x="170" y="291"/>
      <point x="165" y="280" type="curve"/>
      <point x="139" y="290" type="line"/>
      <point x="292" y="422" type="line"/>
    </contour>
    <contour>
      <point x="377" y="491" type="line"/>
      <point x="497" y="491" type="line"/>
      <point x="497" y="456" type="line"/>
      <point x="417" y="456" type="line"/>
      <point x="417" y="0" type="line"/>
      <point x="377" y="0" type="line"/>
    </contour>
  </outline>
</glyph>
<glyph name="uni09AB" format="1">
  <advance width="531"/>
  <unicode hex="09AB"/>
  <note>
	uni09AB
  </note>
  <outline>
    <contour>
      <point x="360" y="412" type="line" smooth="yes"/>
      <point x="437" y="412"/>
      <point x="497" y="358"/>
      <point x="497" y="289" type="curve" smooth="yes"/>
      <point x="497" y="240"/>
      <point x="467" y="198"/>
      <point x="425" y="198" type="curve" smooth="yes"/>
      <point x="396" y="198"/>
      <point x="372" y="218"/>
      <point x="372" y="248" type="curve" smooth="yes"/>
      <point x="372" y="275"/>
      <point x="392" y="296"/>
      <point x="421" y="296" type="curve" smooth="yes"/>
      <point x="448" y="296"/>
      <point x="470" y="277"/>
      <point x="470" y="247" type="curve"/>
      <point x="449" y="257" type="line"/>
      <point x="461" y="270"/>
      <point x="468" y="284"/>
      <point x="468" y="302" type="curve" smooth="yes"/>
      <point x="468" y="340"/>
      <point x="437" y="367"/>
      <point x="380" y="367" type="curve" smooth="yes"/>
      <point x="334" y="367" type="line"/>
      <point x="334" y="0" type="line"/>
      <point x="309" y="0" type="line"/>
      <point x="287" y="107"/>
      <point x="196" y="175"/>
      <point x="74" y="198" type="curve"/>
      <point x="27" y="260" type="line"/>
      <point x="183" y="375" type="line"/>
      <point x="186" y="347" type="line"/>
      <point x="146" y="395"/>
      <point x="123" y="405"/>
      <point x="86" y="418" type="curve" smooth="yes"/>
      <point x="35" y="436"/>
      <point x="19" y="442"/>
      <point x="17" y="477" type="curve"/>
      <point x="68" y="456" type="line"/>
      <point x="-10" y="456" type="line"/>
      <point x="-10" y="491" type="line"/>
      <point x="541" y="491" type="line"/>
      <point x="541" y="456" type="line"/>
      <point x="78" y="456" type="line"/>
      <point x="77" y="482" type="line"/>
      <point x="132" y="441"/>
      <point x="183" y="394"/>
      <point x="229" y="341" type="curve"/>
      <point x="79" y="227" type="line"/>
      <point x="72" y="254" type="line"/>
      <point x="184" y="221"/>
      <point x="268" y="150"/>
      <point x="304" y="75" type="curve"/>
      <point x="294" y="72" type="line"/>
      <point x="294" y="412" type="line"/>
    </contour>
  </outline>
</glyph>
<glyph name="uni09AC" format="1">
  <advance width="414"/>
  <unicode hex="09AC"/>
  <note>
	uni09AC
  </note>
  <outline>
    <contour>
      <point x="240" y="357"/>
      <point x="153" y="310"/>
      <point x="84" y="253" type="curve"/>
      <point x="81" y="273" type="line"/>
      <point x="169" y="247"/>
      <point x="274" y="173"/>
      <point x="313" y="79" type="curve"/>
      <point x="304" y="72" type="line"/>
      <point x="304" y="466" type="line"/>
      <point x="344" y="466" type="line"/>
      <point x="344" y="0" type="line"/>
      <point x="319" y="0" type="line"/>
      <point x="299" y="118"/>
      <point x="184" y="197"/>
      <point x="77" y="214" type="curve"/>
      <point x="25" y="283" type="line"/>
      <point x="113" y="355"/>
      <point x="235" y="416"/>
      <point x="322" y="436" type="curve"/>
      <point x="328" y="384" type="line"/>
    </contour>
    <contour>
      <point x="-10" y="456" type="line"/>
      <point x="-10" y="491" type="line"/>
      <point x="424" y="491" type="line"/>
      <point x="424" y="456" type="line"/>
    </contour>
  </outline>
</glyph>
<glyph name="uni09AD" format="1">
  <advance width="515"/>
  <unicode hex="09AD"/>
  <note>
	uni09AD
  </note>
  <outline>
    <contour>
      <point x="437" y="290"/>
      <point x="421" y="324"/>
      <point x="396" y="339" type="curve"/>
      <point x="429" y="348" type="line"/>
      <point x="398" y="297"/>
      <point x="340" y="250"/>
      <point x="270" y="250" type="curve" smooth="yes"/>
      <point x="206" y="250"/>
      <point x="162" y="289"/>
      <point x="162" y="338" type="curve" smooth="yes"/>
      <point x="162" y="376"/>
      <point x="190" y="403"/>
      <point x="225" y="403" type="curve" smooth="yes"/>
      <point x="255" y="403"/>
      <point x="285" y="384"/>
      <point x="285" y="344" type="curve" smooth="yes"/>
      <point x="285" y="318"/>
      <point x="273" y="303"/>
      <point x="260" y="296" type="curve"/>
      <point x="238" y="317" type="line"/>
      <point x="247" y="312"/>
      <point x="257" y="310"/>
      <point x="268" y="310" type="curve" smooth="yes"/>
      <point x="315" y="310"/>
      <point x="360" y="345"/>
      <point x="389" y="397" type="curve"/>
      <point x="444" y="355"/>
      <point x="477" y="293"/>
      <point x="477" y="225" type="curve" smooth="yes"/>
      <point x="477" y="121"/>
      <point x="401" y="46"/>
      <point x="307" y="46" type="curve" smooth="yes"/>
      <point x="175" y="46"/>
      <point x="78" y="194"/>
      <point x="7" y="405" type="curve"/>
      <point x="32" y="414" type="line"/>
      <point x="97" y="221"/>
      <point x="183" y="105"/>
      <point x="296" y="105" type="curve" smooth="yes"/>
      <point x="382" y="105"/>
      <point x="437" y="172"/>
      <point x="437" y="248" type="curve"/>
    </contour>
    <contour>
      <point x="-10" y="491" type="line"/>
      <point x="525" y="491" type="line"/>
      <point x="525" y="456" type="line"/>
      <point x="-10" y="456" type="line"/>
    </contour>
  </outline>
</glyph>
<glyph name="uni09AE" format="1">
  <advance width="416"/>
  <unicode hex="09AE"/>
  <note>
	uni09AE
  </note>
  <outline>
    <contour>
      <point x="-10" y="456" type="line"/>
      <point x="-10" y="491" type="line"/>
      <point x="426" y="491" type="line"/>
      <point x="426" y="456" type="line"/>
    </contour>
    <contour>
      <point x="85" y="465" type="line"/>
      <point x="85" y="433"/>
      <point x="111" y="414"/>
      <point x="145" y="387" type="curve" smooth="yes"/>
      <point x="204" y="339"/>
      <point x="223" y="303"/>
      <point x="223" y="258" type="curve" smooth="yes"/>
      <point x="223" y="237"/>
      <point x="219" y="213"/>
      <point x="208" y="194" type="curve"/>
      <point x="199" y="234" type="line"/>
      <point x="251" y="198"/>
      <point x="290" y="151"/>
      <point x="310" y="96" type="curve"/>
      <point x="306" y="82" type="line"/>
      <point x="306" y="467" type="line"/>
      <point x="346" y="467" type="line"/>
      <point x="346" y="0" type="line"/>
      <point x="320" y="0" type="line"/>
      <point x="313" y="82"/>
      <point x="245" y="167"/>
      <point x="175" y="184" type="curve"/>
      <point x="209" y="192" type="line"/>
      <point x="193" y="154"/>
      <point x="164" y="129"/>
      <point x="126" y="129" type="curve" smooth="yes"/>
      <point x="83" y="129"/>
      <point x="53" y="160"/>
      <point x="53" y="199" type="curve" smooth="yes"/>
      <point x="53" y="242"/>
      <point x="88" y="269"/>
      <point x="127" y="269" type="curve" smooth="yes"/>
      <point x="157" y="269"/>
      <point x="186" y="253"/>
      <point x="210" y="226" type="curve"/>
      <point x="160" y="240" type="line"/>
      <point x="173" y="251"/>
      <point x="184" y="270"/>
      <point x="184" y="292" type="curve" smooth="yes"/>
      <point x="184" y="328"/>
      <point x="155" y="344"/>
      <point x="98" y="375" type="curve" smooth="yes"/>
      <point x="43" y="405"/>
      <point x="23" y="419"/>
      <point x="15" y="469" type="curve"/>
    </contour>
  </outline>
</glyph>
<glyph name="uni09AF" format="1">
  <advance width="393"/>
  <unicode hex="09AF"/>
  <note>
	uni09AF
  </note>
  <outline>
    <contour>
      <point x="78" y="456" type="line"/>
      <point x="77" y="482" type="line"/>
      <point x="132" y="441"/>
      <point x="183" y="394"/>
      <point x="229" y="341" type="curve"/>
      <point x="79" y="227" type="line"/>
      <point x="72" y="254" type="line"/>
      <point x="184" y="221"/>
      <point x="268" y="150"/>
      <point x="304" y="75" type="curve"/>
      <point x="294" y="72" type="line"/>
      <point x="294" y="467" type="line"/>
      <point x="334" y="467" type="line"/>
      <point x="334" y="0" type="line"/>
      <point x="309" y="0" type="line"/>
      <point x="287" y="107"/>
      <point x="196" y="175"/>
      <point x="74" y="198" type="curve"/>
      <point x="27" y="260" type="line"/>
      <point x="183" y="375" type="line"/>
      <point x="186" y="347" type="line"/>
      <point x="150" y="390"/>
      <point x="126" y="405"/>
      <point x="86" y="418" type="curve" smooth="yes"/>
      <point x="41" y="432"/>
      <point x="18" y="444"/>
      <point x="17" y="477" type="curve"/>
      <point x="68" y="456" type="line"/>
      <point x="-10" y="456" type="line"/>
      <point x="-10" y="491" type="line"/>
      <point x="414" y="491" type="line"/>
      <point x="414" y="456" type="line"/>
    </contour>
  </outline>
</glyph>
<glyph name="uni09B0" format="1">
  <advance width="414"/>
  <unicode hex="09B0"/>
  <note>
	uni09B0
  </note>
  <outline>
    <contour>
      <point x="240" y="357"/>
      <point x="153" y="310"/>
      <point x="84" y="253" type="curve"/>
      <point x="81" y="273" type="line"/>
      <point x="169" y="247"/>
      <point x="274" y="173"/>
      <point x="313" y="79" type="curve"/>
      <point x="304" y="72" type="line"/>
      <point x="304" y="466" type="line"/>
      <point x="344" y="466" type="line"/>
      <point x="344" y="0" type="line"/>
      <point x="319" y="0" type="line"/>
      <point x="299" y="118"/>
      <point x="184" y="197"/>
      <point x="77" y="214" type="curve"/>
      <point x="25" y="283" type="line"/>
      <point x="113" y="355"/>
      <point x="235" y="416"/>
      <point x="322" y="436" type="curve"/>
      <point x="328" y="384" type="line"/>
    </contour>
    <contour>
      <point x="-10" y="456" type="line"/>
      <point x="-10" y="491" type="line"/>
      <point x="424" y="491" type="line"/>
      <point x="424" y="456" type="line"/>
    </contour>
    <contour>
      <point x="156" y="42"/>
      <point x="174" y="60"/>
      <point x="174" y="82" type="curve" smooth="yes"/>
      <point x="174" y="104"/>
      <point x="156" y="122"/>
      <point x="134" y="122" type="curve" smooth="yes"/>
      <point x="112" y="122"/>
      <point x="94" y="104"/>
      <point x="94" y="82" type="curve" smooth="yes"/>
      <point x="94" y="60"/>
      <point x="112" y="42"/>
      <point x="134" y="42" type="curve" smooth="yes"/>
    </contour>
  </outline>
</glyph>
<glyph name="uni09B2" format="1">
  <advance width="499"/>
  <unicode hex="09B2"/>
  <note>
	uni09B2
  </note>
  <outline>
    <contour>
      <point x="-10" y="456" type="line"/>
      <point x="-10" y="491" type="line"/>
      <point x="509" y="491" type="line"/>
      <point x="509" y="456" type="line"/>
    </contour>
    <contour>
      <point x="389" y="467" type="line"/>
      <point x="429" y="467" type="line"/>
      <point x="429" y="0" type="line"/>
      <point x="389" y="0" type="line"/>
    </contour>
    <contour>
      <point x="391" y="240" type="line"/>
      <point x="386" y="279"/>
      <point x="360" y="338"/>
      <point x="327" y="338" type="curve" smooth="yes"/>
      <point x="303" y="338"/>
      <point x="287" y="308"/>
      <point x="287" y="248" type="curve"/>
      <point x="266" y="248" type="line"/>
      <point x="247" y="306"/>
      <point x="207" y="338"/>
      <point x="159" y="338" type="curve" smooth="yes"/>
      <point x="105" y="338"/>
      <point x="68" y="298"/>
      <point x="68" y="252" type="curve" smooth="yes"/>
      <point x="68" y="205"/>
      <point x="107" y="168"/>
      <point x="150" y="168" type="curve" smooth="yes"/>
      <point x="162" y="168"/>
      <point x="170" y="171"/>
      <point x="179" y="175" type="curve"/>
      <point x="167" y="156" type="line"/>
      <point x="147" y="163"/>
      <point x="128" y="182"/>
      <point x="128" y="208" type="curve" smooth="yes"/>
      <point x="128" y="235"/>
      <point x="151" y="259"/>
      <point x="181" y="259" type="curve" smooth="yes"/>
      <point x="213" y="259"/>
      <point x="238" y="234"/>
      <point x="238" y="201" type="curve" smooth="yes"/>
      <point x="238" y="165"/>
      <point x="208" y="132"/>
      <point x="160" y="132" type="curve" smooth="yes"/>
      <point x="90" y="132"/>
      <point x="27" y="201"/>
      <point x="27" y="277" type="curve" smooth="yes"/>
      <point x="27" y="347"/>
      <point x="80" y="396"/>
      <point x="140" y="396" type="curve" smooth="yes"/>
      <point x="191" y="396"/>
      <point x="234" y="361"/>
      <point x="259" y="307" type="curve"/>
      <point x="239" y="304" type="line"/>
      <point x="241" y="356"/>
      <point x="272" y="393"/>
      <point x="306" y="393" type="curve" smooth="yes"/>
      <point x="340" y="393"/>
      <point x="376" y="358"/>
      <point x="392" y="307" type="curve"/>
    </contour>
  </outline>
</glyph>
<glyph name="uni09B6" format="1">
  <advance width="472"/>
  <unicode hex="09B6"/>
  <note>
	uni09B6
  </note>
  <outline>
    <contour>
      <point x="365" y="332" type="line"/>
      <point x="334" y="398"/>
      <point x="295" y="443"/>
      <point x="263" y="443" type="curve" smooth="yes"/>
      <point x="237" y="443"/>
      <point x="211" y="414"/>
      <point x="189" y="363" type="curve"/>
      <point x="190" y="404" type="line"/>
      <point x="260" y="376"/>
      <point x="292" y="319"/>
      <point x="292" y="281" type="curve" smooth="yes"/>
      <point x="292" y="249"/>
      <point x="269" y="224"/>
      <point x="239" y="224" type="curve" smooth="yes"/>
      <point x="196" y="224"/>
      <point x="159" y="274"/>
      <point x="153" y="342" type="curve"/>
      <point x="169" y="342" type="line"/>
      <point x="164" y="279"/>
      <point x="129" y="224"/>
      <point x="83" y="224" type="curve" smooth="yes"/>
      <point x="52" y="224"/>
      <point x="30" y="250"/>
      <point x="30" y="283" type="curve" smooth="yes"/>
      <point x="30" y="328"/>
      <point x="73" y="380"/>
      <point x="143" y="411" type="curve"/>
      <point x="135" y="368" type="line"/>
      <point x="113" y="426"/>
      <point x="80" y="456"/>
      <point x="37" y="456" type="curve" smooth="yes"/>
      <point x="-10" y="456" type="line"/>
      <point x="-10" y="491" type="line"/>
      <point x="37" y="491" type="line" smooth="yes"/>
      <point x="87" y="491"/>
      <point x="127" y="461"/>
      <point x="158" y="381" type="curve"/>
      <point x="122" y="375" type="line"/>
      <point x="169" y="464"/>
      <point x="207" y="500"/>
      <point x="245" y="500" type="curve" smooth="yes"/>
      <point x="290" y="500"/>
      <point x="334" y="451"/>
      <point x="370" y="381" type="curve"/>
    </contour>
    <contour>
      <point x="362" y="491" type="line"/>
      <point x="482" y="491" type="line"/>
      <point x="482" y="456" type="line"/>
      <point x="402" y="456" type="line"/>
      <point x="402" y="0" type="line"/>
      <point x="362" y="0" type="line"/>
    </contour>
  </outline>
</glyph>
<glyph name="uni09B7" format="1">
  <advance width="404"/>
  <unicode hex="09B7"/>
  <note>
	uni09B7
  </note>
  <outline>
    <contour>
      <point x="78" y="456" type="line"/>
      <point x="77" y="482" type="line"/>
      <point x="142" y="439"/>
      <point x="271" y="304"/>
      <point x="317" y="246" type="curve"/>
      <point x="302" y="226" type="line"/>
      <point x="268" y="266"/>
      <point x="234" y="302"/>
      <point x="197" y="337" type="curve"/>
      <point x="220" y="334" type="line"/>
      <point x="79" y="227" type="line"/>
      <point x="72" y="254" type="line"/>
      <point x="184" y="221"/>
      <point x="268" y="150"/>
      <point x="304" y="75" type="curve"/>
      <point x="294" y="72" type="line"/>
      <point x="294" y="467" type="line"/>
      <point x="334" y="467" type="line"/>
      <point x="334" y="0" type="line"/>
      <point x="309" y="0" type="line"/>
      <point x="287" y="107"/>
      <point x="196" y="175"/>
      <point x="74" y="198" type="curve"/>
      <point x="27" y="260" type="line"/>
      <point x="183" y="375" type="line"/>
      <point x="188" y="347" type="line"/>
      <point x="150" y="386"/>
      <point x="126" y="404"/>
      <point x="86" y="418" type="curve" smooth="yes"/>
      <point x="42" y="434"/>
      <point x="18" y="444"/>
      <point x="17" y="477" type="curve"/>
      <point x="68" y="456" type="line"/>
      <point x="-10" y="456" type="line"/>
      <point x="-10" y="491" type="line"/>
      <point x="414" y="491" type="line"/>
      <point x="414" y="456" type="line"/>
    </contour>
  </outline>
</glyph>
<glyph name="uni09B8" format="1">
  <advance width="471"/>
  <unicode hex="09B8"/>
  <note>
	uni09B8
  </note>
  <outline>
    <contour>
      <point x="401" y="467" type="line"/>
      <point x="401" y="0" type="line"/>
      <point x="361" y="0" type="line"/>
      <point x="361" y="467" type="line"/>
    </contour>
    <contour>
      <point x="173" y="271" type="line"/>
      <point x="179" y="284"/>
      <point x="182" y="305"/>
      <point x="182" y="321" type="curve" smooth="yes"/>
      <point x="182" y="371"/>
      <point x="156" y="400"/>
      <point x="90" y="415" type="curve" smooth="yes"/>
      <point x="51" y="424"/>
      <point x="28" y="430"/>
      <point x="17" y="472" type="curve"/>
      <point x="107" y="471" type="line"/>
      <point x="175" y="440"/>
      <point x="208" y="388"/>
      <point x="208" y="319" type="curve" smooth="yes"/>
      <point x="208" y="309"/>
      <point x="207" y="296"/>
      <point x="202" y="269" type="curve"/>
    </contour>
    <contour>
      <point x="-10" y="456" type="line"/>
      <point x="-10" y="491" type="line"/>
      <point x="481" y="491" type="line"/>
      <point x="481" y="456" type="line"/>
    </contour>
    <contour>
      <point x="110" y="197"/>
      <point x="122" y="206"/>
      <point x="180" y="281" type="curve" smooth="yes"/>
      <point x="217" y="329"/>
      <point x="247" y="352"/>
      <point x="277" y="352" type="curve" smooth="yes"/>
      <point x="316" y="352"/>
      <point x="355" y="311"/>
      <point x="378" y="253" type="curve"/>
      <point x="367" y="214" type="line"/>
      <point x="352" y="267"/>
      <point x="327" y="298"/>
      <point x="293" y="298" type="curve" smooth="yes"/>
      <point x="269" y="298"/>
      <point x="250" y="280"/>
      <point x="209" y="225" type="curve" smooth="yes"/>
      <point x="168" y="171"/>
      <point x="146" y="142"/>
      <point x="115" y="142" type="curve" smooth="yes"/>
      <point x="78" y="142"/>
      <point x="41" y="183"/>
      <point x="25" y="238" type="curve"/>
      <point x="45" y="246" type="line"/>
      <point x="62" y="207"/>
      <point x="75" y="197"/>
      <point x="93" y="197" type="curve" smooth="yes"/>
    </contour>
  </outline>
</glyph>
<glyph name="uni09B9" format="1">
  <advance width="406"/>
  <unicode hex="09B9"/>
  <note>
	uni09B9
  </note>
  <outline>
    <contour>
      <point x="416" y="491" type="line"/>
      <point x="416" y="456" type="line"/>
      <point x="-10" y="456" type="line"/>
      <point x="-10" y="491" type="line"/>
    </contour>
    <contour>
      <point x="293" y="421"/>
      <point x="362" y="357"/>
      <point x="362" y="280" type="curve" smooth="yes"/>
      <point x="362" y="196"/>
      <point x="279" y="129"/>
      <point x="171" y="128" type="curve"/>
      <point x="167" y="146" type="line"/>
      <point x="247" y="109"/>
      <point x="313" y="68"/>
      <point x="445" y="-50" type="curve"/>
      <point x="429" y="-69" type="line"/>
      <point x="283" y="53"/>
      <point x="206" y="88"/>
      <point x="71" y="121" type="curve"/>
      <point x="28" y="212" type="line"/>
      <point x="66" y="192"/>
      <point x="113" y="181"/>
      <point x="157" y="181" type="curve" smooth="yes"/>
      <point x="256" y="181"/>
      <point x="324" y="235"/>
      <point x="324" y="300" type="curve" smooth="yes"/>
      <point x="324" y="344"/>
      <point x="293" y="375"/>
      <point x="236" y="375" type="curve" smooth="yes"/>
      <point x="209" y="375"/>
      <point x="190" y="368"/>
      <point x="176" y="359" type="curve"/>
      <point x="205" y="390" type="line"/>
      <point x="210" y="377"/>
      <point x="211" y="364"/>
      <point x="211" y="356" type="curve" smooth="yes"/>
      <point x="211" y="306"/>
      <point x="173" y="269"/>
      <point x="128" y="269" type="curve" smooth="yes"/>
      <point x="90" y="269"/>
      <point x="65" y="296"/>
      <point x="65" y="330" type="curve" smooth="yes"/>
      <point x="65" y="380"/>
      <point x="118" y="421"/>
      <point x="196" y="421" type="curve" smooth="yes"/>
    </contour>
  </outline>
</glyph>
<glyph name="uni09BD" format="1">
  <advance width="424"/>
  <unicode hex="09BD"/>
  <note>
	uni09BD
  </note>
  <outline>
    <contour>
      <point x="53" y="410"/>
      <point x="110" y="450"/>
      <point x="179" y="450" type="curve" smooth="yes"/>
      <point x="282" y="450"/>
      <point x="364" y="387"/>
      <point x="364" y="310" type="curve" smooth="yes"/>
      <point x="364" y="237"/>
      <point x="296" y="172"/>
      <point x="204" y="156" type="curve"/>
      <point x="311" y="106"/>
      <point x="400" y="31"/>
      <point x="470" y="-69" type="curve"/>
      <point x="446" y="-69" type="line"/>
      <point x="351" y="43"/>
      <point x="222" y="119"/>
      <point x="79" y="144" type="curve"/>
      <point x="15" y="255" type="line"/>
      <point x="50" y="230"/>
      <point x="100" y="217"/>
      <point x="159" y="217" type="curve" smooth="yes"/>
      <point x="218" y="217"/>
      <point x="311" y="292"/>
      <point x="311" y="339" type="curve" smooth="yes"/>
      <point x="311" y="371"/>
      <point x="280" y="397"/>
      <point x="243" y="397" type="curve" smooth="yes"/>
      <point x="218" y="397"/>
      <point x="196" y="387"/>
      <point x="196" y="374" type="curve" smooth="yes"/>
      <point x="196" y="333"/>
      <point x="162" y="298"/>
      <point x="119" y="298" type="curve" smooth="yes"/>
      <point x="83" y="298"/>
      <point x="53" y="326"/>
      <point x="53" y="359" type="curve" smooth="yes"/>
    </contour>
  </outline>
</glyph>
<glyph name="uni09BE" format="1">
  <advance width="183"/>
  <unicode hex="09BE"/>
  <note>
	uni09BE
  </note>
  <outline>
    <contour>
      <point x="193" y="491" type="line"/>
      <point x="193" y="456" type="line"/>
      <point x="113" y="456" type="line"/>
      <point x="113" y="0" type="line"/>
      <point x="73" y="0" type="line"/>
      <point x="73" y="366" type="line" smooth="yes"/>
      <point x="73" y="415"/>
      <point x="43" y="456"/>
      <point x="7" y="456" type="curve" smooth="yes"/>
      <point x="-10" y="456" type="line"/>
      <point x="-10" y="491" type="line"/>
      <point x="11" y="491" type="line" smooth="yes"/>
      <point x="44" y="491"/>
      <point x="77" y="451"/>
      <point x="88" y="384" type="curve"/>
      <point x="73" y="381" type="line"/>
      <point x="73" y="491" type="line"/>
    </contour>
  </outline>
</glyph>
<glyph name="uni09BF" format="1">
  <advance width="185"/>
  <unicode hex="09BF"/>
  <note>
	uni09BF
  </note>
  <outline>
    <contour>
      <point x="113" y="467" type="line"/>
      <point x="113" y="0" type="line"/>
      <point x="73" y="0" type="line"/>
      <point x="73" y="467" type="line"/>
    </contour>
    <contour>
      <point x="78" y="486" type="line"/>
      <point x="50" y="515"/>
      <point x="35" y="549"/>
      <point x="35" y="584" type="curve" smooth="yes"/>
      <point x="35" y="664"/>
      <point x="109" y="728"/>
      <point x="206" y="728" type="curve" smooth="yes"/>
      <point x="303" y="728"/>
      <point x="407" y="663"/>
      <point x="513" y="544" type="curve"/>
      <point x="498" y="530" type="line"/>
      <point x="401" y="630"/>
      <point x="312" y="684"/>
      <point x="227" y="684" type="curve" smooth="yes"/>
      <point x="142" y="684"/>
      <point x="78" y="629"/>
      <point x="78" y="563" type="curve" smooth="yes"/>
      <point x="78" y="536"/>
      <point x="89" y="506"/>
      <point x="107" y="487" type="curve"/>
    </contour>
    <contour>
      <point x="193" y="491" type="line"/>
      <point x="193" y="456" type="line"/>
      <point x="-10" y="456" type="line"/>
      <point x="-10" y="491" type="line"/>
    </contour>
  </outline>
</glyph>
<glyph name="uni09C0" format="1">
  <advance width="185"/>
  <unicode hex="09C0"/>
  <note>
	uni09C0
  </note>
  <outline>
    <contour>
      <point x="74" y="490" type="line"/>
      <point x="74" y="609"/>
      <point x="-27" y="694"/>
      <point x="-187" y="694" type="curve" smooth="yes"/>
      <point x="-286" y="694"/>
      <point x="-363" y="661"/>
      <point x="-363" y="620" type="curve" smooth="yes"/>
      <point x="-363" y="600"/>
      <point x="-344" y="589"/>
      <point x="-310" y="589" type="curve" smooth="yes"/>
      <point x="-282" y="589"/>
      <point x="-210" y="596"/>
      <point x="-186" y="596" type="curve" smooth="yes"/>
      <point x="-121" y="596"/>
      <point x="-72" y="544"/>
      <point x="-72" y="481" type="curve"/>
      <point x="-108" y="481" type="line"/>
      <point x="-107" y="490"/>
      <point x="-105" y="495"/>
      <point x="-105" y="505" type="curve" smooth="yes"/>
      <point x="-105" y="538"/>
      <point x="-128" y="552"/>
      <point x="-159" y="552" type="curve" smooth="yes"/>
      <point x="-179" y="552"/>
      <point x="-243" y="546"/>
      <point x="-271" y="546" type="curve" smooth="yes"/>
      <point x="-333" y="546"/>
      <point x="-392" y="576"/>
      <point x="-392" y="628" type="curve" smooth="yes"/>
      <point x="-392" y="686"/>
      <point x="-320" y="743"/>
      <point x="-200" y="743" type="curve" smooth="yes"/>
      <point x="-33" y="743"/>
      <point x="107" y="634"/>
      <point x="113" y="489" type="curve"/>
    </contour>
    <contour>
      <point x="115" y="467" type="line"/>
      <point x="115" y="0" type="line"/>
      <point x="75" y="0" type="line"/>
      <point x="75" y="467" type="line"/>
    </contour>
    <contour>
      <point x="-10" y="456" type="line"/>
      <point x="-10" y="491" type="line"/>
      <point x="195" y="491" type="line"/>
      <point x="195" y="456" type="line"/>
    </contour>
  </outline>
</glyph>
<glyph name="uni09C2" format="1">
  <advance width="0"/>
  <unicode hex="09C2"/>
  <note>
	uni09C2
  </note>
  <outline>
    <contour>
      <point x="-224" y="-18"/>
      <point x="-188" y="9"/>
      <point x="-143" y="9" type="curve" smooth="yes"/>
      <point x="-115" y="9" type="line"/>
      <point x="-115" y="60" type="line"/>
      <point x="-102" y="55"/>
      <point x="-91" y="50"/>
      <point x="-82" y="44" type="curve"/>
      <point x="-74" y="37"/>
      <point x="-70" y="32"/>
      <point x="-70" y="27" type="curve" smooth="yes"/>
      <point x="-70" y="-35" type="line"/>
      <point x="-133" y="-35" type="line" smooth="yes"/>
      <point x="-165" y="-35"/>
      <point x="-190" y="-47"/>
      <point x="-190" y="-63" type="curve" smooth="yes"/>
      <point x="-190" y="-83"/>
      <point x="-173" y="-100"/>
      <point x="-152" y="-100" type="curve" smooth="yes"/>
      <point x="-123" y="-100"/>
      <point x="-99" y="-93"/>
      <point x="-83" y="-80" type="curve"/>
      <point x="79" y="-196" type="line"/>
      <point x="61" y="-219" type="line"/>
      <point x="-68" y="-134" type="line"/>
      <point x="-87" y="-147"/>
      <point x="-112" y="-154"/>
      <point x="-143" y="-154" type="curve" smooth="yes"/>
      <point x="-179" y="-154"/>
      <point x="-224" y="-97"/>
      <point x="-224" y="-53" type="curve" smooth="yes"/>
    </contour>
  </outline>
</glyph>
<glyph name="uni09C4" format="1">
  <advance width="0"/>
  <unicode hex="09C4"/>
  <note>
	uni09C4
  </note>
  <outline>
    <contour>
      <point x="-115" y="39" type="line"/>
      <point x="-90" y="39"/>
      <point x="-70" y="20"/>
      <point x="-70" y="-3" type="curve" smooth="yes"/>
      <point x="-70" y="-34" type="line"/>
      <point x="-149" y="-87" type="line"/>
      <point x="-65" y="-126" type="line"/>
      <point x="-77" y="-150" type="line"/>
      <point x="-123" y="-134" type="line"/>
      <point x="-169" y="-181" type="line"/>
      <point x="-26" y="-250" type="line"/>
      <point x="-43" y="-269" type="line"/>
      <point x="-231" y="-188" type="line"/>
      <point x="-157" y="-118" type="line"/>
      <point x="-236" y="-82" type="line"/>
      <point x="-115" y="-3" type="line"/>
    </contour>
  </outline>
</glyph>
<glyph name="uni09CB" format="1">
  <advance width="717"/>
  <unicode hex="09CB"/>
  <note>
	uni09CB
  </note>
  <outline>
    <contour>
      <point x="274" y="500" type="line"/>
      <point x="323" y="456" type="line"/>
      <point x="281" y="456" type="line" smooth="yes"/>
      <point x="168" y="456"/>
      <point x="75" y="344"/>
      <point x="75" y="205" type="curve" smooth="yes"/>
      <point x="75" y="120"/>
      <point x="127" y="51"/>
      <point x="191" y="51" type="curve"/>
      <point x="184" y="55"/>
      <point x="180" y="66"/>
      <point x="180" y="81" type="curve" smooth="yes"/>
      <point x="180" y="110"/>
      <point x="205" y="133"/>
      <point x="237" y="133" type="curve" smooth="yes"/>
      <point x="268" y="133"/>
      <point x="293" y="108"/>
      <point x="293" y="76" type="curve" smooth="yes"/>
      <point x="293" y="35"/>
      <point x="257" y="0"/>
      <point x="212" y="0" type="curve" smooth="yes"/>
      <point x="117" y="0"/>
      <point x="41" y="92"/>
      <point x="41" y="205" type="curve" smooth="yes"/>
      <point x="41" y="313"/>
      <point x="83" y="407"/>
      <point x="152" y="456" type="curve"/>
      <point x="-10" y="456" type="line"/>
      <point x="-40" y="500" type="line"/>
    </contour>
    <contour>
      <point x="602" y="366" type="line"/>
      <point x="585" y="396"/>
      <point x="570" y="418"/>
      <point x="559" y="432" type="curve" smooth="yes"/>
      <point x="546" y="448"/>
      <point x="534" y="456"/>
      <point x="525" y="456" type="curve" smooth="yes"/>
      <point x="519" y="456" type="line"/>
      <point x="471" y="500" type="line"/>
      <point x="505" y="500" type="line" smooth="yes"/>
      <point x="538" y="500"/>
      <point x="575" y="466"/>
      <point x="602" y="411" type="curve"/>
      <point x="602" y="581" type="line"/>
      <point x="632" y="561" type="line"/>
      <point x="632" y="517"/>
      <point x="636" y="500"/>
      <point x="664" y="500" type="curve" smooth="yes"/>
      <point x="697" y="500" type="line"/>
      <point x="727" y="456" type="line"/>
      <point x="647" y="456" type="line"/>
      <point x="647" y="-3" type="line"/>
      <point x="602" y="41" type="line"/>
    </contour>
  </outline>
</glyph>
<glyph name="uni09CC" format="1">
  <advance width="826"/>
  <unicode hex="09CC"/>
  <note>
	uni09CC
  </note>
  <outline>
    <contour>
      <point x="274" y="500" type="line"/>
      <point x="323" y="456" type="line"/>
      <point x="281" y="456" type="line" smooth="yes"/>
      <point x="168" y="456"/>
      <point x="75" y="344"/>
      <point x="75" y="205" type="curve" smooth="yes"/>
      <point x="75" y="120"/>
      <point x="127" y="51"/>
      <point x="191" y="51" type="curve"/>
      <point x="184" y="55"/>
      <point x="180" y="66"/>
      <point x="180" y="81" type="curve" smooth="yes"/>
      <point x="180" y="110"/>
      <point x="205" y="133"/>
      <point x="237" y="133" type="curve" smooth="yes"/>
      <point x="268" y="133"/>
      <point x="293" y="108"/>
      <point x="293" y="76" type="curve" smooth="yes"/>
      <point x="293" y="35"/>
      <point x="257" y="0"/>
      <point x="212" y="0" type="curve" smooth="yes"/>
      <point x="117" y="0"/>
      <point x="41" y="92"/>
      <point x="41" y="205" type="curve" smooth="yes"/>
      <point x="41" y="313"/>
      <point x="83" y="407"/>
      <point x="152" y="456" type="curve"/>
      <point x="-10" y="456" type="line"/>
      <point x="-40" y="500" type="line"/>
    </contour>
    <contour>
      <point x="711" y="500" type="line"/>
      <point x="711" y="536"/>
      <point x="680" y="565"/>
      <point x="643" y="565" type="curve" smooth="yes"/>
      <point x="620" y="565"/>
      <point x="585" y="563"/>
      <point x="539" y="560" type="curve" smooth="yes"/>
      <point x="493" y="557"/>
      <point x="458" y="556"/>
      <point x="435" y="556" type="curve" smooth="yes"/>
      <point x="346" y="556"/>
      <point x="274" y="606"/>
      <point x="274" y="667" type="curve" smooth="yes"/>
      <point x="274" y="690"/>
      <point x="285" y="712"/>
      <point x="305" y="728" type="curve"/>
      <point x="367" y="717" type="line"/>
      <point x="331" y="704"/>
      <point x="308" y="687"/>
      <point x="308" y="672" type="curve" smooth="yes"/>
      <point x="308" y="648"/>
      <point x="352" y="629"/>
      <point x="405" y="629" type="curve" smooth="yes"/>
      <point x="427" y="629"/>
      <point x="460" y="631"/>
      <point x="504" y="634" type="curve" smooth="yes"/>
      <point x="549" y="637"/>
      <point x="582" y="639"/>
      <point x="604" y="639" type="curve" smooth="yes"/>
      <point x="688" y="639"/>
      <point x="755" y="577"/>
      <point x="755" y="500" type="curve"/>
      <point x="806" y="500" type="line"/>
      <point x="836" y="456" type="line"/>
      <point x="756" y="456" type="line"/>
      <point x="756" y="-3" type="line"/>
      <point x="711" y="41" type="line"/>
      <point x="711" y="456" type="line"/>
      <point x="634" y="456" type="line"/>
      <point x="586" y="500" type="line"/>
    </contour>
  </outline>
</glyph>
<glyph name="uni09CD" format="1">
  <advance width="0"/>
  <unicode hex="09CD"/>
  <note>
	uni09CD
  </note>
  <outline>
    <contour>
      <point x="-111" y="4" type="line"/>
      <point x="-88" y="4" type="line"/>
      <point x="111" y="-195" type="line"/>
      <point x="111" y="-248" type="line"/>
      <point x="98" y="-248" type="line"/>
      <point x="-111" y="-39" type="line"/>
    </contour>
  </outline>
</glyph>
<glyph name="uni09D7" format="1">
  <advance width="185"/>
  <unicode hex="09D7"/>
  <note>
	uni09D7
  </note>
  <outline>
    <contour>
      <point x="58" y="481" type="line"/>
      <point x="63" y="492"/>
      <point x="70" y="503"/>
      <point x="70" y="519" type="curve" smooth="yes"/>
      <point x="70" y="534"/>
      <point x="54" y="565"/>
      <point x="-3" y="565" type="curve" smooth="yes"/>
      <point x="-33" y="565"/>
      <point x="-166" y="556"/>
      <point x="-205" y="556" type="curve" smooth="yes"/>
      <point x="-294" y="556"/>
      <point x="-366" y="604"/>
      <point x="-366" y="671" type="curve" smooth="yes"/>
      <point x="-366" y="693"/>
      <point x="-358" y="713"/>
      <point x="-345" y="728" type="curve"/>
      <point x="-317" y="717" type="line"/>
      <point x="-326" y="707"/>
      <point x="-332" y="689"/>
      <point x="-332" y="677" type="curve" smooth="yes"/>
      <point x="-332" y="641"/>
      <point x="-278" y="629"/>
      <point x="-234" y="629" type="curve" smooth="yes"/>
      <point x="-193" y="629"/>
      <point x="-81" y="639"/>
      <point x="-35" y="639" type="curve" smooth="yes"/>
      <point x="56" y="639"/>
      <point x="112" y="583"/>
      <point x="126" y="481" type="curve"/>
    </contour>
    <contour>
      <point x="115" y="467" type="line"/>
      <point x="115" y="0" type="line"/>
      <point x="70" y="0" type="line"/>
      <point x="70" y="467" type="line"/>
    </contour>
    <contour>
      <point x="-10" y="456" type="line"/>
      <point x="-10" y="491" type="line"/>
      <point x="195" y="491" type="line"/>
      <point x="195" y="456" type="line"/>
    </contour>
  </outline>
</glyph>
